<svg width="20" height="18" viewBox="0 0 20 18" fill="none" xmlns="http://www.w3.org/2000/svg">
<path d="M6.55131 11.3426H6.5522C6.55293 11.3426 6.55367 11.3424 6.55441 11.3424H16.8366C17.0897 11.3424 17.3123 11.1745 17.3818 10.9311L19.6503 2.99142C19.6992 2.82025 19.665 2.63623 19.5579 2.49415C19.4507 2.35208 19.283 2.26849 19.1051 2.26849H5.24339L4.83798 0.444097C4.78024 0.18461 4.55014 0 4.2843 0H0.881574C0.568328 0 0.314453 0.253875 0.314453 0.567121C0.314453 0.880367 0.568328 1.13424 0.881574 1.13424H3.82942C3.9012 1.45753 5.76945 9.86481 5.87697 10.3485C5.27425 10.6105 4.85142 11.2114 4.85142 11.9095C4.85142 12.8477 5.61467 13.6109 6.55279 13.6109H16.8366C17.1498 13.6109 17.4037 13.357 17.4037 13.0438C17.4037 12.7305 17.1498 12.4767 16.8366 12.4767H6.55279C6.24013 12.4767 5.98567 12.2222 5.98567 11.9095C5.98567 11.5973 6.23925 11.3433 6.55131 11.3426ZM18.3532 3.40273L16.4087 10.2082H7.00767L5.49534 3.40273H18.3532Z" fill="white"/>
<path d="M5.98633 15.3124C5.98633 16.2506 6.74958 17.0138 7.68769 17.0138C8.6258 17.0138 9.38906 16.2506 9.38906 15.3124C9.38906 14.3743 8.6258 13.6111 7.68769 13.6111C6.74958 13.6111 5.98633 14.3743 5.98633 15.3124ZM7.68769 14.7453C8.00035 14.7453 8.25481 14.9998 8.25481 15.3124C8.25481 15.6251 8.00035 15.8796 7.68769 15.8796C7.37504 15.8796 7.12057 15.6251 7.12057 15.3124C7.12057 14.9998 7.37504 14.7453 7.68769 14.7453Z" fill="white"/>
<path d="M14.002 15.3124C14.002 16.2506 14.7652 17.0138 15.7033 17.0138C16.6414 17.0138 17.4047 16.2506 17.4047 15.3124C17.4047 14.3743 16.6414 13.6111 15.7033 13.6111C14.7652 13.6111 14.002 14.3743 14.002 15.3124ZM15.7033 14.7453C16.016 14.7453 16.2704 14.9998 16.2704 15.3124C16.2704 15.6251 16.016 15.8796 15.7033 15.8796C15.3907 15.8796 15.1362 15.6251 15.1362 15.3124C15.1362 14.9998 15.3907 14.7453 15.7033 14.7453Z" fill="white"/>
</svg>
