<svg width="12" height="13" viewBox="0 0 12 13" fill="none" xmlns="http://www.w3.org/2000/svg">
<path d="M7.05014 13C6.93014 13 6.82814 12.958 6.74414 12.874C6.66014 12.79 6.61814 12.682 6.61814 12.55V10.39H0.948141C0.828141 10.39 0.726141 10.348 0.642141 10.264C0.558141 10.18 0.516141 10.072 0.516141 9.94V8.482C0.516141 8.386 0.534141 8.29 0.570141 8.194C0.606141 8.098 0.654141 8.008 0.714141 7.924L5.98814 0.705999C6.14414 0.501999 6.36614 0.399999 6.65414 0.399999H8.94014C9.07214 0.399999 9.18014 0.441999 9.26414 0.526C9.34814 0.609999 9.39014 0.717999 9.39014 0.85V7.978H10.9921C11.1241 7.978 11.2321 8.02 11.3161 8.104C11.4001 8.188 11.4421 8.296 11.4421 8.428V9.94C11.4421 10.072 11.4001 10.18 11.3161 10.264C11.2321 10.348 11.1241 10.39 10.9921 10.39H9.39014V12.55C9.39014 12.682 9.34814 12.79 9.26414 12.874C9.18014 12.958 9.07214 13 8.94014 13H7.05014ZM3.32414 8.086H6.67214V3.352L3.32414 8.086Z" fill="white"/>
</svg>
