<svg width="25" height="25" viewBox="0 0 25 25" fill="none" xmlns="http://www.w3.org/2000/svg">
<path d="M12.5 0.771484C6.00609 0.771484 0.75 6.02668 0.75 12.5215C0.75 14.5824 1.28751 16.5953 2.30822 18.3707L0.794285 23.072C0.688683 23.3998 0.775459 23.7591 1.01894 24.0025C1.26008 24.2437 1.61848 24.3337 1.94946 24.2272L6.65082 22.7133C8.42616 23.734 10.4391 24.2715 12.5 24.2715C18.9939 24.2715 24.25 19.0163 24.25 12.5215C24.25 6.02757 18.9948 0.771484 12.5 0.771484ZM12.5 22.4355C10.6384 22.4355 8.82382 21.9161 7.25234 20.9334C7.02625 20.7922 6.74548 20.754 6.48426 20.8381L3.09046 21.931L4.18342 18.5372C4.26625 18.2798 4.23129 17.9986 4.08786 17.7691C3.10534 16.1977 2.58594 14.3831 2.58594 12.5215C2.58594 7.05491 7.03342 2.60742 12.5 2.60742C17.9666 2.60742 22.4141 7.05491 22.4141 12.5215C22.4141 17.9881 17.9666 22.4355 12.5 22.4355ZM13.6475 12.5215C13.6475 13.1551 13.1338 13.6689 12.5 13.6689C11.8662 13.6689 11.3525 13.1551 11.3525 12.5215C11.3525 11.8877 11.8662 11.374 12.5 11.374C13.1338 11.374 13.6475 11.8877 13.6475 12.5215ZM18.2373 12.5215C18.2373 13.1551 17.7236 13.6689 17.0898 13.6689C16.4561 13.6689 15.9424 13.1551 15.9424 12.5215C15.9424 11.8877 16.4561 11.374 17.0898 11.374C17.7236 11.374 18.2373 11.8877 18.2373 12.5215ZM9.05762 12.5215C9.05762 13.1551 8.54395 13.6689 7.91016 13.6689C7.27654 13.6689 6.7627 13.1551 6.7627 12.5215C6.7627 11.8877 7.27654 11.374 7.91016 11.374C8.54395 11.374 9.05762 11.8877 9.05762 12.5215Z" fill="#585858"/>
</svg>
