<svg width="8" height="13" viewBox="0 0 8 13" fill="none" xmlns="http://www.w3.org/2000/svg">
<path d="M5.33756 13C5.21756 13 5.10956 12.958 5.01356 12.874C4.92956 12.79 4.88756 12.682 4.88756 12.55V3.604L2.29556 5.62C2.18756 5.692 2.07356 5.722 1.95356 5.71C1.84556 5.686 1.74956 5.62 1.66556 5.512L0.765563 4.324C0.693563 4.216 0.663563 4.102 0.675563 3.982C0.699563 3.862 0.765563 3.766 0.873563 3.694L4.97756 0.526C5.04956 0.478 5.11556 0.448 5.17556 0.436C5.24756 0.411999 5.32556 0.399999 5.40956 0.399999H7.31756C7.44956 0.399999 7.55756 0.441999 7.64156 0.526C7.72556 0.609999 7.76756 0.717999 7.76756 0.85V12.55C7.76756 12.682 7.72556 12.79 7.64156 12.874C7.55756 12.958 7.44956 13 7.31756 13H5.33756Z" fill="white"/>
</svg>
