<svg width="233" height="336" viewBox="0 0 233 336" fill="none" xmlns="http://www.w3.org/2000/svg">
<path fill-rule="evenodd" clip-rule="evenodd" d="M2.12891 34.0982C2.12891 15.2663 17.3977 0 36.229 0H196.602C215.435 0 230.702 15.266 230.702 34.0982V436.902C230.702 455.734 215.434 471 196.602 471H36.229C17.3961 471 2.12891 455.734 2.12891 436.902V34.0982Z" fill="#05BEC0"/>
<path fill-rule="evenodd" clip-rule="evenodd" d="M36.7613 2.66357H196.07C213.726 2.66357 228.038 16.9763 228.038 34.6319V436.367C228.038 454.023 213.726 468.336 196.07 468.336H36.7613C19.1057 468.336 4.79297 454.023 4.79297 436.367V34.6319C4.79297 16.9763 19.1057 2.66357 36.7613 2.66357Z" fill="white"/>
<path fill-rule="evenodd" clip-rule="evenodd" d="M80.7183 34.8992C83.2195 34.8992 85.2471 32.8716 85.2471 30.3704C85.2471 27.8692 83.2195 25.8416 80.7183 25.8416C78.2171 25.8416 76.1895 27.8692 76.1895 30.3704C76.1895 32.8716 78.2171 34.8992 80.7183 34.8992Z" fill="#DEDEDE"/>
<path fill-rule="evenodd" clip-rule="evenodd" d="M116.416 18.3825C117.887 18.3825 119.08 17.1898 119.08 15.7185C119.08 14.2472 117.887 13.0544 116.416 13.0544C114.945 13.0544 113.752 14.2472 113.752 15.7185C113.752 17.1898 114.945 18.3825 116.416 18.3825Z" fill="#DEDEDE"/>
<path fill-rule="evenodd" clip-rule="evenodd" d="M98.3023 28.5054H134.533C135.563 28.5054 136.398 29.3403 136.398 30.3702C136.398 31.4001 135.563 32.235 134.533 32.235H98.3023C97.2724 32.235 96.4375 31.4001 96.4375 30.3702C96.4375 29.3403 97.2724 28.5054 98.3023 28.5054Z" fill="#DEDEDE"/>
<path d="M0 102.299C0 101.122 0.954181 100.168 2.13122 100.168V135.333C0.954181 135.333 0 134.379 0 133.202V102.299Z" fill="#DEDEDE"/>
<path d="M0 145.19C0 144.013 0.954181 143.059 2.13122 143.059V178.224C0.954181 178.224 0 177.27 0 176.093V145.19Z" fill="#DEDEDE"/>
<path d="M0 61.8053C0 60.6283 0.954181 59.6741 2.13122 59.6741V78.8551C0.954181 78.8551 0 77.9009 0 76.7238V61.8053Z" fill="#DEDEDE"/>
<path d="M230.707 100.168C231.884 100.168 232.838 101.122 232.838 102.299V133.202C232.838 134.379 231.884 135.333 230.707 135.333V100.168Z" fill="#DEDEDE"/>
</svg>
