<svg width="11" height="14" viewBox="0 0 11 14" fill="none" xmlns="http://www.w3.org/2000/svg">
<path d="M5.12244 13.18C4.23444 13.18 3.47244 13.072 2.83644 12.856C2.20044 12.64 1.67844 12.364 1.27044 12.028C0.862438 11.692 0.556438 11.326 0.352438 10.93C0.148438 10.522 0.0404375 10.132 0.0284375 9.76C0.0284375 9.652 0.0644375 9.562 0.136438 9.49C0.208438 9.418 0.298438 9.382 0.406438 9.382H2.40444C2.53644 9.382 2.64444 9.412 2.72844 9.472C2.81244 9.52 2.88444 9.61 2.94444 9.742C3.05244 10.018 3.20844 10.24 3.41244 10.408C3.62844 10.576 3.88044 10.696 4.16844 10.768C4.46844 10.828 4.78644 10.858 5.12244 10.858C5.79444 10.858 6.32244 10.702 6.70644 10.39C7.09044 10.078 7.28244 9.64 7.28244 9.076C7.28244 8.5 7.10244 8.086 6.74244 7.834C6.38244 7.582 5.87244 7.456 5.21244 7.456H3.28644C3.16644 7.456 3.06444 7.414 2.98044 7.33C2.89644 7.246 2.85444 7.144 2.85444 7.024V6.142C2.85444 5.998 2.87844 5.878 2.92644 5.782C2.98644 5.686 3.04644 5.608 3.10644 5.548L6.20244 2.74H1.12644C0.994438 2.74 0.886438 2.698 0.802438 2.614C0.718438 2.53 0.676438 2.422 0.676438 2.29V0.85C0.676438 0.717999 0.718438 0.609999 0.802438 0.526C0.886438 0.441999 0.994438 0.399999 1.12644 0.399999H9.13644C9.26844 0.399999 9.37644 0.441999 9.46044 0.526C9.54444 0.609999 9.58644 0.717999 9.58644 0.85V2.164C9.58644 2.284 9.55644 2.392 9.49644 2.488C9.44844 2.572 9.38844 2.644 9.31644 2.704L6.40044 5.566L6.58044 5.602C7.28844 5.674 7.91844 5.848 8.47044 6.124C9.02244 6.4 9.45444 6.796 9.76644 7.312C10.0784 7.816 10.2344 8.458 10.2344 9.238C10.2344 10.054 10.0124 10.756 9.56844 11.344C9.12444 11.932 8.51844 12.388 7.75044 12.712C6.98244 13.024 6.10644 13.18 5.12244 13.18Z" fill="white"/>
</svg>
