<svg width="19" height="23" viewBox="0 0 19 23" fill="none" xmlns="http://www.w3.org/2000/svg">
<path fill-rule="evenodd" clip-rule="evenodd" d="M5.93508 11.7297L8.82563 2.08613C8.83942 2.04013 8.88788 2.01403 8.93388 2.02783L16.4934 4.29648C16.5394 4.31028 16.5656 4.35877 16.5518 4.40477L15.4865 7.95866L15.1025 7.8434L15.0448 8.03564L15.4289 8.15089L11.6131 20.8815C11.5993 20.9275 11.5508 20.9536 11.5048 20.9398L3.94523 18.6712C3.89924 18.6573 3.87313 18.6089 3.88692 18.5629L5.66227 12.6398C5.66522 12.9663 5.79058 13.2354 6.03838 13.4473C6.3166 13.6851 6.71789 13.8252 7.24224 13.8673C7.54769 13.8919 7.83308 13.879 8.0984 13.8285C8.36412 13.7729 8.62311 13.6732 8.87537 13.5294L9.11004 13.8637C9.1467 13.918 9.20576 13.9484 9.28722 13.9549L10.3792 14.0428C10.425 14.0465 10.467 14.0345 10.505 14.0068C10.5431 13.9791 10.564 13.9423 10.5676 13.8964C10.5697 13.8709 10.5617 13.842 10.5438 13.8098L9.94182 12.8764C10.2049 12.6616 10.4631 12.4105 10.7165 12.1231C10.97 11.8357 11.2559 11.4175 11.3104 11.2474C11.3239 11.2075 11.3189 11.1737 11.2954 11.1462C11.2775 11.114 11.2482 11.0962 11.2075 11.0929L10.3904 11.0272C10.3446 11.0235 10.303 11.0304 10.2658 11.048C10.2336 11.0659 10.2112 11.0897 10.1986 11.1195C10.0341 11.3833 9.75593 11.7688 9.62788 11.897C9.50492 12.0256 9.43774 12.0971 9.42634 12.1116L8.81674 11.1776C9.21907 11.015 9.54076 10.8357 9.78181 10.6396C10.0233 10.4385 10.1861 10.1951 10.2703 9.90943C10.2972 9.82951 10.3145 9.74112 10.3222 9.64427C10.347 9.33333 10.2502 9.06903 10.0318 8.85139C9.81348 8.63374 9.48794 8.50751 9.05522 8.47269C8.69377 8.4436 8.36818 8.47896 8.07844 8.57877C7.7887 8.67858 7.54896 8.82602 7.35923 9.02109C7.17499 9.21147 7.04768 9.42695 6.97728 9.66753C6.94799 9.77804 6.9309 9.86387 6.92603 9.92504C6.90411 10.2003 6.99062 10.4971 7.18558 10.8155C6.79852 10.9793 6.48111 11.1692 6.23335 11.3853C6.11627 11.4897 6.01685 11.6045 5.93508 11.7297ZM8.08761 5.94585L8.14723 5.75627L8.90413 5.9878L8.84857 6.18042L8.08761 5.94585ZM9.24829 6.29312L9.30436 6.10406L10.0795 6.33658L10.0199 6.52616L9.24829 6.29312ZM10.4095 6.64394L10.465 6.45133L11.2402 6.68385L11.1805 6.87343L10.4095 6.64394ZM11.5666 6.99172L11.6257 6.7986L12.3857 7.05141L12.3301 7.24402L11.5666 6.99172ZM12.7273 7.33899L12.7828 7.14638L13.558 7.37891L13.4989 7.57203L12.7273 7.33899ZM13.8879 7.68627L13.9435 7.49365L14.7035 7.74646L14.6444 7.93959L13.8879 7.68627ZM8.91483 10.1389C8.78413 10.2362 8.59742 10.3289 8.35472 10.4171C8.21742 10.2111 8.15466 10.0342 8.16643 9.88634C8.17861 9.73342 8.2473 9.61069 8.37251 9.51817C8.49813 9.42054 8.63475 9.37767 8.78239 9.38955C8.89948 9.39897 8.98868 9.43693 9.04998 9.50342C9.11639 9.57033 9.14553 9.65475 9.13741 9.7567C9.12523 9.90963 9.05104 10.037 8.91483 10.1389ZM8.36659 12.6804C8.10802 12.8392 7.8311 12.9067 7.53583 12.8829C7.37293 12.8698 7.23658 12.8126 7.1268 12.7115C7.02211 12.6107 6.97585 12.4839 6.98803 12.3309C6.99047 12.3003 6.99881 12.26 7.01305 12.2098C7.09362 11.9701 7.31116 11.7798 7.66564 11.639L8.36659 12.6804Z" fill="#878787"/>
<path fill-rule="evenodd" clip-rule="evenodd" d="M3.20332 18.5755L5.45076 1.56951C5.45705 1.52189 5.50075 1.48841 5.54835 1.49471L13.7465 2.5797C13.7941 2.586 13.8276 2.6297 13.8213 2.67731L13.3405 6.31513L12.9724 6.26654L12.9462 6.46552L13.3142 6.5141L11.5738 19.6833C11.5675 19.7309 11.5238 19.7644 11.4762 19.7581L3.27813 18.6731C3.23052 18.6668 3.19703 18.6231 3.20332 18.5755ZM5.74498 5.51455L5.77065 5.31537L6.57101 5.42118L6.54534 5.62036L5.74498 5.51455ZM6.94704 5.67124L6.97271 5.47206L7.77307 5.57788L7.74739 5.77706L6.94704 5.67124ZM8.14555 5.82845L8.17173 5.63282L8.97208 5.73863L8.9459 5.93426L8.14555 5.82845ZM9.34102 5.98971L9.36669 5.79053L10.167 5.89635L10.1414 6.09553L9.34102 5.98971ZM10.5395 6.14691L10.5652 5.94773L11.3656 6.05355L11.3399 6.25273L10.5395 6.14691ZM11.7385 6.30767L11.7678 6.10798L12.5681 6.21379L12.5384 6.40994L11.7385 6.30767ZM4.9455 5.40547L4.97174 5.20649L5.36943 5.25898L5.34319 5.45796L4.9455 5.40547Z" fill="#878787"/>
<path d="M6.9403 16.417C6.8553 16.3942 6.79686 16.3496 6.76499 16.283C6.73105 16.2243 6.72443 16.1562 6.74514 16.079L6.96255 15.2676C6.41087 15.0701 5.9698 14.8152 5.63933 14.5031C5.31094 14.1832 5.08666 13.8456 4.9665 13.4904C4.84634 13.1352 4.82408 12.7855 4.89973 12.4414C4.91629 12.3796 4.95397 12.3317 5.01276 12.2977C5.08134 12.2581 5.15041 12.2477 5.21996 12.2663L5.82269 12.4278C5.9077 12.4506 5.96717 12.4914 6.00111 12.5501C6.03505 12.6089 6.05147 12.6713 6.05036 12.7373C6.04703 12.9351 6.09393 13.1465 6.19105 13.3713C6.29025 13.5884 6.45852 13.7949 6.69585 13.9911C6.94297 14.1815 7.28291 14.3347 7.71564 14.4507C8.3802 14.6287 8.89808 14.6433 9.2693 14.4943C9.65031 14.3396 9.89361 14.0652 9.99921 13.6711C10.0717 13.4007 10.0447 13.1615 9.91813 12.9537C9.80141 12.7402 9.59064 12.5222 9.28584 12.2998C8.98103 12.0773 8.57887 11.8163 8.07937 11.5168C7.55875 11.2034 7.13886 10.9004 6.81971 10.6078C6.50056 10.3153 6.28656 10.0012 6.17771 9.66556C6.07659 9.33203 6.08504 8.94503 6.20306 8.50457C6.35421 7.94046 6.69226 7.51341 7.21721 7.22339C7.74423 6.92565 8.39956 6.8445 9.18321 6.97994L9.39752 6.18015C9.41822 6.10287 9.45797 6.04727 9.51675 6.01333C9.57761 5.97166 9.65054 5.96221 9.73554 5.98499L10.176 6.10301C10.2533 6.12371 10.3079 6.16732 10.3397 6.23384C10.3814 6.2947 10.3919 6.36376 10.3712 6.44104L10.1538 7.25242C10.6549 7.45296 11.0494 7.71187 11.337 8.02914C11.6247 8.34641 11.8181 8.67568 11.9172 9.01694C12.0162 9.3582 12.0323 9.66897 11.9655 9.94922C11.951 10.0033 11.9172 10.0522 11.8641 10.096C11.813 10.132 11.745 10.1386 11.66 10.1158L11.0457 9.95121C10.9916 9.93672 10.9377 9.90574 10.8842 9.85826C10.8384 9.81286 10.8114 9.74351 10.8033 9.65023C10.8418 9.32098 10.7355 9.00677 10.4844 8.70758C10.2333 8.40839 9.86045 8.19253 9.36589 8.06002C8.86361 7.92543 8.42818 7.91229 8.05959 8.02058C7.69873 8.13094 7.46343 8.3909 7.35369 8.80045C7.28329 9.06318 7.29769 9.30308 7.39689 9.52016C7.49816 9.7295 7.6896 9.9423 7.97123 10.1586C8.25285 10.3748 8.629 10.6247 9.09967 10.9082C9.67231 11.2438 10.1298 11.561 10.4721 11.8598C10.8165 12.1509 11.0432 12.4642 11.152 12.7998C11.2707 13.1298 11.271 13.515 11.1529 13.9554C11.037 14.3882 10.8263 14.7417 10.5209 15.016C10.2253 15.2846 9.85458 15.4627 9.40872 15.5503C8.97058 15.64 8.47871 15.6366 7.93309 15.5401L7.71879 16.3398C7.69809 16.4171 7.65447 16.4717 7.58796 16.5036C7.5271 16.5452 7.45804 16.5557 7.38076 16.535L6.9403 16.417Z" fill="white"/>
</svg>
