<svg width="11" height="13" viewBox="0 0 11 13" fill="none" xmlns="http://www.w3.org/2000/svg">
<path d="M0.815797 13C0.683797 13 0.575797 12.958 0.491797 12.874C0.407797 12.79 0.365797 12.682 0.365797 12.55V11.47C0.365797 11.374 0.389797 11.242 0.437797 11.074C0.497797 10.906 0.623797 10.744 0.815797 10.588L3.1738 8.266C4.0498 7.594 4.7638 7.024 5.3158 6.556C5.8678 6.076 6.2758 5.644 6.5398 5.26C6.8038 4.876 6.9358 4.504 6.9358 4.144C6.9358 3.676 6.8038 3.292 6.5398 2.992C6.2878 2.692 5.8798 2.542 5.3158 2.542C4.9318 2.542 4.6078 2.626 4.3438 2.794C4.0798 2.95 3.8758 3.16 3.7318 3.424C3.5998 3.688 3.5038 3.97 3.4438 4.27C3.4078 4.426 3.3358 4.534 3.2278 4.594C3.1198 4.654 2.9998 4.684 2.8678 4.684H0.959797C0.839797 4.684 0.743797 4.648 0.671797 4.576C0.599797 4.504 0.563797 4.414 0.563797 4.306C0.575797 3.754 0.689797 3.232 0.905797 2.74C1.1338 2.248 1.4518 1.81 1.8598 1.426C2.2678 1.042 2.7598 0.742 3.3358 0.526C3.9118 0.298 4.5658 0.184 5.2978 0.184C6.3058 0.184 7.1518 0.352 7.8358 0.688C8.5198 1.012 9.0358 1.462 9.3838 2.038C9.7318 2.614 9.9058 3.28 9.9058 4.036C9.9058 4.612 9.7858 5.146 9.5458 5.638C9.3178 6.13 8.9818 6.604 8.5378 7.06C8.1058 7.504 7.5778 7.966 6.9538 8.446L4.8478 10.57H9.7258C9.8578 10.57 9.9658 10.612 10.0498 10.696C10.1338 10.78 10.1758 10.888 10.1758 11.02V12.55C10.1758 12.682 10.1338 12.79 10.0498 12.874C9.9658 12.958 9.8578 13 9.7258 13H0.815797Z" fill="white"/>
</svg>
