<svg width="168" height="168" viewBox="0 0 168 168" fill="none" xmlns="http://www.w3.org/2000/svg">
<g filter="url(#filter0_d)">
<ellipse cx="84" cy="80" rx="68" ry="68" transform="rotate(180 84 80)" fill="white"/>
</g>
<path d="M17 80C17 42.9969 46.9969 13 84 13C121.003 13 151 42.9969 151 80C151 117.003 121.003 147 84 147C46.9969 147 17 117.003 17 80Z" stroke="#F28F17" stroke-width="2"/>
<path d="M105.288 47.5137C99.1165 47.5137 94.0957 52.5345 94.0957 58.7059C94.0957 64.8773 99.1165 69.898 105.288 69.898C111.459 69.898 116.48 64.8773 116.48 58.7059C116.48 52.5346 111.459 47.5137 105.288 47.5137ZM105.288 67.5501C100.411 67.5501 96.4437 63.5826 96.4437 58.7059C96.4437 53.8291 100.411 49.8616 105.288 49.8616C110.165 49.8616 114.132 53.8291 114.132 58.7059C114.132 63.5826 110.165 67.5501 105.288 67.5501Z" fill="#05BEC0"/>
<path d="M100.436 53.7754H100.28C99.6309 53.7754 99.1055 54.301 99.1055 54.9495C99.1055 55.5979 99.6311 56.1235 100.28 56.1235H100.436C101.085 56.1235 101.61 55.5979 101.61 54.9495C101.61 54.301 101.085 53.7754 100.436 53.7754Z" fill="#05BEC0"/>
<path d="M105.444 53.7754H105.287C104.639 53.7754 104.113 54.301 104.113 54.9495C104.113 55.5979 104.639 56.1235 105.287 56.1235H105.444C106.093 56.1235 106.618 55.5979 106.618 54.9495C106.618 54.301 106.093 53.7754 105.444 53.7754Z" fill="#05BEC0"/>
<path d="M110.454 53.7754H110.297C109.649 53.7754 109.123 54.301 109.123 54.9495C109.123 55.5979 109.649 56.1235 110.297 56.1235H110.454C111.102 56.1235 111.628 55.5979 111.628 54.9495C111.628 54.301 111.102 53.7754 110.454 53.7754Z" fill="#05BEC0"/>
<path d="M105.444 50.0186H105.287C104.639 50.0186 104.113 50.5442 104.113 51.1926C104.113 51.8411 104.639 52.3667 105.287 52.3667H105.444C106.093 52.3667 106.618 51.8411 106.618 51.1926C106.618 50.5442 106.093 50.0186 105.444 50.0186Z" fill="#05BEC0"/>
<path d="M100.436 57.5322H100.28C99.6309 57.5322 99.1055 58.0579 99.1055 58.7063C99.1055 59.3547 99.6311 59.8804 100.28 59.8804H100.436C101.085 59.8804 101.61 59.3547 101.61 58.7063C101.61 58.0579 101.085 57.5322 100.436 57.5322Z" fill="#05BEC0"/>
<path d="M105.444 57.5322H105.287C104.639 57.5322 104.113 58.0579 104.113 58.7063C104.113 59.3547 104.639 59.8804 105.287 59.8804H105.444C106.093 59.8804 106.618 59.3547 106.618 58.7063C106.618 58.0579 106.093 57.5322 105.444 57.5322Z" fill="#05BEC0"/>
<path d="M110.454 57.5322H110.297C109.649 57.5322 109.123 58.0579 109.123 58.7063C109.123 59.3547 109.649 59.8804 110.297 59.8804H110.454C111.102 59.8804 111.628 59.3547 111.628 58.7063C111.628 58.0579 111.102 57.5322 110.454 57.5322Z" fill="#05BEC0"/>
<path d="M100.436 61.2891H100.28C99.6309 61.2891 99.1055 61.8147 99.1055 62.4631C99.1055 63.1114 99.6311 63.6372 100.28 63.6372H100.436C101.085 63.6372 101.61 63.1116 101.61 62.4631C101.61 61.8147 101.085 61.2891 100.436 61.2891Z" fill="#05BEC0"/>
<path d="M105.444 61.2891H105.287C104.639 61.2891 104.113 61.8147 104.113 62.4631C104.113 63.1114 104.639 63.6372 105.287 63.6372H105.444C106.093 63.6372 106.618 63.1116 106.618 62.4631C106.618 61.8147 106.093 61.2891 105.444 61.2891Z" fill="#05BEC0"/>
<path d="M110.454 61.2891H110.297C109.649 61.2891 109.123 61.8147 109.123 62.4631C109.123 63.1114 109.649 63.6372 110.297 63.6372H110.454C111.102 63.6372 111.628 63.1116 111.628 62.4631C111.628 61.8147 111.102 61.2891 110.454 61.2891Z" fill="#05BEC0"/>
<path d="M105.444 65.0459H105.287C104.639 65.0459 104.113 65.5715 104.113 66.22C104.113 66.8684 104.639 67.394 105.287 67.394H105.444C106.093 67.394 106.618 66.8684 106.618 66.22C106.618 65.5715 106.093 65.0459 105.444 65.0459Z" fill="#05BEC0"/>
<path fill-rule="evenodd" clip-rule="evenodd" d="M114.688 91.4911C119.953 96.7556 122.196 103.924 123.151 109.01C123.879 112.887 123.993 116.125 123.995 117.746C123.996 118.417 123.977 118.813 123.974 118.865C123.944 119.467 123.463 119.948 122.861 119.978C122.853 119.979 122.842 119.979 122.827 119.98C122.617 120.003 122.397 120.002 122.182 119.997C119.965 120.027 112.74 119.876 105.464 117.021C105.399 116.996 105.337 116.965 105.28 116.929C104.004 116.42 102.715 115.821 101.45 115.118C101.387 115.096 101.326 115.068 101.266 115.034C99.0853 113.801 97.1438 112.34 95.4961 110.692C90.2317 105.428 87.9882 98.2596 87.0328 93.1733C86.3068 89.3068 86.1916 86.0752 86.1895 84.4506C86.1885 83.7713 86.2073 83.3706 86.2099 83.3188C86.2399 82.7167 86.7213 82.2352 87.3235 82.205C87.3311 82.2046 87.3424 82.2041 87.3573 82.2034C87.5676 82.1802 87.787 82.1817 88.0021 82.1864C90.2198 82.1569 97.4442 82.3075 104.72 85.1624C104.785 85.1879 104.847 85.2187 104.905 85.254C106.18 85.7638 107.469 86.3624 108.734 87.0652C108.797 87.0876 108.858 87.1156 108.918 87.1494C111.099 88.3827 113.041 89.8434 114.688 91.4911ZM100.677 94.9879L96.9891 91.3002C98.2696 89.7571 99.1463 87.9485 99.5642 85.9838C104.142 87.1654 109.171 89.3035 113.028 93.161C116.881 97.0135 119.018 102.045 120.2 106.626C118.592 106.969 117.087 107.621 115.749 108.548C115.453 108.751 115.166 108.968 114.887 109.198L111.197 105.507L112.137 104.566C112.596 104.108 112.596 103.365 112.137 102.906C111.731 102.5 111.079 102.459 110.622 102.783C110.559 102.826 110.5 102.874 110.444 102.93L109.532 103.842L106.769 101.08L107.71 100.139C108.168 99.6808 108.168 98.9374 107.71 98.4791C107.304 98.0731 106.653 98.0316 106.197 98.3546C106.133 98.3971 106.073 98.4465 106.016 98.5028L105.104 99.4151L102.342 96.6529L103.283 95.7121C103.741 95.2536 103.741 94.5102 103.283 94.0519C102.877 93.6458 102.226 93.6044 101.77 93.9274C101.706 93.9699 101.645 94.0193 101.589 94.0756L100.677 94.9879ZM109.507 107.196L113.195 110.883C111.915 112.426 111.038 114.235 110.62 116.2C106.042 115.018 101.014 112.88 97.1562 109.023C93.3033 105.17 91.1662 100.139 89.984 95.558C91.5924 95.2144 93.0975 94.5625 94.4358 93.6354C94.7312 93.4322 95.0185 93.2155 95.2972 92.9857L98.9877 96.6763L98.0469 97.617C97.5885 98.0755 97.5885 98.8189 98.0469 99.2772C98.4537 99.6839 99.1058 99.7248 99.562 99.4C99.625 99.3579 99.6847 99.3091 99.7403 99.2535L100.653 98.3411L103.415 101.103L102.474 102.044C102.016 102.503 102.016 103.246 102.474 103.704C102.88 104.11 103.531 104.152 103.987 103.829C104.051 103.786 104.112 103.737 104.168 103.681L105.08 102.768L107.842 105.531L106.902 106.471C106.443 106.93 106.443 107.673 106.902 108.132C107.308 108.538 107.958 108.579 108.414 108.256C108.478 108.214 108.539 108.164 108.595 108.108L109.507 107.196ZM89.4568 93.2532C88.9799 90.872 88.7469 88.7064 88.636 87.0186C88.5693 86.0005 88.547 85.1568 88.5424 84.5452C90.1677 84.5563 93.43 84.6907 97.2484 85.4541C96.8504 87.381 95.9108 89.1274 94.5048 90.5331C94.0951 90.9429 93.6558 91.3133 93.1912 91.6424C92.0722 92.4285 90.8089 92.9743 89.4568 93.2532ZM121.549 115.178C121.615 116.19 121.637 117.029 121.642 117.638C120.017 117.627 116.754 117.493 112.936 116.729C113.334 114.802 114.274 113.056 115.68 111.65C116.089 111.241 116.529 110.87 116.993 110.541C118.112 109.755 119.375 109.209 120.728 108.93C121.206 111.318 121.439 113.488 121.549 115.178Z" fill="#05BEC0"/>
<path d="M62.7098 90.0908C56.5384 90.0908 51.5176 95.1116 51.5176 101.283C51.5176 107.454 56.5384 112.475 62.7098 112.475C68.8812 112.475 73.9019 107.454 73.9019 101.283C73.9019 95.1116 68.8812 90.0908 62.7098 90.0908ZM56.1588 107.218C54.7346 105.648 53.8655 103.565 53.8655 101.283C53.8655 99.6327 54.321 98.0874 55.1112 96.7639C56.792 98.1999 57.7788 100.306 57.7788 102.535C57.779 104.251 57.2079 105.886 56.1588 107.218ZM62.7098 110.127C60.9602 110.127 59.3291 109.614 57.9549 108.734C59.3616 106.978 60.127 104.811 60.127 102.535C60.127 99.5883 58.813 96.8022 56.5743 94.9221C58.1659 93.3863 60.3288 92.4388 62.7098 92.4388C65.0907 92.4388 67.2537 93.3863 68.8452 94.9221C66.6065 96.8024 65.2926 99.5883 65.2926 102.535C65.2926 104.811 66.0579 106.978 67.4646 108.734C66.0904 109.614 64.4593 110.127 62.7098 110.127ZM69.2607 107.218C68.2116 105.886 67.6405 104.251 67.6405 102.535C67.6405 100.307 68.6274 98.1999 70.3082 96.7639C71.0984 98.0874 71.5538 99.6329 71.5538 101.283C71.554 103.565 70.6851 105.648 69.2607 107.218Z" fill="#05BEC0"/>
<path d="M65.2162 40C53.5207 40 44.0059 49.515 44.0059 61.2103C44.0059 72.9056 53.5209 82.4206 65.2162 82.4206C76.9115 82.4206 86.4265 72.9056 86.4265 61.2103C86.4265 49.515 76.9116 40 65.2162 40ZM82.5768 53.8363C83.0052 54.8411 83.349 55.89 83.5988 56.9747L82.0409 55.7439L82.5768 53.8363ZM80.979 50.8631C80.9652 50.8984 80.9529 50.9348 80.9424 50.972L79.7387 55.2573L72.9716 57.4561L66.3904 53.0684V45.5592L70.202 43.0181C74.6748 44.2452 78.4882 47.0814 80.979 50.8631ZM71.309 59.4041L69.3843 66.142C69.2532 66.1703 69.1254 66.2223 69.0065 66.2977H61.4262C61.3073 66.2223 61.1795 66.1705 61.0484 66.142L59.1234 59.4041C59.1473 59.3548 59.1698 59.3047 59.1871 59.2511C59.203 59.2017 59.2145 59.1523 59.2237 59.1027L65.2163 55.1075L71.209 59.1027C71.2182 59.1523 71.2296 59.2017 71.2455 59.2511C71.2626 59.3047 71.2851 59.355 71.309 59.4041ZM65.2163 42.348C65.7716 42.348 66.3213 42.3734 66.8648 42.4209L65.2163 43.52L63.5679 42.4209C64.1113 42.3737 64.661 42.348 65.2163 42.348ZM60.2391 43.0158C60.2707 43.0419 60.3038 43.067 60.3387 43.0903L64.0421 45.5592V53.0686L57.4609 57.4562L50.6937 55.2573L49.4576 50.8567C51.9501 47.0758 55.7651 44.2409 60.2391 43.0158ZM47.8555 53.8363L48.3915 55.7438L46.8335 56.9745C47.0835 55.8898 47.4271 54.8408 47.8555 53.8363ZM46.3537 61.2103C46.3538 60.9105 46.3616 60.6122 46.3755 60.3156C46.4091 60.2942 46.4437 60.2748 46.4755 60.2495L49.968 57.4903L56.7651 59.6987L59.0509 67.6987L55.0668 73.1823L50.5024 72.9983C47.9082 69.7667 46.3537 65.667 46.3537 61.2103ZM52.8512 75.443L54.8179 75.5223L55.503 77.3739C54.5627 76.8066 53.6755 76.16 52.8512 75.443ZM71.8762 78.8572C69.8041 79.6417 67.5596 80.0727 65.216 80.0727C62.8696 80.0727 60.6223 79.6406 58.5479 78.8541C58.5379 78.8148 58.5259 78.7756 58.5115 78.7369L56.9665 74.5625L61.2652 68.6458H69.1673L73.466 74.5625L71.8762 78.8572ZM74.9291 77.3739L75.6143 75.5223L77.581 75.4431C76.7566 76.1602 75.8695 76.8067 74.9291 77.3739ZM79.9251 73.0041C79.8882 73.002 79.8507 73.0014 79.813 73.003L75.3655 73.1823L71.3815 67.6987L73.6673 59.6987L80.4643 57.4903L84.0574 60.3291C84.0709 60.6211 84.0787 60.9148 84.0787 61.2103C84.0785 65.6697 82.5221 69.7719 79.9251 73.0041Z" fill="#05BEC0"/>
<defs>
<filter id="filter0_d" x="0" y="0" width="168" height="168" filterUnits="userSpaceOnUse" color-interpolation-filters="sRGB">
<feFlood flood-opacity="0" result="BackgroundImageFix"/>
<feColorMatrix in="SourceAlpha" type="matrix" values="0 0 0 0 0 0 0 0 0 0 0 0 0 0 0 0 0 0 127 0"/>
<feOffset dy="4"/>
<feGaussianBlur stdDeviation="8"/>
<feColorMatrix type="matrix" values="0 0 0 0 0.0196078 0 0 0 0 0.745098 0 0 0 0 0.752941 0 0 0 0.14 0"/>
<feBlend mode="normal" in2="BackgroundImageFix" result="effect1_dropShadow"/>
<feBlend mode="normal" in="SourceGraphic" in2="effect1_dropShadow" result="shape"/>
</filter>
</defs>
</svg>
