<svg width="1069" height="312" viewBox="0 0 1069 312" fill="none" xmlns="http://www.w3.org/2000/svg">
<g filter="url(#filter0_d)">
<path fill-rule="evenodd" clip-rule="evenodd" d="M143.243 167.911C125.647 154.023 100.417 156 78 156C44.8629 156 18 129.137 18 96C18 62.8629 44.8629 36 78 36C111.137 36 138 62.8629 138 96C138 114.375 140.401 135.093 154.824 146.477L158.971 149.751C175.753 162.995 200.071 159.738 221.223 156.637C224.088 156.217 227.019 156 230 156C263.137 156 290 182.863 290 216C290 249.137 263.137 276 230 276C196.863 276 170 249.137 170 216C170 201.88 167.005 186.666 155.921 177.918L143.243 167.911Z" fill="#F2F2F2"/>
<path fill-rule="evenodd" clip-rule="evenodd" d="M316.757 167.911C334.353 154.023 359.583 156 382 156C415.137 156 442 129.137 442 96C442 62.8629 415.137 36 382 36C348.863 36 322 62.8629 322 96C322 114.375 319.599 135.093 305.176 146.477L301.029 149.751C284.247 162.995 259.929 159.738 238.777 156.637C235.912 156.217 232.981 156 230 156C196.863 156 170 182.863 170 216C170 249.137 196.863 276 230 276C263.137 276 290 249.137 290 216C290 201.88 292.995 186.666 304.079 177.918L316.757 167.911Z" fill="#F2F2F2"/>
<path fill-rule="evenodd" clip-rule="evenodd" d="M447.243 167.911C429.647 154.023 404.417 156 382 156C348.863 156 322 129.137 322 96C322 62.8629 348.863 36 382 36C415.137 36 442 62.8629 442 96C442 114.375 444.401 135.093 458.824 146.477L462.971 149.751C479.753 162.995 504.071 159.738 525.223 156.637C528.088 156.217 531.019 156 534 156C567.137 156 594 182.863 594 216C594 249.137 567.137 276 534 276C500.863 276 474 249.137 474 216C474 201.88 471.005 186.666 459.921 177.918L447.243 167.911Z" fill="#F2F2F2"/>
<path fill-rule="evenodd" clip-rule="evenodd" d="M620.757 167.911C638.353 154.023 663.583 156 686 156C719.137 156 746 129.137 746 96C746 62.8629 719.137 36 686 36C652.863 36 626 62.8629 626 96C626 114.375 623.599 135.093 609.176 146.477L605.029 149.751C588.247 162.995 563.929 159.738 542.777 156.637C539.912 156.217 536.981 156 534 156C500.863 156 474 182.863 474 216C474 249.137 500.863 276 534 276C567.137 276 594 249.137 594 216C594 201.88 596.995 186.666 608.079 177.918L620.757 167.911Z" fill="#F2F2F2"/>
<path fill-rule="evenodd" clip-rule="evenodd" d="M751.243 167.911C733.647 154.023 708.417 156 686 156C652.863 156 626 129.137 626 96C626 62.8629 652.863 36 686 36C719.137 36 746 62.8629 746 96C746 114.375 748.401 135.093 762.824 146.477L766.971 149.751C783.753 162.995 808.071 159.738 829.223 156.637C832.088 156.217 835.019 156 838 156C871.137 156 898 182.863 898 216C898 249.137 871.137 276 838 276C804.863 276 778 249.137 778 216C778 201.88 775.005 186.666 763.921 177.918L751.243 167.911Z" fill="#F2F2F2"/>
<path fill-rule="evenodd" clip-rule="evenodd" d="M925.757 167.911C943.353 154.023 968.583 156 991 156C1024.14 156 1051 129.137 1051 96C1051 62.8629 1024.14 36 991 36C957.863 36 931 62.8629 931 96C931 114.375 928.599 135.093 914.176 146.477L910.029 149.751C893.247 162.995 868.929 159.738 847.777 156.637C844.912 156.217 841.981 156 839 156C805.863 156 779 182.863 779 216C779 249.137 805.863 276 839 276C872.137 276 899 249.137 899 216C899 201.88 901.995 186.666 913.079 177.918L925.757 167.911Z" fill="#F2F2F2"/>
</g>
<circle cx="78" cy="96" r="44" fill="#F28F17"/>
<path d="M85.8023 98.6806L80.1 95.1769C80.0305 95.1341 79.9506 95.1052 79.87 95.0925L78.0848 94.7775C77.7545 94.7191 77.4302 94.9464 77.3719 95.2766C77.3137 95.6069 77.5407 95.9312 77.8709 95.9895L79.5556 96.2867L85.1581 99.7292C85.4316 99.8973 85.8067 99.8157 85.9882 99.5515C86.183 99.268 86.095 98.8607 85.8023 98.6806Z" fill="white"/>
<path d="M98.7958 98.8779C98.5636 98.6296 98.1743 98.6165 97.926 98.8484L95.4315 101.18L84.0015 89.902L98.7669 76.0643C99.0148 75.8319 99.0275 75.4425 98.7951 75.1946C98.5628 74.9467 98.1733 74.934 97.9254 75.1664L82.6931 89.4416C82.4419 89.6769 82.4366 90.0868 82.6817 90.3286L83.6927 91.326L83.37 91.611L76.6122 91.0291C76.5079 91.0202 76.3995 91.0382 76.3044 91.0821L70.95 93.5208C70.9344 93.5167 70.9188 93.5128 70.9026 93.5099L67.8227 92.9664L68.0717 92.3298C68.1949 92.0149 68.041 91.6597 67.7272 91.5343L57.8821 87.5963C57.5665 87.4699 57.2085 87.6235 57.0823 87.9391C56.9561 88.2546 57.1096 88.6128 57.4251 88.7389L66.7031 92.4502L61.2356 106.422L57.859 105.227C57.5386 105.113 57.187 105.281 57.0736 105.601C56.9601 105.922 57.1279 106.273 57.4482 106.387L61.3862 107.781C61.6953 107.891 62.0452 107.731 62.1646 107.425L63.0783 105.09L65.4726 106.432L65.2085 106.86C64.4603 108.073 64.8381 109.668 66.0508 110.416C66.6921 110.812 67.4882 110.906 68.2049 110.674C68.3198 111.421 68.7587 112.087 69.4022 112.484C70.0435 112.88 70.8395 112.974 71.5562 112.742C71.6713 113.489 72.11 114.155 72.7535 114.552C73.3968 114.949 74.1887 115.042 74.9077 114.81C75.0229 115.557 75.4615 116.223 76.1049 116.62C77.04 117.197 78.2776 117.111 79.1205 116.404C79.333 116.226 79.5158 116.014 79.6613 115.778L80.0811 115.097L80.4267 115.31C81.363 115.885 82.6004 115.796 83.4419 115.088C83.6541 114.91 83.8365 114.697 83.9816 114.461C84.27 113.991 84.3894 113.465 84.3579 112.953C84.5533 113 84.7533 113.025 84.9551 113.025C85.8487 113.025 86.694 112.554 87.1617 111.793C87.4434 111.334 87.5721 110.812 87.5395 110.285C87.7344 110.332 87.934 110.357 88.1351 110.357C89.0287 110.357 89.8742 109.886 90.3417 109.125C90.6237 108.666 90.7523 108.143 90.7194 107.616C90.9164 107.663 91.1165 107.688 91.3157 107.688C92.1847 107.688 93.0345 107.25 93.5218 106.457C94.2678 105.243 93.887 103.648 92.6729 102.902L92.2513 102.643L93.6654 101.166L94.9881 102.471C95.2201 102.7 95.6025 102.705 95.8405 102.482L98.7666 99.7477C99.0147 99.5156 99.0279 99.1262 98.7958 98.8779ZM68.5599 108.928C68.1679 109.563 67.3322 109.761 66.697 109.369C66.0617 108.977 65.8639 108.142 66.2557 107.506L69.7022 101.921C70.0868 101.297 70.9122 101.093 71.5425 101.466C72.1946 101.851 72.3746 102.745 71.9831 103.38L68.5599 108.928ZM71.9111 110.996C71.5193 111.631 70.6835 111.829 70.0484 111.437C69.4208 111.05 69.2193 110.203 69.6071 109.574L72.3642 105.106C72.7488 104.482 73.5742 104.278 74.2045 104.651C74.8566 105.036 75.0366 105.93 74.645 106.565L71.9111 110.996ZM75.2627 113.064C75.0728 113.371 74.7743 113.587 74.4226 113.67C74.0706 113.753 73.7074 113.695 73.3997 113.505C72.7723 113.118 72.5707 112.27 72.9586 111.642L75.0264 108.291C75.4111 107.667 76.2365 107.463 76.8667 107.836C77.5189 108.221 77.6988 109.115 77.3073 109.75L75.2627 113.064ZM79.9694 112.935L78.6141 115.131C78.2268 115.759 77.3797 115.96 76.7511 115.573C76.1237 115.185 75.9222 114.338 76.31 113.71L77.6885 111.476C78.0731 110.852 78.8986 110.648 79.5288 111.021C80.1809 111.406 80.3609 112.3 79.9694 112.935ZM91.1785 101.984L88.1284 100.11C87.8455 99.936 87.4558 100.029 87.282 100.312C87.1082 100.595 87.2013 100.985 87.4842 101.158L92.0285 103.951C92.6644 104.341 92.8639 105.177 92.4732 105.813C92.0824 106.448 91.247 106.648 90.611 106.257L85.7373 103.262C85.4478 103.084 85.0688 103.175 84.891 103.465C84.7132 103.754 84.8036 104.133 85.0931 104.311L88.8485 106.618C89.4768 107.004 89.6798 107.851 89.2932 108.48C88.9072 109.109 88.0604 109.312 87.4312 108.925L84.0279 106.834C83.7383 106.656 83.3594 106.747 83.1816 107.036C83.0037 107.326 83.0942 107.705 83.3837 107.882L85.6686 109.286C86.2968 109.672 86.4999 110.519 86.1133 111.148C85.7272 111.777 84.8804 111.98 84.2512 111.593C84.2512 111.593 82.2418 110.36 82.223 110.351C81.9421 110.215 81.5985 110.311 81.4318 110.583C81.254 110.872 81.3445 111.251 81.634 111.429L82.4886 111.954C83.1245 112.345 83.324 113.18 82.9332 113.816C82.5472 114.445 81.7004 114.648 81.0712 114.261L80.7277 114.05L81.017 113.581C81.3869 112.981 81.5016 112.243 81.3318 111.555C81.1643 110.877 80.7465 110.31 80.1554 109.961C79.6942 109.689 79.1783 109.578 78.676 109.612C78.7703 109.207 78.7708 108.78 78.6698 108.37C78.5022 107.692 78.0844 107.125 77.4933 106.776C77.0322 106.503 76.5163 106.393 76.0139 106.427C76.2676 105.337 75.8005 104.164 74.8313 103.591C74.3701 103.318 73.8542 103.208 73.3518 103.242C73.6056 102.152 73.1385 100.979 72.1692 100.406C70.9659 99.6947 69.3896 100.084 68.6555 101.274L66.1199 105.383L63.5311 103.933L67.3651 94.1353L69.4526 94.5037C68.8589 95.2412 68.692 96.2795 69.1103 97.1983C69.5433 98.1489 70.4839 98.7114 71.4661 98.7113C71.8238 98.7113 72.1872 98.6366 72.5334 98.479L76.1369 96.8377C76.442 96.6987 76.5808 96.3279 76.4418 96.0227C76.3028 95.7176 75.932 95.5787 75.6268 95.7178L72.0233 97.359C71.3441 97.6684 70.5396 97.3675 70.2302 96.6882C69.9209 96.0089 70.2218 95.2045 70.9011 94.8951L76.6674 92.2689L83.5267 92.8596C83.5443 92.8612 83.5619 92.8619 83.5795 92.8619C83.7288 92.8619 83.8737 92.8075 83.9867 92.7079L84.5706 92.1924L92.789 100.301L91.1785 101.984Z" fill="white"/>
<circle cx="382" cy="96" r="44" fill="#F28F17"/>
<path d="M400.701 96.2492C400.689 95.987 400.47 95.7842 400.208 95.7842H398.743C398.45 95.7842 398.221 96.0337 398.235 96.3256C398.247 96.5733 398.253 96.8217 398.253 97.0706C398.253 100.795 396.913 104.395 394.478 107.208C392.863 109.074 390.838 110.516 388.589 111.432C388.412 111.504 388.253 111.307 388.356 111.146L389.395 109.521C389.543 109.288 389.475 108.979 389.243 108.83L388.007 108.041C387.774 107.892 387.465 107.96 387.316 108.193L383.804 113.688C383.636 113.952 383.748 114.303 384.037 114.421L389.919 116.812C390.174 116.916 390.466 116.793 390.57 116.537L391.122 115.178C391.226 114.922 391.103 114.631 390.848 114.527L389.65 114.04C389.482 113.971 389.483 113.731 389.651 113.661C392.205 112.598 394.504 110.948 396.344 108.822C399.166 105.561 400.72 101.388 400.72 97.0706C400.72 96.7962 400.713 96.5223 400.701 96.2492Z" fill="white"/>
<path d="M364.674 96.8871C364.665 97.1494 364.866 97.3694 365.128 97.3907L366.588 97.5099C366.88 97.5337 367.128 97.3036 367.138 97.0115C367.146 96.7637 367.161 96.5157 367.181 96.2676C367.484 92.5553 369.113 89.0762 371.767 86.471C373.529 84.7419 375.665 83.4696 377.981 82.7402C378.164 82.6828 378.306 82.8912 378.19 83.0434L377.023 84.5789C376.855 84.7987 376.898 85.1124 377.118 85.2795L378.285 86.1672C378.505 86.3343 378.819 86.2916 378.986 86.0718L382.934 80.8802C383.123 80.6314 383.04 80.272 382.761 80.1312L377.093 77.2697C376.847 77.1453 376.546 77.2442 376.422 77.4907L375.761 78.7999C375.636 79.0464 375.735 79.3471 375.982 79.4716L377.136 80.0543C377.298 80.1361 377.276 80.3758 377.104 80.4317C374.472 81.2837 372.046 82.7413 370.04 84.7105C366.962 87.7307 365.073 91.7638 364.722 96.0669C364.7 96.3404 364.684 96.6139 364.674 96.8871Z" fill="white"/>
<path d="M379.537 115.758V115.758V116.242H361.803V115.758C361.803 112.826 363.524 110.284 366.014 109.096L365.691 108.419L366.014 109.096C366.759 108.74 366.98 107.799 366.539 107.144C366.008 106.354 365.698 105.406 365.698 104.385C365.698 101.65 367.924 99.4239 370.659 99.4239C373.395 99.4239 375.621 101.65 375.621 104.385C375.621 105.404 375.312 106.349 374.784 107.138C374.344 107.794 374.566 108.735 375.312 109.089C377.81 110.275 379.537 112.82 379.537 115.758Z" stroke="white" stroke-width="1.5"/>
<path d="M397.972 85.4151L398.294 84.7376L397.972 85.4151C400.47 86.601 402.197 89.1464 402.197 92.0844V92.5677H384.463V92.0844C384.463 89.1516 386.184 86.6102 388.674 85.4216C389.419 85.0659 389.64 84.1252 389.199 83.4701C388.668 82.6804 388.358 81.7324 388.358 80.7115C388.358 77.9764 390.584 75.75 393.319 75.75C396.055 75.75 398.281 77.9764 398.281 80.7116C398.281 81.7298 397.972 82.6755 397.444 83.464C397.004 84.12 397.226 85.0608 397.972 85.4151Z" stroke="white" stroke-width="1.5"/>
<circle cx="686" cy="96" r="44" fill="#F28F17"/>
<path d="M702.674 110.191H702.653V108.037C702.653 107.766 702.41 107.566 702.138 107.566H680.662C680.599 107.564 680.536 107.575 680.477 107.597C680.418 107.62 680.364 107.654 680.319 107.698C680.273 107.742 680.237 107.795 680.213 107.853C680.188 107.912 680.176 107.974 680.176 108.037V110.191H680.127C679.764 110.193 679.406 110.266 679.072 110.407C678.738 110.547 678.435 110.752 678.181 111.01C677.926 111.268 677.725 111.573 677.589 111.909C677.452 112.245 677.384 112.604 677.387 112.967V113.714C677.384 113.777 677.393 113.84 677.415 113.9C677.436 113.959 677.47 114.014 677.513 114.06C677.556 114.107 677.608 114.144 677.666 114.17C677.724 114.196 677.786 114.21 677.849 114.211H704.951C705.082 114.21 705.207 114.157 705.299 114.064C705.391 113.97 705.442 113.845 705.442 113.714V112.967C705.441 112.232 705.15 111.527 704.631 111.007C704.112 110.487 703.409 110.194 702.674 110.191ZM681.16 108.551H701.668V110.191H681.16V108.551ZM704.457 113.227H678.371V112.967C678.368 112.733 678.411 112.502 678.498 112.286C678.584 112.069 678.713 111.872 678.876 111.706C679.039 111.539 679.234 111.407 679.449 111.316C679.663 111.225 679.894 111.177 680.127 111.176H702.674C703.148 111.178 703.601 111.367 703.935 111.703C704.27 112.038 704.457 112.493 704.457 112.967V113.227Z" fill="white"/>
<path d="M679.95 97.6595C680.042 97.7518 680.167 97.8037 680.298 97.8037C680.429 97.8037 680.554 97.7518 680.646 97.6595L682.276 96.0291C682.369 95.9368 682.421 95.8117 682.421 95.6811C682.421 95.5506 682.369 95.4254 682.276 95.3331L681.675 94.7317L683.162 93.2452L685.381 95.4643L685.235 95.6103C685.143 95.7026 685.091 95.8278 685.091 95.9583C685.091 96.0888 685.143 96.214 685.235 96.3063L686.125 97.1966L685.854 97.4677C685.762 97.56 685.71 97.6852 685.71 97.8157C685.71 97.9463 685.762 98.0715 685.854 98.1638L686.938 99.2473C687.081 99.3906 687.251 99.5043 687.438 99.5819C687.625 99.6594 687.826 99.6993 688.029 99.6993C688.231 99.6993 688.432 99.6594 688.619 99.5819C688.806 99.5043 688.976 99.3906 689.12 99.2473L695.649 92.7181C695.938 92.4285 696.1 92.0362 696.1 91.6271C696.1 91.218 695.938 90.8257 695.649 90.5361L694.565 89.4525C694.473 89.3602 694.348 89.3083 694.217 89.3083C694.087 89.3083 693.962 89.3602 693.869 89.4525L693.598 89.7236L692.708 88.8333C692.662 88.7876 692.608 88.7513 692.548 88.7266C692.489 88.7018 692.425 88.6891 692.36 88.6891C692.295 88.6891 692.231 88.7018 692.172 88.7266C692.112 88.7513 692.058 88.7876 692.012 88.8333L691.866 88.9794L684.915 82.0291L685.061 81.8831C685.154 81.7908 685.205 81.6656 685.205 81.5351C685.205 81.4045 685.154 81.2794 685.061 81.1871L684.171 80.2968L684.442 80.0261C684.534 79.9338 684.586 79.8086 684.586 79.6781C684.586 79.5475 684.534 79.4223 684.442 79.33L683.359 78.246C683.069 77.9571 682.677 77.7949 682.268 77.7949C681.859 77.7949 681.466 77.9571 681.177 78.246L674.648 84.7757C674.359 85.0653 674.196 85.4576 674.196 85.8667C674.196 86.2758 674.359 86.6681 674.648 86.9577L675.731 88.0413C675.824 88.1336 675.949 88.1854 676.079 88.1854C676.21 88.1854 676.335 88.1336 676.427 88.0413L676.698 87.7706L677.589 88.6608C677.681 88.7531 677.806 88.805 677.937 88.805C678.067 88.805 678.192 88.7531 678.285 88.6608L678.431 88.5148L680.65 90.7339L679.163 92.2203L678.562 91.619C678.516 91.5733 678.462 91.537 678.402 91.5123C678.342 91.4875 678.278 91.4748 678.214 91.4748C678.149 91.4748 678.085 91.4875 678.025 91.5123C677.966 91.537 677.911 91.5733 677.866 91.619L676.235 93.2494C676.143 93.3417 676.091 93.4669 676.091 93.5974C676.091 93.728 676.143 93.8532 676.235 93.9455L676.447 94.1569L667.572 102.052C667.113 102.46 666.79 102.997 666.644 103.592C666.498 104.188 666.537 104.813 666.754 105.386C666.972 105.96 667.359 106.453 667.863 106.802C668.368 107.15 668.966 107.337 669.579 107.337C669.61 107.337 669.64 107.337 669.671 107.336C670.083 107.326 670.489 107.231 670.862 107.056C671.236 106.882 671.57 106.632 671.843 106.323L679.739 97.4482L679.95 97.6595ZM694.217 90.4966L694.953 91.2322C695.057 91.337 695.116 91.4791 695.116 91.6271C695.116 91.7752 695.057 91.9172 694.953 92.0221L688.423 98.5512C688.319 98.6559 688.176 98.7148 688.028 98.7148C687.88 98.7148 687.738 98.6559 687.633 98.5512L686.898 97.8156L694.217 90.4966ZM692.36 89.8775L692.902 90.4197L686.821 96.5004L686.278 95.9582L692.36 89.8775ZM676.079 86.9968L675.343 86.2612C675.239 86.1564 675.18 86.0144 675.18 85.8662C675.18 85.7181 675.239 85.5761 675.343 85.4713L681.873 78.9421C681.977 78.8374 682.119 78.7785 682.268 78.7785C682.416 78.7785 682.558 78.8374 682.662 78.9421L683.398 79.6776L676.079 86.9968ZM677.936 87.6159L677.394 87.0737L683.475 80.9929L684.017 81.5351L677.936 87.6159ZM679.126 87.8179L684.219 82.7252L691.169 89.6754L686.077 94.7681L679.126 87.8179ZM681.345 91.4291L682.466 92.5491L680.979 94.0357L679.859 92.9156L681.345 91.4291ZM678.214 92.6623L681.232 95.6811L680.298 96.6154L677.279 93.5967L678.214 92.6623ZM671.107 105.669C670.922 105.877 670.697 106.044 670.445 106.162C670.193 106.28 669.92 106.344 669.642 106.353C669.364 106.361 669.087 106.312 668.829 106.209C668.57 106.107 668.336 105.952 668.139 105.756C667.942 105.559 667.788 105.324 667.685 105.066C667.583 104.807 667.534 104.531 667.542 104.253C667.55 103.975 667.615 103.701 667.733 103.449C667.85 103.198 668.018 102.972 668.226 102.787L677.144 94.8533L679.041 96.7509L671.107 105.669Z" fill="white"/>
<path d="M684.352 84.4264C684.259 84.3354 684.134 84.2846 684.004 84.2851C683.875 84.2856 683.75 84.3374 683.658 84.4293C683.567 84.5211 683.515 84.6454 683.514 84.7753C683.514 84.9051 683.564 85.0299 683.655 85.1225L684.119 85.5865C684.165 85.6322 684.219 85.6685 684.279 85.6932C684.339 85.718 684.403 85.7307 684.468 85.7307C684.532 85.7307 684.596 85.718 684.656 85.6932C684.716 85.6685 684.77 85.6322 684.816 85.5865C684.861 85.5408 684.898 85.4865 684.922 85.4268C684.947 85.3671 684.96 85.3031 684.96 85.2385C684.96 85.1738 684.947 85.1098 684.922 85.0501C684.898 84.9904 684.861 84.9361 684.816 84.8904L684.352 84.4264Z" fill="white"/>
<path d="M688.817 90.081C688.915 90.081 689.01 90.0522 689.091 89.9981C689.172 89.944 689.235 89.8671 689.272 89.7772C689.309 89.6872 689.319 89.5883 689.3 89.4928C689.281 89.3973 689.234 89.3096 689.165 89.2408L685.859 85.9345C685.767 85.8422 685.642 85.7903 685.511 85.7903C685.381 85.7903 685.256 85.8422 685.163 85.9345C685.071 86.0268 685.019 86.152 685.019 86.2826C685.019 86.4131 685.071 86.5383 685.163 86.6306L688.469 89.9365C688.515 89.9824 688.569 90.0187 688.629 90.0435C688.688 90.0684 688.753 90.0811 688.817 90.081Z" fill="white"/>
<circle cx="534" cy="216" r="44" fill="#05BEC0"/>
<path d="M537.082 218.756C536.797 218.939 536.712 219.318 536.894 219.604C537.011 219.789 537.21 219.89 537.414 219.89C537.527 219.89 537.641 219.859 537.743 219.795C537.781 219.77 538.403 219.369 538.921 218.658L539.225 218.84C539.324 218.9 539.434 218.928 539.541 218.928C539.75 218.928 539.954 218.822 540.069 218.63C540.244 218.338 540.15 217.96 539.859 217.785L539.481 217.558C539.496 217.508 539.51 217.458 539.523 217.407C539.719 216.634 539.454 215.809 538.83 215.255C538.26 214.747 537.512 214.581 536.88 214.823C536.571 214.94 536.248 215.117 535.86 215.384L533.421 213.919C533.622 213.66 533.83 213.509 534.235 213.314C534.541 213.166 534.669 212.798 534.521 212.492C534.373 212.186 534.005 212.058 533.699 212.206C533.021 212.534 532.676 212.84 532.361 213.282L531.979 213.053C531.688 212.878 531.31 212.972 531.135 213.263C530.96 213.555 531.054 213.933 531.345 214.108L531.777 214.367C531.44 215.437 531.873 216.514 532.577 217.116C533.486 217.894 534.683 217.893 535.625 217.115C535.726 217.032 535.829 216.947 535.934 216.864L537.861 218.021C537.504 218.478 537.095 218.748 537.082 218.756ZM533.376 216.181C533.079 215.926 532.857 215.504 532.892 215.037L534.812 216.19C534.125 216.731 533.541 216.321 533.376 216.181ZM537.319 215.972C537.517 215.897 537.789 215.976 538.012 216.174C538.188 216.331 538.351 216.586 538.356 216.883L537.048 216.097C537.141 216.048 537.232 216.005 537.319 215.972Z" fill="white"/>
<path d="M532.278 221.481C531.987 221.306 531.609 221.401 531.434 221.692L530.54 223.18C530.365 223.472 530.459 223.85 530.751 224.025C531.041 224.199 531.419 224.107 531.595 223.814L532.489 222.326C532.664 222.034 532.57 221.656 532.278 221.481Z" fill="white"/>
<path d="M539.716 210.299L540.61 208.811C540.785 208.52 540.691 208.142 540.399 207.967C540.108 207.792 539.73 207.886 539.555 208.177L538.661 209.666C538.486 209.957 538.581 210.335 538.872 210.51C539.166 210.686 539.543 210.588 539.716 210.299Z" fill="white"/>
<path d="M534.215 231.592C533.923 231.417 533.545 231.511 533.37 231.802C533.195 232.094 533.289 232.471 533.581 232.647L533.724 232.733C533.823 232.792 533.932 232.821 534.04 232.821C534.249 232.821 534.453 232.714 534.568 232.522C534.743 232.231 534.649 231.853 534.358 231.678L534.215 231.592Z" fill="white"/>
<path d="M522.443 224.521L522.299 224.435C522.008 224.26 521.63 224.354 521.455 224.645C521.28 224.937 521.375 225.315 521.666 225.49L521.809 225.576C521.908 225.635 522.018 225.664 522.125 225.664C522.334 225.664 522.538 225.557 522.654 225.365C522.828 225.073 522.734 224.696 522.443 224.521Z" fill="white"/>
<path d="M548.715 207.484L548.859 207.57C548.958 207.629 549.067 207.658 549.175 207.658C549.384 207.658 549.588 207.551 549.703 207.359C549.878 207.068 549.784 206.69 549.493 206.515L549.349 206.429C549.058 206.254 548.68 206.348 548.505 206.639C548.33 206.93 548.424 207.309 548.715 207.484Z" fill="white"/>
<path d="M536.923 200.392C537.023 200.452 537.132 200.48 537.24 200.48C537.449 200.48 537.652 200.374 537.768 200.181C537.943 199.89 537.848 199.512 537.557 199.337L537.414 199.251C537.122 199.076 536.744 199.17 536.569 199.462C536.394 199.753 536.489 200.131 536.78 200.306L536.923 200.392Z" fill="white"/>
<path d="M546.998 204.549L540.328 200.543C540.188 200.459 540.021 200.434 539.862 200.473C539.704 200.513 539.568 200.614 539.484 200.754C538.606 202.216 536.702 202.691 535.239 201.813C534.948 201.638 534.57 201.732 534.395 202.023L522.685 221.52C522.601 221.66 522.576 221.827 522.616 221.985C522.655 222.144 522.756 222.28 522.896 222.364C524.358 223.242 524.833 225.146 523.955 226.608C523.78 226.9 523.875 227.277 524.166 227.452L530.836 231.459C531.126 231.633 531.505 231.541 531.681 231.248C532.106 230.54 532.782 230.04 533.583 229.84C534.385 229.639 535.216 229.764 535.925 230.189C536.218 230.365 536.595 230.268 536.769 229.978L539.082 226.127C539.257 225.836 539.163 225.458 538.872 225.283C538.58 225.108 538.203 225.202 538.027 225.493L536.009 228.854C535.152 228.492 534.205 228.416 533.286 228.646C532.367 228.875 531.566 229.387 530.98 230.109L525.29 226.692C526.032 224.93 525.518 222.87 524.035 221.663L535.156 203.147C536.918 203.889 538.978 203.375 540.184 201.892L545.875 205.31C545.132 207.072 545.646 209.132 547.13 210.338L539.294 223.384C539.119 223.675 539.214 224.053 539.505 224.228C539.796 224.403 540.174 224.309 540.349 224.018L548.479 210.482C548.654 210.191 548.559 209.813 548.268 209.638C546.806 208.76 546.331 206.856 547.209 205.394C547.384 205.102 547.29 204.724 546.998 204.549Z" fill="white"/>
<path d="M553.359 206.982C553.729 206.366 553.569 205.573 552.875 205.156L542.949 199.189C542.658 199.014 542.283 199.102 542.108 199.394C541.933 199.685 542.022 200.08 542.313 200.255L552.239 206.202C552.351 206.27 552.389 206.418 552.321 206.53L535.094 235.221C535.027 235.333 534.879 235.371 534.766 235.303L518.893 225.787C518.78 225.719 518.743 225.572 518.811 225.459L536.058 196.769C536.126 196.656 536.274 196.619 536.386 196.687L540.18 198.963C540.469 199.136 540.86 199.062 541.042 198.778C541.23 198.485 541.133 198.095 540.837 197.917L537.022 195.62C536.328 195.203 535.414 195.433 534.992 196.133C531.99 201.111 522.147 217.559 517.765 224.823C517.347 225.517 517.583 226.416 518.278 226.833L534.13 236.369C535.395 237.248 536.092 235.898 536.092 235.898C536.092 235.898 546.592 218.26 553.359 206.982Z" fill="white"/>
<circle cx="230" cy="216" r="44" fill="#05BEC0"/>
<path d="M229.344 230.438V231.75H234.594C234.768 231.75 234.935 231.681 235.058 231.558L236.562 230.053L238.067 231.558C238.19 231.681 238.357 231.75 238.531 231.75H246.406C247.276 231.749 248.11 231.403 248.725 230.788C249.34 230.173 249.686 229.339 249.688 228.469V217.969C249.686 217.099 249.34 216.265 248.725 215.65C248.11 215.035 247.276 214.689 246.406 214.688H245.094V216H246.406C246.928 216.001 247.429 216.208 247.798 216.577C248.167 216.946 248.374 217.447 248.375 217.969V228.469C248.374 228.991 248.167 229.491 247.798 229.86C247.429 230.229 246.928 230.437 246.406 230.438H238.803L237.026 228.661C236.903 228.538 236.737 228.469 236.562 228.469C236.388 228.469 236.222 228.538 236.099 228.661L234.322 230.438H229.344Z" fill="white"/>
<path d="M213.594 231.75H214.25V230.437H213.594C213.072 230.437 212.571 230.229 212.202 229.86C211.833 229.491 211.626 228.991 211.625 228.469V227.428L218.764 234.567C219.482 235.285 220.454 235.687 221.469 235.687C222.483 235.687 223.456 235.285 224.173 234.567L235.906 222.834V223.875H237.219V221.906H236.834L240.308 218.433C240.431 218.31 240.5 218.143 240.5 217.969V216H242.469C242.643 216 242.81 215.931 242.933 215.808L248.567 210.173C249.285 209.456 249.687 208.483 249.687 207.469C249.687 206.454 249.285 205.482 248.567 204.764L241.236 197.433C240.518 196.715 239.546 196.312 238.531 196.312C237.517 196.312 236.544 196.715 235.827 197.433L230.192 203.067C230.069 203.19 230 203.357 230 203.531V205.5H228.031C227.857 205.5 227.69 205.569 227.567 205.692L211.625 221.635V217.969C211.626 217.447 211.833 216.946 212.202 216.577C212.571 216.208 213.072 216.001 213.594 216H216.219V214.687H213.594C212.724 214.689 211.89 215.035 211.275 215.65C210.66 216.265 210.314 217.099 210.312 217.969V228.469C210.314 229.339 210.66 230.173 211.275 230.788C211.89 231.403 212.724 231.749 213.594 231.75ZM212.361 222.755L228.303 206.812H230.656C230.83 206.812 230.997 206.743 231.12 206.62C231.243 206.497 231.312 206.33 231.312 206.156V203.803L236.755 198.361C237.704 197.412 239.359 197.412 240.308 198.361L247.639 205.692C248.11 206.163 248.375 206.802 248.375 207.469C248.375 208.135 248.11 208.774 247.639 209.245L242.197 214.687H239.844C239.67 214.687 239.503 214.757 239.38 214.88C239.257 215.003 239.188 215.17 239.188 215.344V217.697L223.245 233.639C222.296 234.588 220.641 234.588 219.692 233.639L212.361 226.308C211.89 225.837 211.625 225.198 211.625 224.531C211.625 223.865 211.89 223.226 212.361 222.755Z" fill="white"/>
<path d="M235.906 225.188H237.219V227.156H235.906V225.188Z" fill="white"/>
<path d="M239.188 226.5H242.469V227.812H239.188V226.5Z" fill="white"/>
<path d="M243.781 226.5H247.062V227.812H243.781V226.5Z" fill="white"/>
<path d="M239.188 223.875H247.062V225.188H239.188V223.875Z" fill="white"/>
<path d="M239.188 221.25H247.062V222.562H239.188V221.25Z" fill="white"/>
<path d="M241.156 218.625H247.062V219.938H241.156V218.625Z" fill="white"/>
<path d="M231.501 207.934L232.429 207.006L233.741 208.318L232.813 209.246L231.501 207.934Z" fill="white"/>
<path d="M234.125 210.559L235.053 209.631L236.366 210.943L235.438 211.871L234.125 210.559Z" fill="white"/>
<path d="M236.75 213.184L237.678 212.256L238.99 213.568L238.062 214.496L236.75 213.184Z" fill="white"/>
<path d="M219.337 219.261L222.925 220.179L221.853 221.25H219.5C219.37 221.25 219.243 221.289 219.135 221.361C219.027 221.433 218.943 221.535 218.894 221.655C218.844 221.775 218.831 221.907 218.856 222.034C218.882 222.162 218.944 222.278 219.036 222.37L223.63 226.964C223.721 227.056 223.838 227.118 223.966 227.144C224.093 227.169 224.225 227.156 224.345 227.106C224.465 227.057 224.567 226.972 224.639 226.865C224.711 226.757 224.75 226.63 224.75 226.5V224.147L225.738 223.159L226.744 226.68C226.775 226.79 226.835 226.89 226.917 226.97C226.999 227.05 227.1 227.107 227.21 227.135C227.321 227.164 227.437 227.163 227.547 227.133C227.658 227.103 227.758 227.045 227.839 226.964L229.151 225.652C229.212 225.591 229.261 225.518 229.294 225.439C229.327 225.359 229.344 225.274 229.344 225.188V219.553L230.384 218.512C230.888 218.011 231.288 217.415 231.56 216.759C231.832 216.102 231.971 215.398 231.969 214.688C231.969 214.513 231.899 214.347 231.776 214.223C231.653 214.1 231.486 214.031 231.312 214.031C230.602 214.029 229.898 214.168 229.241 214.44C228.585 214.712 227.989 215.112 227.488 215.615L226.447 216.656H220.812C220.638 216.656 220.471 216.725 220.348 216.849L219.036 218.161C218.954 218.243 218.895 218.345 218.866 218.457C218.836 218.569 218.836 218.687 218.867 218.798C218.898 218.91 218.957 219.012 219.04 219.093C219.122 219.174 219.225 219.232 219.337 219.261ZM228.031 224.916L227.699 225.247L226.799 222.097L228.031 220.865V224.916ZM228.416 216.543C229.007 215.949 229.768 215.552 230.594 215.406C230.448 216.232 230.051 216.993 229.456 217.584L223.63 223.411C223.507 223.534 223.437 223.701 223.437 223.875V224.916L221.084 222.563H222.125C222.299 222.562 222.466 222.493 222.589 222.37L228.416 216.543ZM221.084 217.969H225.134L224.003 219.1L220.778 218.275L221.084 217.969Z" fill="white"/>
<path d="M234.126 205.038L239.376 199.789L240.304 200.716L235.054 205.966L234.126 205.038Z" fill="white"/>
<path d="M236.095 207.007L241.344 201.757L242.272 202.685L237.023 207.934L236.095 207.007Z" fill="white"/>
<path d="M238.063 208.975L243.312 203.726L244.24 204.654L238.991 209.903L238.063 208.975Z" fill="white"/>
<path d="M240.031 210.944L242 208.976L242.928 209.903L240.959 211.872L240.031 210.944Z" fill="white"/>
<path d="M243.312 207.664L245.281 205.695L246.209 206.623L244.24 208.591L243.312 207.664Z" fill="white"/>
<path d="M213.126 224.065L216.407 220.784L217.335 221.712L214.054 224.993L213.126 224.065Z" fill="white"/>
<path d="M215.094 226.033L217.063 224.065L217.991 224.993L216.022 226.961L215.094 226.033Z" fill="white"/>
<path d="M217.063 228.002L219.031 226.034L219.959 226.962L217.991 228.93L217.063 228.002Z" fill="white"/>
<path d="M219.031 229.971L221 228.002L221.928 228.93L219.959 230.899L219.031 229.971Z" fill="white"/>
<path d="M221 231.94L222.968 229.971L223.896 230.899L221.927 232.868L221 231.94Z" fill="white"/>
<path d="M235.437 217.505L236.749 216.193L237.677 217.121L236.365 218.433L235.437 217.505Z" fill="white"/>
<path d="M232.812 220.13L234.124 218.817L235.052 219.745L233.74 221.058L232.812 220.13Z" fill="white"/>
<path d="M224.283 212.911L228.876 208.318L229.804 209.246L225.211 213.839L224.283 212.911Z" fill="white"/>
<circle cx="839" cy="216" r="44" fill="#05BEC0"/>
<path d="M858.275 214.78V215.965C858.276 215.639 858.397 215.324 858.616 215.08C858.52 214.962 858.405 214.861 858.275 214.78Z" fill="white"/>
<path d="M819.034 215.965C818.654 215.967 818.344 215.66 818.343 215.281C818.341 214.901 818.648 214.591 819.028 214.59H819.034C819.415 214.59 819.723 214.898 819.723 215.277C819.723 215.657 819.415 215.965 819.034 215.965Z" fill="white"/>
<path d="M838.295 211.15C836.585 211.15 834.852 214.121 834.342 215.715C834.307 215.861 834.249 216 834.17 216.128C834.134 216.137 834.097 216.139 834.061 216.135C833.859 216.117 833.691 215.975 833.639 215.78C833.522 215.3 833.467 214.808 833.475 214.314V199.8C833.476 198.972 833.051 198.202 832.349 197.763C831.647 197.324 830.768 197.277 830.023 197.639C829.974 196.35 828.914 195.33 827.623 195.33C826.332 195.33 825.272 196.35 825.224 197.639C824.479 197.278 823.601 197.326 822.9 197.765C822.2 198.204 821.774 198.973 821.775 199.8V202.453C821.378 202.259 820.936 202.178 820.496 202.22C819.247 202.382 818.317 203.454 818.333 204.713V212.526C818.333 212.906 818.641 213.214 819.021 213.214C819.402 213.214 819.71 212.906 819.71 212.526V204.713C819.691 204.159 820.087 203.678 820.634 203.589C820.925 203.558 821.215 203.652 821.433 203.848C821.651 204.044 821.775 204.322 821.775 204.615V210.462C821.775 210.842 822.083 211.15 822.463 211.15C822.844 211.15 823.152 210.842 823.152 210.462V199.8C823.152 199.23 823.614 198.768 824.185 198.768C824.755 198.768 825.217 199.23 825.217 199.8V210.462C825.217 210.842 825.526 211.15 825.906 211.15C826.286 211.15 826.594 210.842 826.594 210.462V197.736C826.594 197.166 827.057 196.704 827.627 196.704C828.198 196.704 828.66 197.166 828.66 197.736V210.462C828.66 210.842 828.968 211.15 829.349 211.15C829.729 211.15 830.037 210.842 830.037 210.462V199.8C830.037 199.23 830.499 198.768 831.07 198.768C831.64 198.768 832.103 199.23 832.103 199.8V214.314C832.093 214.925 832.163 215.534 832.309 216.127C832.509 216.894 833.178 217.448 833.97 217.503C834.82 217.54 835.558 216.923 835.671 216.08C835.931 215.262 837.443 212.526 838.295 212.526C838.557 212.52 838.807 212.64 838.966 212.849C839.04 212.994 838.843 213.433 838.746 213.648C838.491 214.215 838.288 214.748 838.107 215.205C837.051 217.905 836.765 218.653 836.544 219.29C835.995 221.026 835.015 222.594 833.695 223.849C833.118 224.37 832.787 225.11 832.786 225.888V226.972H822.458V226.025C822.456 225.604 822.325 225.193 822.083 224.849C819.536 221.168 819.7 218.128 819.703 218.078C819.731 217.701 819.45 217.372 819.073 217.341C818.89 217.325 818.709 217.383 818.57 217.502C818.431 217.622 818.346 217.792 818.335 217.975C818.327 218.12 818.106 221.511 820.955 225.631C821.038 225.746 821.084 225.883 821.086 226.025V227.162C820.66 227.405 820.395 227.857 820.393 228.348V229.915C819.968 230.159 819.706 230.61 819.704 231.099V235.915C819.704 236.295 820.013 236.603 820.393 236.603H834.852C835.232 236.603 835.54 236.295 835.54 235.915V231.099C835.539 230.61 835.277 230.159 834.852 229.915V228.348C834.849 227.859 834.587 227.409 834.163 227.164V225.888C834.164 225.499 834.328 225.129 834.616 224.869C835.779 223.815 836.702 222.525 837.324 221.085C837.635 220.426 837.846 219.694 838.097 219.039C838.463 218.085 839.636 215.029 840.003 214.209C840.37 213.608 840.439 212.872 840.188 212.214C839.795 211.545 839.071 211.138 838.295 211.15ZM833.475 229.724H821.77V228.348H833.475V229.724ZM834.163 235.227H821.081V231.099H834.163V235.227Z" fill="white"/>
<path d="M857.935 213.931C857.587 213.873 857.23 213.904 856.898 214.021V212.61C856.911 211.583 856.189 210.692 855.181 210.491C854.833 210.433 854.476 210.464 854.144 210.581C854.174 209.541 853.449 208.631 852.427 208.427C851.379 208.251 850.367 208.897 850.086 209.921C849.733 209.781 849.349 209.741 848.975 209.803C847.967 210.004 847.246 210.895 847.26 211.922V223.212C847.268 223.397 847.14 223.561 846.957 223.599C846.762 223.65 846.559 223.546 846.486 223.358C845.978 222.423 845.285 221.601 844.45 220.94C843.327 220.003 841.703 220.09 841.178 221.453C840.878 222.282 841.138 223.209 841.826 223.761C842.243 224.237 842.591 224.77 842.859 225.343C843.547 226.613 843.225 227.353 845.432 229.569C846.12 230.105 846.536 230.916 846.57 231.787V232.475C846.189 232.475 845.881 232.783 845.881 233.163V235.915C845.881 236.295 846.189 236.603 846.57 236.603H857.586C857.966 236.603 858.275 236.295 858.275 235.915V233.163C858.273 232.812 858.004 232.521 857.655 232.489C857.783 231.668 858.067 230.879 858.49 230.163C859.276 228.667 859.654 227.76 859.654 223.532V216.049C859.667 215.022 858.944 214.131 857.935 213.931ZM856.898 235.227H847.258V233.851H856.898V235.227ZM858.275 223.532C858.275 228.124 857.833 228.38 856.97 230.104C856.606 230.85 856.368 231.651 856.265 232.475H847.947V231.787C847.913 230.555 847.353 229.395 846.409 228.601C844.413 226.595 844.877 226.177 844.068 224.691C843.732 223.963 843.277 223.297 842.722 222.719C842.485 222.54 842.381 222.235 842.459 221.949C842.488 221.832 842.579 221.74 842.695 221.709C843.014 221.675 843.331 221.78 843.566 221.997C844.28 222.558 844.87 223.261 845.299 224.061C845.687 224.774 846.51 225.132 847.298 224.931C848.085 224.73 848.635 224.021 848.634 223.21V211.922C848.62 211.566 848.857 211.249 849.201 211.16C849.402 211.124 849.609 211.179 849.766 211.31C849.922 211.44 850.013 211.634 850.012 211.838V221.469C850.012 221.849 850.321 222.157 850.701 222.157C851.081 222.157 851.389 221.849 851.389 221.469V210.462C851.389 210.259 851.479 210.065 851.636 209.935C851.792 209.804 851.998 209.749 852.198 209.785C852.543 209.873 852.78 210.19 852.766 210.546V221.469C852.766 221.849 853.075 222.157 853.455 222.157C853.835 222.157 854.144 221.849 854.144 221.469V212.526C854.143 212.322 854.234 212.129 854.39 211.998C854.546 211.868 854.752 211.813 854.953 211.848C855.298 211.937 855.534 212.254 855.521 212.61V221.469C855.521 221.849 855.829 222.157 856.209 222.157C856.589 222.157 856.898 221.849 856.898 221.469V215.965C856.898 215.762 856.988 215.569 857.144 215.438C857.3 215.307 857.506 215.252 857.707 215.288C858.052 215.377 858.288 215.694 858.275 216.049V223.532Z" fill="white"/>
<path d="M843.114 210.462C843.494 210.462 843.803 210.154 843.803 209.774V209.035C845.753 208.76 847.245 207.347 847.245 205.647C847.245 203.75 845.392 202.207 843.114 202.207C841.595 202.207 840.36 201.281 840.36 200.143C840.36 199.006 841.595 198.08 843.114 198.08C843.886 198.064 844.638 198.33 845.228 198.828C845.411 198.993 845.668 199.047 845.902 198.971C846.136 198.895 846.312 198.7 846.363 198.46C846.415 198.219 846.333 197.969 846.15 197.805C845.488 197.234 844.671 196.872 843.803 196.764V196.016C843.803 195.636 843.494 195.328 843.114 195.328C842.734 195.328 842.426 195.636 842.426 196.016V196.756C840.475 197.031 838.983 198.443 838.983 200.143C838.983 202.04 840.836 203.583 843.114 203.583C844.633 203.583 845.868 204.509 845.868 205.647C845.868 206.785 844.633 207.71 843.114 207.71C842.342 207.726 841.59 207.46 841 206.962C840.817 206.797 840.56 206.743 840.326 206.819C840.092 206.895 839.916 207.09 839.865 207.331C839.813 207.571 839.895 207.821 840.078 207.986C840.741 208.556 841.557 208.918 842.426 209.026V209.774C842.426 210.154 842.734 210.462 843.114 210.462Z" fill="white"/>
<circle cx="991" cy="96" r="44" fill="#F28F17"/>
<path d="M987.618 90.7192H999.923C1000.05 90.7192 1000.18 90.6674 1000.27 90.5751C1000.36 90.4828 1000.42 90.3576 1000.42 90.2271C1000.42 90.0965 1000.36 89.9713 1000.27 89.879C1000.18 89.7867 1000.05 89.7349 999.923 89.7349H987.618C987.488 89.7349 987.362 89.7867 987.27 89.879C987.178 89.9713 987.126 90.0965 987.126 90.2271C987.126 90.3576 987.178 90.4828 987.27 90.5751C987.362 90.6674 987.488 90.7192 987.618 90.7192Z" fill="white"/>
<path d="M982.648 90.1359L981.555 91.1814L981.111 90.7379C981.066 90.6912 981.011 90.6539 980.951 90.6284C980.891 90.6028 980.827 90.5894 980.762 90.589C980.696 90.5886 980.632 90.6011 980.571 90.6258C980.511 90.6506 980.456 90.6871 980.41 90.7332C980.364 90.7793 980.328 90.8341 980.303 90.8944C980.278 90.9547 980.266 91.0194 980.266 91.0845C980.267 91.1497 980.28 91.2142 980.306 91.2742C980.331 91.3342 980.368 91.3885 980.415 91.4339L981.199 92.2178C981.29 92.3088 981.413 92.3605 981.541 92.3619C981.67 92.3634 981.794 92.3144 981.887 92.2255L983.328 90.8474C983.376 90.8028 983.413 90.7494 983.44 90.6901C983.466 90.6309 983.481 90.567 983.482 90.5021C983.484 90.4373 983.473 90.3727 983.449 90.3122C983.426 90.2517 983.391 90.1964 983.346 90.1495C983.301 90.1026 983.248 90.065 983.188 90.0389C983.129 90.0129 983.065 89.9988 983 89.9975C982.935 89.9963 982.871 90.0079 982.81 90.0316C982.75 90.0554 982.695 90.0908 982.648 90.1359Z" fill="white"/>
<path d="M981.876 87.84C981.215 87.84 980.569 88.0359 980.02 88.4029C979.47 88.77 979.042 89.2917 978.789 89.9021C978.537 90.5125 978.47 91.1842 978.599 91.8322C978.728 92.4802 979.046 93.0754 979.514 93.5425C979.981 94.0097 980.576 94.3279 981.224 94.4567C981.872 94.5856 982.544 94.5195 983.154 94.2666C983.764 94.0138 984.286 93.5856 984.653 93.0362C985.02 92.4869 985.216 91.841 985.216 91.1804C985.215 90.2947 984.863 89.4456 984.237 88.8194C983.61 88.1932 982.761 87.8409 981.876 87.84ZM981.876 93.5365C981.41 93.5365 980.954 93.3983 980.567 93.1394C980.179 92.8805 979.877 92.5125 979.699 92.082C979.521 91.6515 979.474 91.1777 979.565 90.7207C979.656 90.2637 979.88 89.8439 980.21 89.5143C980.539 89.1848 980.959 88.9604 981.416 88.8695C981.873 88.7786 982.347 88.8253 982.777 89.0036C983.208 89.1819 983.576 89.4839 983.835 89.8714C984.094 90.2588 984.232 90.7144 984.232 91.1804C984.231 91.8051 983.983 92.404 983.541 92.8458C983.099 93.2876 982.5 93.5361 981.876 93.5368V93.5365Z" fill="white"/>
<path d="M987.618 98.9224H999.923C1000.05 98.9224 1000.18 98.8705 1000.27 98.7782C1000.36 98.6859 1000.42 98.5607 1000.42 98.4302C1000.42 98.2996 1000.36 98.1744 1000.27 98.0821C1000.18 97.9898 1000.05 97.938 999.923 97.938H987.618C987.488 97.938 987.362 97.9898 987.27 98.0821C987.178 98.1744 987.126 98.2996 987.126 98.4302C987.126 98.5607 987.178 98.6859 987.27 98.7782C987.362 98.8705 987.488 98.9224 987.618 98.9224Z" fill="white"/>
<path d="M982.648 98.3391L981.555 99.3846L981.111 98.941C981.066 98.8943 981.011 98.8571 980.951 98.8315C980.891 98.806 980.827 98.7926 980.762 98.7921C980.696 98.7917 980.632 98.8042 980.571 98.829C980.511 98.8537 980.456 98.8902 980.41 98.9363C980.364 98.9824 980.328 99.0372 980.303 99.0975C980.278 99.1579 980.266 99.2225 980.266 99.2877C980.267 99.3529 980.28 99.4173 980.306 99.4773C980.331 99.5373 980.368 99.5916 980.415 99.6371L981.199 100.421C981.29 100.512 981.413 100.564 981.541 100.565C981.67 100.567 981.794 100.518 981.887 100.429L983.328 99.0505C983.376 99.006 983.413 98.9525 983.44 98.8933C983.466 98.834 983.481 98.7701 983.482 98.7053C983.484 98.6404 983.473 98.5758 983.449 98.5153C983.426 98.4548 983.391 98.3995 983.346 98.3526C983.301 98.3057 983.248 98.2681 983.188 98.2421C983.129 98.216 983.065 98.2019 983 98.2007C982.935 98.1994 982.871 98.211 982.81 98.2347C982.75 98.2585 982.695 98.2939 982.648 98.3391Z" fill="white"/>
<path d="M981.876 96.0431C981.215 96.0431 980.569 96.239 980.02 96.6061C979.47 96.9731 979.042 97.4948 978.789 98.1052C978.537 98.7156 978.47 99.3873 978.599 100.035C978.728 100.683 979.046 101.279 979.514 101.746C979.981 102.213 980.576 102.531 981.224 102.66C981.872 102.789 982.544 102.723 983.154 102.47C983.764 102.217 984.286 101.789 984.653 101.239C985.02 100.69 985.216 100.044 985.216 99.3835C985.215 98.4979 984.863 97.6488 984.237 97.0225C983.61 96.3963 982.761 96.0441 981.876 96.0431ZM981.876 101.74C981.41 101.74 980.954 101.601 980.567 101.343C980.179 101.084 979.877 100.716 979.699 100.285C979.521 99.8546 979.474 99.3809 979.565 98.9238C979.656 98.4668 979.88 98.047 980.21 97.7175C980.539 97.388 980.959 97.1636 981.416 97.0727C981.873 96.9817 982.347 97.0284 982.777 97.2067C983.208 97.3851 983.576 97.687 983.835 98.0745C984.094 98.462 984.232 98.9175 984.232 99.3835C984.231 100.008 983.983 100.607 983.541 101.049C983.099 101.491 982.5 101.739 981.876 101.74V101.74Z" fill="white"/>
<path d="M982.648 106.542L981.555 107.588L981.111 107.144C981.066 107.097 981.011 107.06 980.951 107.035C980.891 107.009 980.827 106.996 980.762 106.995C980.696 106.995 980.632 107.007 980.571 107.032C980.511 107.057 980.456 107.093 980.41 107.139C980.364 107.186 980.328 107.24 980.303 107.301C980.278 107.361 980.266 107.426 980.266 107.491C980.267 107.556 980.28 107.62 980.306 107.68C980.331 107.74 980.368 107.795 980.415 107.84L981.199 108.624C981.29 108.715 981.413 108.767 981.541 108.768C981.67 108.77 981.794 108.721 981.887 108.632L983.328 107.254C983.376 107.209 983.413 107.156 983.44 107.096C983.466 107.037 983.481 106.973 983.482 106.908C983.484 106.844 983.473 106.779 983.449 106.718C983.426 106.658 983.391 106.603 983.346 106.556C983.301 106.509 983.248 106.471 983.188 106.445C983.129 106.419 983.065 106.405 983 106.404C982.935 106.403 982.871 106.414 982.81 106.438C982.75 106.462 982.695 106.497 982.648 106.542Z" fill="white"/>
<path d="M981.876 104.246C981.215 104.246 980.569 104.442 980.02 104.809C979.47 105.176 979.042 105.698 978.789 106.308C978.537 106.919 978.47 107.59 978.599 108.238C978.728 108.886 979.046 109.482 979.514 109.949C979.981 110.416 980.576 110.734 981.224 110.863C981.872 110.992 982.544 110.926 983.154 110.673C983.764 110.42 984.286 109.992 984.653 109.443C985.02 108.893 985.216 108.247 985.216 107.587C985.215 106.701 984.863 105.852 984.237 105.226C983.61 104.599 982.761 104.247 981.876 104.246ZM981.876 109.943C981.41 109.943 980.954 109.805 980.567 109.546C980.179 109.287 979.877 108.919 979.699 108.488C979.521 108.058 979.474 107.584 979.565 107.127C979.656 106.67 979.88 106.25 980.21 105.921C980.539 105.591 980.959 105.367 981.416 105.276C981.873 105.185 982.347 105.232 982.777 105.41C983.208 105.588 983.576 105.89 983.835 106.278C984.094 106.665 984.232 107.121 984.232 107.587C984.231 108.211 983.983 108.81 983.541 109.252C983.099 109.694 982.5 109.942 981.876 109.943V109.943Z" fill="white"/>
<path d="M987.618 92.3599H994.181C994.311 92.3599 994.436 92.308 994.529 92.2157C994.621 92.1234 994.673 91.9982 994.673 91.8677C994.673 91.7371 994.621 91.6119 994.529 91.5196C994.436 91.4273 994.311 91.3755 994.181 91.3755H987.618C987.488 91.3755 987.362 91.4273 987.27 91.5196C987.178 91.6119 987.126 91.7371 987.126 91.8677C987.126 91.9982 987.178 92.1234 987.27 92.2157C987.362 92.308 987.488 92.3599 987.618 92.3599Z" fill="white"/>
<path d="M987.618 100.563H994.181C994.311 100.563 994.436 100.511 994.529 100.419C994.621 100.327 994.673 100.201 994.673 100.071C994.673 99.9403 994.621 99.8151 994.529 99.7228C994.436 99.6305 994.311 99.5786 994.181 99.5786H987.618C987.488 99.5786 987.362 99.6305 987.27 99.7228C987.178 99.8151 987.126 99.9403 987.126 100.071C987.126 100.201 987.178 100.327 987.27 100.419C987.362 100.511 987.488 100.563 987.618 100.563Z" fill="white"/>
<path d="M977.84 82.6884C977.709 82.6884 977.584 82.7402 977.492 82.8325C977.4 82.9248 977.348 83.05 977.348 83.1805V83.6973C977.348 83.8279 977.4 83.9531 977.492 84.0454C977.584 84.1377 977.709 84.1895 977.84 84.1895C977.97 84.1895 978.096 84.1377 978.188 84.0454C978.28 83.9531 978.332 83.8279 978.332 83.6973V83.1805C978.332 83.05 978.28 82.9248 978.188 82.8325C978.096 82.7402 977.97 82.6884 977.84 82.6884Z" fill="white"/>
<path d="M977.84 84.7631C977.709 84.7631 977.584 84.8149 977.492 84.9072C977.4 84.9995 977.348 85.1247 977.348 85.2552V90.0131C977.348 90.1436 977.4 90.2688 977.492 90.3611C977.584 90.4534 977.709 90.5053 977.84 90.5053C977.97 90.5053 978.096 90.4534 978.188 90.3611C978.28 90.2688 978.332 90.1436 978.332 90.0131V85.2552C978.332 85.1906 978.319 85.1266 978.295 85.0669C978.27 85.0072 978.234 84.9529 978.188 84.9072C978.142 84.8615 978.088 84.8253 978.028 84.8005C977.968 84.7758 977.904 84.7631 977.84 84.7631Z" fill="white"/>
<path d="M1010.51 96.929C1010.18 96.8599 1009.84 96.8568 1009.51 96.9199C1009.18 96.983 1008.87 97.111 1008.59 97.2965L1003.52 100.626V82.1572C1003.52 80.5289 1002.18 79.2349 1000.55 79.2349H997.445V77.707C997.445 77.5765 997.393 77.4513 997.301 77.359C997.209 77.2667 997.084 77.2148 996.953 77.2148C996.823 77.2148 996.697 77.2667 996.605 77.359C996.513 77.4513 996.461 77.5765 996.461 77.707V79.2349H992.277V77.707C992.277 77.5765 992.225 77.4513 992.133 77.359C992.041 77.2667 991.916 77.2148 991.785 77.2148C991.655 77.2148 991.529 77.2667 991.437 77.359C991.345 77.4513 991.293 77.5765 991.293 77.707V79.2349H987.191V77.707C987.191 77.5765 987.14 77.4513 987.047 77.359C986.955 77.2667 986.83 77.2148 986.699 77.2148C986.569 77.2148 986.443 77.2667 986.351 77.359C986.259 77.4513 986.207 77.5765 986.207 77.707V79.2349H982.023V77.707C982.023 77.5765 981.972 77.4513 981.879 77.359C981.787 77.2667 981.662 77.2148 981.531 77.2148C981.401 77.2148 981.276 77.2667 981.183 77.359C981.091 77.4513 981.039 77.5765 981.039 77.707V79.2349H978.401C978.015 79.2321 977.633 79.3057 977.276 79.4514C976.92 79.597 976.595 79.8119 976.322 80.0836C976.049 80.3553 975.832 80.6784 975.684 81.0343C975.536 81.3902 975.46 81.7719 975.461 82.1572V111.771C975.461 113.399 976.772 114.754 978.401 114.754H1000.55C1002.18 114.754 1003.52 113.399 1003.52 111.771V106.753L1011.4 101.577C1011.82 101.299 1012.15 100.901 1012.35 100.435C1012.55 99.9686 1012.6 99.4541 1012.51 98.9565C1012.41 98.459 1012.17 98.0008 1011.82 97.6399C1011.46 97.279 1011.01 97.0316 1010.51 96.929ZM996.925 82.3171C997.097 82.3171 997.266 82.3682 997.409 82.4638C997.552 82.5594 997.664 82.6954 997.729 82.8544C997.795 83.0134 997.813 83.1884 997.779 83.3573C997.745 83.5261 997.662 83.6812 997.541 83.8029C997.419 83.9246 997.264 84.0075 997.095 84.0411C996.926 84.0747 996.751 84.0574 996.592 83.9916C996.433 83.9257 996.297 83.8141 996.202 83.671C996.106 83.5279 996.055 83.3596 996.055 83.1875C996.055 82.9567 996.147 82.7355 996.31 82.5723C996.473 82.4091 996.695 82.3173 996.925 82.3171ZM991.796 82.3171C991.969 82.3171 992.137 82.3682 992.28 82.4638C992.423 82.5595 992.535 82.6954 992.601 82.8544C992.666 83.0135 992.684 83.1885 992.65 83.3573C992.616 83.5261 992.534 83.6812 992.412 83.8029C992.29 83.9246 992.135 84.0075 991.966 84.0411C991.797 84.0747 991.622 84.0574 991.463 83.9915C991.304 83.9257 991.168 83.8141 991.073 83.671C990.977 83.5279 990.926 83.3596 990.926 83.1875C990.926 82.9567 991.018 82.7355 991.181 82.5723C991.344 82.4091 991.566 82.3173 991.796 82.3171ZM986.667 82.3171C986.84 82.3172 987.008 82.3682 987.151 82.4639C987.294 82.5596 987.406 82.6955 987.471 82.8546C987.537 83.0136 987.554 83.1886 987.521 83.3574C987.487 83.5262 987.404 83.6813 987.283 83.803C987.161 83.9247 987.006 84.0075 986.837 84.0411C986.668 84.0747 986.493 84.0574 986.334 83.9915C986.175 83.9257 986.039 83.8141 985.944 83.671C985.848 83.5278 985.797 83.3596 985.797 83.1875C985.797 82.9567 985.889 82.7354 986.052 82.5722C986.215 82.4091 986.437 82.3173 986.667 82.3171ZM981.539 82.3171C981.711 82.3171 981.879 82.3682 982.022 82.4638C982.165 82.5595 982.277 82.6954 982.343 82.8544C982.409 83.0135 982.426 83.1885 982.392 83.3573C982.359 83.5261 982.276 83.6812 982.154 83.8029C982.032 83.9246 981.877 84.0075 981.708 84.0411C981.539 84.0747 981.364 84.0574 981.205 83.9915C981.046 83.9257 980.911 83.8141 980.815 83.671C980.719 83.5279 980.668 83.3596 980.668 83.1875C980.668 82.9567 980.76 82.7355 980.923 82.5723C981.087 82.4091 981.308 82.3173 981.539 82.3171ZM1002.53 111.771C1002.53 112.297 1002.32 112.802 1001.95 113.176C1001.58 113.55 1001.08 113.763 1000.55 113.77H978.401C977.315 113.77 976.445 112.856 976.445 111.771V82.1572C976.445 81.9011 976.495 81.6474 976.593 81.4109C976.692 81.1743 976.836 80.9597 977.018 80.7794C977.2 80.599 977.416 80.4567 977.653 80.3605C977.89 80.2644 978.144 80.2163 978.401 80.2192H981.039V81.3995C980.301 81.6157 979.68 82.3352 979.68 83.1878C979.68 83.4313 979.728 83.6724 979.821 83.8974C979.915 84.1224 980.051 84.3268 980.223 84.499C980.396 84.6712 980.6 84.8078 980.825 84.9009C981.05 84.9941 981.291 85.0421 981.535 85.0421C981.778 85.0421 982.019 84.9941 982.244 84.9009C982.469 84.8078 982.674 84.6712 982.846 84.499C983.018 84.3268 983.155 84.1224 983.248 83.8974C983.341 83.6724 983.389 83.4313 983.389 83.1878C983.395 82.7798 983.263 82.3817 983.016 82.0574C982.768 81.733 982.419 81.5014 982.023 81.3995V80.2192H986.207V81.3995C985.811 81.5008 985.459 81.7319 985.21 82.056C984.96 82.3801 984.826 82.7786 984.829 83.1878C984.829 83.6802 985.025 84.1525 985.373 84.5007C985.721 84.8489 986.193 85.0445 986.686 85.0445C987.178 85.0445 987.65 84.8489 987.998 84.5007C988.347 84.1525 988.542 83.6802 988.542 83.1878C988.535 82.7851 988.401 82.395 988.158 82.0737C987.915 81.7524 987.577 81.5163 987.191 81.3995V80.2192H991.293V81.3995C990.555 81.6157 989.936 82.3352 989.936 83.1878C989.936 83.6795 990.131 84.151 990.479 84.4987C990.827 84.8464 991.298 85.0417 991.79 85.0417C992.282 85.0417 992.753 84.8464 993.101 84.4987C993.449 84.151 993.644 83.6795 993.644 83.1878C993.649 82.7797 993.518 82.3816 993.27 82.0573C993.022 81.733 992.673 81.5013 992.277 81.3995V80.2192H996.461V81.3995C996.065 81.5008 995.714 81.7319 995.464 82.0561C995.215 82.3803 995.081 82.7787 995.085 83.1878C995.085 83.6801 995.28 84.1523 995.628 84.5005C995.976 84.8486 996.449 85.0442 996.941 85.0442C997.433 85.0442 997.906 84.8486 998.254 84.5005C998.602 84.1523 998.797 83.6801 998.797 83.1878C998.797 82.3355 998.184 81.6161 997.445 81.3995V80.2192H1000.55C1001.63 80.2192 1002.53 81.0717 1002.53 82.1572V101.272L1000.68 102.486C1000.63 102.524 1000.58 102.572 1000.54 102.629C1000.5 102.686 1000.48 102.75 1000.47 102.817C1000.46 102.884 1000.46 102.953 1000.48 103.019C1000.49 103.085 1000.52 103.146 1000.56 103.2C1000.64 103.297 1000.75 103.363 1000.87 103.383C1000.99 103.403 1001.12 103.377 1001.22 103.309L1008.54 98.5027L1009.14 99.4088L996.737 107.552L996.142 106.646L998.471 105.116C998.525 105.081 998.572 105.035 998.608 104.982C998.645 104.928 998.67 104.868 998.683 104.805C998.696 104.741 998.697 104.676 998.685 104.613C998.673 104.549 998.648 104.489 998.613 104.435C998.577 104.381 998.531 104.334 998.478 104.298C998.425 104.261 998.364 104.236 998.301 104.223C998.238 104.21 998.173 104.209 998.109 104.221C998.046 104.233 997.985 104.258 997.931 104.293L995.192 106.092C995.187 106.095 995.183 106.099 995.177 106.103C995.165 106.112 995.153 106.121 995.141 106.131C995.137 106.134 995.134 106.138 995.13 106.141H987.618C987.487 106.141 987.362 106.193 987.27 106.285C987.178 106.378 987.126 106.503 987.126 106.633C987.126 106.764 987.178 106.889 987.27 106.981C987.362 107.074 987.487 107.126 987.618 107.126H994.575L994.226 107.784C994.211 107.783 994.196 107.782 994.18 107.782H987.618C987.487 107.782 987.362 107.834 987.27 107.926C987.178 108.018 987.126 108.143 987.126 108.274C987.126 108.405 987.178 108.53 987.27 108.622C987.362 108.714 987.487 108.766 987.618 108.766H993.707L993.138 109.841C993.098 109.916 993.078 110 993.081 110.085C993.083 110.17 993.107 110.253 993.151 110.325C993.195 110.398 993.257 110.458 993.33 110.5C993.404 110.542 993.488 110.564 993.572 110.564C993.577 110.564 993.581 110.564 993.585 110.564L997.745 110.455C997.755 110.455 997.765 110.453 997.775 110.452C997.785 110.451 997.796 110.45 997.807 110.449C997.82 110.447 997.833 110.443 997.845 110.441C997.855 110.438 997.864 110.437 997.874 110.434C997.895 110.428 997.916 110.42 997.936 110.41C997.941 110.408 997.946 110.405 997.951 110.402C997.967 110.394 997.982 110.386 997.997 110.376C997.999 110.375 998.001 110.375 998.002 110.374L1002.53 107.4V111.771ZM996.835 109.494L994.401 109.557L995.506 107.471L996.835 109.494ZM997.873 109.281L997.835 109.223L997.278 108.375L1009.68 100.232L1010.27 101.138L997.873 109.281ZM1011.08 100.576L1009.38 97.9844C1009.59 97.8962 1009.81 97.8541 1010.04 97.8609C1010.27 97.8678 1010.49 97.9234 1010.7 98.0241C1010.82 98.081 1010.93 98.1542 1011.02 98.2414C1011.19 98.3855 1011.32 98.5625 1011.42 98.7613C1011.51 98.96 1011.56 99.1761 1011.57 99.3957C1011.57 99.6153 1011.53 99.8337 1011.45 100.037C1011.36 100.24 1011.24 100.424 1011.08 100.576Z" fill="white"/>
<path fill-rule="evenodd" clip-rule="evenodd" d="M78 -4.37114e-08C78.5523 -1.95703e-08 79 0.447715 79 1L79 4.75C79 5.30228 78.5523 5.75 78 5.75C77.4477 5.75 77 5.30228 77 4.75L77 1C77 0.447715 77.4477 -6.78525e-08 78 -4.37114e-08ZM78 11.25C78.5523 11.25 79 11.6977 79 12.25L79 19.75C79 20.3023 78.5523 20.75 78 20.75C77.4477 20.75 77 20.3023 77 19.75L77 12.25C77 11.6977 77.4477 11.25 78 11.25ZM78 26.25C78.5523 26.25 79 26.6977 79 27.25L79 31C79 31.5523 78.5523 32 78 32C77.4477 32 77 31.5523 77 31L77 27.25C77 26.6977 77.4477 26.25 78 26.25Z" fill="#F28F17"/>
<path fill-rule="evenodd" clip-rule="evenodd" d="M382 -4.37114e-08C382.552 -1.95703e-08 383 0.447715 383 1L383 4.75C383 5.30228 382.552 5.75 382 5.75C381.448 5.75 381 5.30228 381 4.75L381 1C381 0.447715 381.448 -6.78525e-08 382 -4.37114e-08ZM382 11.25C382.552 11.25 383 11.6977 383 12.25L383 19.75C383 20.3023 382.552 20.75 382 20.75C381.448 20.75 381 20.3023 381 19.75L381 12.25C381 11.6977 381.448 11.25 382 11.25ZM382 26.25C382.552 26.25 383 26.6977 383 27.25L383 31C383 31.5523 382.552 32 382 32C381.448 32 381 31.5523 381 31L381 27.25C381 26.6977 381.448 26.25 382 26.25Z" fill="#F28F17"/>
<path fill-rule="evenodd" clip-rule="evenodd" d="M228 280C228.552 280 229 280.448 229 281L229 284.75C229 285.302 228.552 285.75 228 285.75C227.448 285.75 227 285.302 227 284.75L227 281C227 280.448 227.448 280 228 280ZM228 291.25C228.552 291.25 229 291.698 229 292.25L229 299.75C229 300.302 228.552 300.75 228 300.75C227.448 300.75 227 300.302 227 299.75L227 292.25C227 291.698 227.448 291.25 228 291.25ZM228 306.25C228.552 306.25 229 306.698 229 307.25L229 311C229 311.552 228.552 312 228 312C227.448 312 227 311.552 227 311L227 307.25C227 306.698 227.448 306.25 228 306.25Z" fill="#05BEC0"/>
<path fill-rule="evenodd" clip-rule="evenodd" d="M686 -4.37114e-08C686.552 -1.95703e-08 687 0.447715 687 1L687 4.75C687 5.30228 686.552 5.75 686 5.75C685.448 5.75 685 5.30228 685 4.75L685 1C685 0.447715 685.448 -6.78525e-08 686 -4.37114e-08ZM686 11.25C686.552 11.25 687 11.6977 687 12.25L687 19.75C687 20.3023 686.552 20.75 686 20.75C685.448 20.75 685 20.3023 685 19.75L685 12.25C685 11.6977 685.448 11.25 686 11.25ZM686 26.25C686.552 26.25 687 26.6977 687 27.25L687 31C687 31.5523 686.552 32 686 32C685.448 32 685 31.5523 685 31L685 27.25C685 26.6977 685.448 26.25 686 26.25Z" fill="#F28F17"/>
<path fill-rule="evenodd" clip-rule="evenodd" d="M531 280C531.552 280 532 280.448 532 281L532 284.75C532 285.302 531.552 285.75 531 285.75C530.448 285.75 530 285.302 530 284.75L530 281C530 280.448 530.448 280 531 280ZM531 291.25C531.552 291.25 532 291.698 532 292.25L532 299.75C532 300.302 531.552 300.75 531 300.75C530.448 300.75 530 300.302 530 299.75L530 292.25C530 291.698 530.448 291.25 531 291.25ZM531 306.25C531.552 306.25 532 306.698 532 307.25L532 311C532 311.552 531.552 312 531 312C530.448 312 530 311.552 530 311L530 307.25C530 306.698 530.448 306.25 531 306.25Z" fill="#05BEC0"/>
<path fill-rule="evenodd" clip-rule="evenodd" d="M991 -4.37114e-08C991.552 -1.95703e-08 992 0.447715 992 1L992 4.75C992 5.30228 991.552 5.75 991 5.75C990.448 5.75 990 5.30228 990 4.75L990 1C990 0.447715 990.448 -6.78525e-08 991 -4.37114e-08ZM991 11.25C991.552 11.25 992 11.6977 992 12.25L992 19.75C992 20.3023 991.552 20.75 991 20.75C990.448 20.75 990 20.3023 990 19.75L990 12.25C990 11.6977 990.448 11.25 991 11.25ZM991 26.25C991.552 26.25 992 26.6977 992 27.25L992 31C992 31.5523 991.552 32 991 32C990.448 32 990 31.5523 990 31L990 27.25C990 26.6977 990.448 26.25 991 26.25Z" fill="#F28F17"/>
<path fill-rule="evenodd" clip-rule="evenodd" d="M839 280C839.552 280 840 280.448 840 281L840 284.75C840 285.302 839.552 285.75 839 285.75C838.448 285.75 838 285.302 838 284.75L838 281C838 280.448 838.448 280 839 280ZM839 291.25C839.552 291.25 840 291.698 840 292.25L840 299.75C840 300.302 839.552 300.75 839 300.75C838.448 300.75 838 300.302 838 299.75L838 292.25C838 291.698 838.448 291.25 839 291.25ZM839 306.25C839.552 306.25 840 306.698 840 307.25L840 311C840 311.552 839.552 312 839 312C838.448 312 838 311.552 838 311L838 307.25C838 306.698 838.448 306.25 839 306.25Z" fill="#05BEC0"/>
<defs>
<filter id="filter0_d" x="0" y="24" width="1069" height="276" filterUnits="userSpaceOnUse" color-interpolation-filters="sRGB">
<feFlood flood-opacity="0" result="BackgroundImageFix"/>
<feColorMatrix in="SourceAlpha" type="matrix" values="0 0 0 0 0 0 0 0 0 0 0 0 0 0 0 0 0 0 127 0"/>
<feOffset dy="6"/>
<feGaussianBlur stdDeviation="9"/>
<feColorMatrix type="matrix" values="0 0 0 0 0.196078 0 0 0 0 0.196078 0 0 0 0 0.196078 0 0 0 0.03 0"/>
<feBlend mode="normal" in2="BackgroundImageFix" result="effect1_dropShadow"/>
<feBlend mode="normal" in="SourceGraphic" in2="effect1_dropShadow" result="shape"/>
</filter>
</defs>
</svg>
