<svg width="470" height="531" viewBox="0 0 470 531" fill="none" xmlns="http://www.w3.org/2000/svg">
<path fill-rule="evenodd" clip-rule="evenodd" d="M79.6295 444.969L207.004 50.9364C207.342 49.8906 208.482 49.2836 209.551 49.5807L409.292 105.093C410.361 105.39 410.954 106.478 410.616 107.524L283.241 501.557C282.903 502.603 281.763 503.21 280.694 502.912L80.9527 447.401C79.8838 447.104 79.2914 446.015 79.6295 444.969ZM371.302 193.586L372.789 189.004L382.847 191.792L381.361 196.375L371.302 193.586ZM189.48 143.092L191.016 138.528L210.79 144.181L209.361 148.818L189.48 143.092ZM219.803 151.573L221.246 147.021L241.497 152.7L239.961 157.263L219.803 151.573ZM250.14 160.14L251.569 155.502L271.82 161.181L270.284 165.745L250.14 160.14ZM280.37 168.633L281.892 163.983L301.749 170.149L300.319 174.787L280.37 168.633ZM310.693 177.114L312.122 172.476L332.373 178.155L330.851 182.805L310.693 177.114ZM341.016 185.595L342.445 180.958L362.302 187.124L360.78 191.773L341.016 185.595ZM135.928 355.281C143.304 361.511 153.897 365.229 167.707 366.433C175.752 367.135 183.26 366.859 190.231 365.605C197.212 364.218 204.006 361.685 210.613 358.004L216.864 366.731C217.842 368.146 219.403 368.947 221.548 369.135L250.308 371.643C251.514 371.749 252.616 371.446 253.611 370.734C254.607 370.023 255.148 369.073 255.234 367.883C255.281 367.222 255.066 366.471 254.587 365.631L238.534 341.285C245.409 335.765 252.149 329.303 258.755 321.898C265.361 314.493 272.792 303.701 274.189 299.3C274.534 298.266 274.394 297.389 273.772 296.67C273.293 295.83 272.517 295.363 271.444 295.269L249.925 293.392C248.718 293.287 247.626 293.458 246.65 293.905C245.807 294.363 245.223 294.977 244.898 295.747C240.628 302.558 233.393 312.502 230.052 315.802C226.845 319.114 225.093 320.957 224.796 321.33L208.542 296.966C219.095 292.831 227.521 288.245 233.821 283.208C240.131 278.038 244.362 271.756 246.514 264.362C247.203 262.293 247.639 260.004 247.82 257.492C248.402 249.428 245.795 242.55 240 236.856C234.204 231.163 225.608 227.819 214.211 226.825C204.692 225.994 196.131 226.844 188.527 229.373C180.924 231.903 174.648 235.678 169.698 240.7C164.892 245.602 161.589 251.167 159.791 257.395C159.044 260.257 158.614 262.481 158.5 264.067C157.984 271.205 160.328 278.925 165.53 287.228C155.38 291.397 147.069 296.259 140.597 301.814C134.258 307.38 129.927 314.119 127.602 322.03C126.674 325.541 126.119 328.552 125.938 331.064C125.222 340.978 128.553 349.05 135.928 355.281ZM210.891 270.034C207.472 272.529 202.579 274.896 196.211 277.134C192.552 271.76 190.86 267.156 191.137 263.322C191.423 259.356 193.203 256.186 196.478 253.811C199.762 251.304 203.348 250.22 207.237 250.56C210.32 250.829 212.676 251.832 214.305 253.571C216.068 255.321 216.853 257.518 216.663 260.161C216.376 264.127 214.452 267.418 210.891 270.034ZM197.032 335.869C190.262 339.934 182.989 341.627 175.213 340.949C170.922 340.575 167.321 339.063 164.409 336.415C161.631 333.778 160.385 330.477 160.671 326.511C160.729 325.718 160.939 324.672 161.303 323.374C163.37 317.169 169.052 312.277 178.35 308.698L197.032 335.869Z" fill="#D77F15"/>
<path fill-rule="evenodd" clip-rule="evenodd" d="M61.8805 445.198L118.51 38.5654C118.662 37.4751 119.676 36.7028 120.775 36.8403L337.635 63.9753C338.734 64.1128 339.502 65.1082 339.35 66.1985L327.337 152.459L317.267 151.215L316.599 155.957L326.677 157.201L282.721 472.831C282.569 473.921 281.555 474.693 280.456 474.556L63.5957 447.421C62.4966 447.283 61.7286 446.288 61.8805 445.198ZM128.406 132.841L129.057 128.035L149.967 130.657L149.316 135.464L128.406 132.841ZM159.81 136.726L160.462 131.92L181.371 134.542L180.72 139.349L159.81 136.726ZM191.121 140.623L191.787 135.902L212.697 138.525L212.031 143.246L191.121 140.623ZM222.354 144.618L223.006 139.811L243.916 142.434L243.264 147.241L222.354 144.618ZM253.666 148.515L254.317 143.708L275.227 146.331L274.576 151.138L253.666 148.515ZM284.991 152.498L285.735 147.679L306.645 150.302L305.887 155.035L284.991 152.498ZM107.514 130.555L108.181 125.813L118.59 127.098L117.922 131.839L107.514 130.555Z" fill="#F28F17"/>
<path d="M167.856 366.143C154 364.899 143.36 361.158 135.939 354.922C128.518 348.685 125.148 340.624 125.829 330.739C126.001 328.235 126.547 325.233 127.465 321.735C129.768 313.852 134.088 307.145 140.425 301.613C146.897 296.094 155.216 291.271 165.382 287.144C160.133 278.848 157.754 271.141 158.244 264.024C158.353 262.442 158.777 260.226 159.515 257.374C161.296 251.168 164.588 245.629 169.391 240.755C174.338 235.762 180.62 232.016 188.237 229.517C195.854 227.018 204.439 226.197 213.991 227.055C225.426 228.082 234.061 231.443 239.895 237.14C245.729 242.836 248.369 249.704 247.815 257.744C247.643 260.248 247.215 262.531 246.531 264.591C244.399 271.959 240.178 278.211 233.868 283.347C227.567 288.352 219.132 292.899 208.562 296.989L224.955 321.339C225.251 320.967 227.002 319.135 230.207 315.842C233.547 312.561 240.767 302.666 245.025 295.887C245.348 295.12 245.932 294.51 246.775 294.055C247.754 293.612 248.848 293.445 250.059 293.554L271.651 295.493C272.728 295.59 273.508 296.058 273.991 296.897C274.618 297.616 274.761 298.491 274.419 299.521C273.034 303.906 265.62 314.646 259.021 322.01C252.422 329.375 245.685 335.799 238.809 341.282L255.001 365.613C255.484 366.452 255.703 367.201 255.658 367.861C255.576 369.047 255.037 369.993 254.041 370.699C253.045 371.406 251.941 371.704 250.731 371.596L221.873 369.004C219.721 368.811 218.152 368.007 217.166 366.592L210.864 357.87C204.25 361.52 197.444 364.026 190.447 365.387C183.459 366.616 175.928 366.868 167.856 366.143ZM196.12 277.173C202.5 274.96 207.399 272.615 210.818 270.137C214.382 267.54 216.3 264.264 216.572 260.31C216.754 257.673 215.957 255.48 214.183 253.729C212.543 251.99 210.176 250.982 207.082 250.704C203.18 250.354 199.587 251.424 196.302 253.914C193.026 256.272 191.252 259.428 190.979 263.383C190.716 267.205 192.429 271.802 196.12 277.173ZM175.292 340.751C183.095 341.451 190.384 339.785 197.159 335.752L178.32 308.597C169.006 312.137 163.325 316.998 161.274 323.18C160.914 324.474 160.707 325.516 160.653 326.307C160.38 330.261 161.642 333.557 164.438 336.195C167.369 338.846 170.987 340.364 175.292 340.751Z" fill="white"/>
</svg>
