<svg width="20" height="34" viewBox="0 0 20 34" fill="none" xmlns="http://www.w3.org/2000/svg">
<path d="M10.0022 7.63717C11.8576 7.63717 13.3618 6.13302 13.3618 4.27757C13.3618 2.42211 11.8576 0.917969 10.0022 0.917969C8.14672 0.917969 6.64258 2.42211 6.64258 4.27757C6.64258 6.13302 8.14672 7.63717 10.0022 7.63717Z" fill="#878787"/>
<path d="M19.533 18.2841L15.9642 10.8317C15.5338 9.80933 14.2266 8.14453 11.9346 8.14453H8.06819C5.77579 8.14453 4.46859 9.80933 4.03859 10.8317L0.469794 18.2841C0.121394 19.0117 0.428594 19.8837 1.15619 20.2321C1.88219 20.5809 2.75579 20.2733 3.10419 19.5457L6.45179 12.5545V32.5389C6.45179 33.3457 7.10579 33.9993 7.91219 33.9993C8.71859 33.9993 9.37259 33.3453 9.37259 32.5389V22.3125H10.629V32.5393C10.629 33.3461 11.283 33.9997 12.0894 33.9997C12.8958 33.9997 13.5498 33.3457 13.5498 32.5393V12.5477L16.8978 19.5457C17.1486 20.0697 17.6714 20.3757 18.2162 20.3757C18.4274 20.3757 18.6422 20.3293 18.8458 20.2321C19.5738 19.8837 19.8814 19.0117 19.533 18.2841Z" fill="#878787"/>
</svg>
