<svg width="136" height="32" viewBox="0 0 136 32" fill="none" xmlns="http://www.w3.org/2000/svg">
<path d="M23.0741 14.9314C23.0741 18.2583 22.0052 21.144 19.8674 23.5883C17.9784 25.7723 15.3258 26.9209 11.9098 27.0341C11.2538 27.0567 9.44959 27.068 6.49732 27.068C5.94307 27.068 5.10603 27.0511 3.9862 27.0171C2.87769 26.9832 2.0463 26.9662 1.49204 26.9662C1.16401 26.9662 1 26.836 1 26.5758C1 25.331 1.04525 23.4638 1.13574 20.9742C1.23754 18.4733 1.28844 16.6005 1.28844 15.3557C1.28844 14.0543 1.23754 12.1079 1.13574 9.51653C1.04525 6.91379 1 4.96739 1 3.67734C1 3.4397 1.16401 3.29825 1.49204 3.25298C2.29515 3.16245 3.61293 3.11719 5.44537 3.11719C8.92927 3.11719 11.1859 3.16811 12.2152 3.26996C14.896 3.54155 16.9943 4.22052 18.51 5.30688C19.9352 6.32534 21.0607 7.75119 21.8864 9.58442C22.6782 11.3158 23.0741 13.0981 23.0741 14.9314ZM16.5758 14.9314C16.5758 13.0189 16.0045 11.4573 14.8621 10.2464C13.7083 8.99032 12.1813 8.36227 10.281 8.36227C8.53903 8.36227 7.66805 8.59425 7.66805 9.05822C7.66805 9.72588 7.65674 10.733 7.63412 12.0797C7.61149 13.415 7.60018 14.4165 7.60018 15.0841C7.60018 15.7405 7.61149 16.7306 7.63412 18.0546C7.65674 19.3673 7.66805 20.3575 7.66805 21.0252C7.66805 21.5117 8.57296 21.755 10.3828 21.755C12.3396 21.755 13.878 21.1044 14.9978 19.803C16.0498 18.5695 16.5758 16.9456 16.5758 14.9314Z" fill="white"/>
<path d="M41.1271 17.7491C41.1271 18.892 40.7595 19.5427 40.0242 19.7011C39.8998 19.7238 38.7291 19.8483 36.512 20.0746C35.1773 20.2217 33.1865 20.3971 30.5396 20.6008C30.698 21.3363 31.1787 21.8965 31.9818 22.2813C32.6379 22.5981 33.3844 22.7565 34.2215 22.7565C35.2282 22.7565 36.2406 22.4849 37.2586 21.9418C37.6884 21.6702 38.1182 21.3986 38.5481 21.127C38.7856 21.2402 39.1815 21.8173 39.7358 22.8584C40.3013 23.8995 40.5841 24.5615 40.5841 24.8444C40.5841 24.9236 40.4993 25.0537 40.3296 25.2348C38.9496 26.7172 36.8061 27.4584 33.8991 27.4584C31.207 27.4584 29.0352 26.672 27.3838 25.099C25.6871 23.5034 24.8387 21.3703 24.8387 18.6997C24.8387 16.0969 25.5966 13.9638 27.1123 12.3003C28.6733 10.5803 30.7432 9.72022 33.3222 9.72022C35.494 9.72022 37.3378 10.5124 38.8535 12.0966C40.3692 13.6809 41.1271 15.5651 41.1271 17.7491ZM35.1886 16.7137C35.1886 16.0121 34.9398 15.3953 34.4421 14.8635C33.9444 14.3316 33.3505 14.0657 32.6605 14.0657C31.9479 14.0657 31.3597 14.3655 30.8959 14.9653C30.4661 15.5198 30.2512 16.1705 30.2512 16.9174C30.2512 17.2229 30.4096 17.3757 30.7263 17.3757C31.5633 17.3757 32.8641 17.2455 34.6287 16.9852C35.002 16.9287 35.1886 16.8381 35.1886 16.7137Z" fill="white"/>
<path d="M60.0453 18.479C60.0453 19.3503 60.0962 20.6461 60.198 22.3661C60.2998 24.0862 60.3507 25.3762 60.3507 26.2363C60.3507 26.6889 60.1528 26.9322 59.7569 26.9662C58.3543 27.068 56.7481 27.1189 54.9383 27.1189C54.7233 27.1189 54.5763 26.7964 54.4971 26.1514C54.4292 25.4951 54.3444 25.1612 54.2426 25.1499C54.1521 25.1952 54.0333 25.2914 53.8863 25.4385C52.6194 26.7172 51.2621 27.3566 49.8142 27.3566C47.6085 27.3566 45.7817 26.4852 44.3338 24.7425C42.9652 23.113 42.2808 21.1666 42.2808 18.9034C42.2808 16.2893 42.9878 14.1845 44.4017 12.5889C45.8722 10.9367 47.8856 10.1106 50.442 10.1106C52.2179 10.1106 53.6205 10.733 54.6498 11.9778C54.6951 12.0344 54.7346 12.0627 54.7686 12.0627C54.8704 12.0627 54.9835 11.7911 55.1079 11.2479C55.2437 10.6934 55.402 10.4162 55.583 10.4162C56.0015 10.4162 56.799 10.535 57.9754 10.7726C59.0952 10.999 59.8983 11.1913 60.3847 11.3498C60.5543 11.4177 60.6392 11.5082 60.6392 11.6213C60.6392 11.6666 60.6222 11.7854 60.5883 11.9778C60.2263 14.0261 60.0453 16.1931 60.0453 18.479ZM54.5819 18.5808C54.5819 17.619 54.2765 16.8268 53.6657 16.2044C53.0662 15.5707 52.2801 15.2539 51.3073 15.2539C50.3345 15.2539 49.5484 15.5651 48.9489 16.1875C48.3494 16.8098 48.0496 17.6076 48.0496 18.5808C48.0496 19.4975 48.3663 20.2839 48.9998 20.9403C49.6332 21.5966 50.4024 21.9248 51.3073 21.9248C52.2688 21.9248 53.0549 21.6136 53.6657 20.9912C54.2765 20.3575 54.5819 19.554 54.5819 18.5808Z" fill="white"/>
<path d="M69.5978 16.7476C69.5978 19.8369 69.6091 22.2077 69.6317 23.8599C69.6317 24.1201 69.6487 24.5671 69.6826 25.2008C69.7166 25.778 69.7335 26.225 69.7335 26.5418C69.7335 26.7795 69.5921 26.9209 69.3093 26.9662C68.8003 27.0567 67.8841 27.102 66.5607 27.102C65.2033 27.102 64.338 27.0567 63.9647 26.9662C63.7159 26.9096 63.5745 26.7568 63.5405 26.5079C63.5405 26.4739 63.5405 26.2306 63.5405 25.778C63.5405 24.7708 63.5519 23.2658 63.5745 21.2628C63.5971 19.2485 63.6084 17.7434 63.6084 16.7476C63.6084 11.9948 63.6141 9.82772 63.6254 10.2464C63.5914 7.74553 63.4501 5.58979 63.2012 3.77919C63.1786 3.65471 63.1673 3.55852 63.1673 3.49062C63.1673 3.24167 63.3143 3.11719 63.6084 3.11719H69.6656C69.9484 3.11719 70.0785 3.23601 70.0559 3.47365L70.0389 3.77919C69.7448 8.66781 69.5978 12.9906 69.5978 16.7476Z" fill="white"/>
<path fill-rule="evenodd" clip-rule="evenodd" d="M76.4394 17.0089L80.6398 2.99531C80.6536 2.94931 80.7021 2.92321 80.7481 2.93701L91.7754 6.24635C91.8214 6.26015 91.8476 6.30864 91.8338 6.35464L90.2797 11.5394L89.7289 11.3741L89.6454 11.6526L90.1962 11.8179L84.656 30.3015C84.6422 30.3475 84.5937 30.3736 84.5477 30.3598L73.5204 27.0505C73.4744 27.0367 73.4482 26.9882 73.462 26.9422L76.0469 18.3185C76.05 18.7937 76.2316 19.1852 76.5918 19.4932C76.9949 19.8378 77.5763 20.0407 78.336 20.1018C78.7786 20.1374 79.1921 20.1186 79.5765 20.0455C79.9615 19.965 80.3367 19.8205 80.7022 19.6121L81.0422 20.0966C81.0953 20.1752 81.1809 20.2192 81.2989 20.2287L82.881 20.356C82.9474 20.3614 83.0081 20.344 83.0633 20.3038C83.1185 20.2636 83.1487 20.2103 83.154 20.1439C83.1569 20.1069 83.1454 20.0651 83.1194 20.0184L82.2473 18.6661C82.6284 18.3549 83.0025 17.991 83.3697 17.5746C83.7369 17.1582 84.1512 16.5523 84.2302 16.306C84.2497 16.2481 84.2424 16.1992 84.2085 16.1593C84.1825 16.1126 84.14 16.0869 84.081 16.0821L82.8972 15.9869C82.8308 15.9815 82.7706 15.9916 82.7166 16.017C82.67 16.0429 82.6376 16.0775 82.6193 16.1206C82.381 16.5028 81.978 17.0613 81.7924 17.247C81.6143 17.4334 81.517 17.537 81.5004 17.558L80.6172 16.2048C81.2001 15.9692 81.6662 15.7094 82.0155 15.4254C82.3653 15.1339 82.6012 14.7813 82.7233 14.3674C82.7622 14.2516 82.7872 14.1236 82.7984 13.9832C82.8343 13.5327 82.694 13.1498 82.3777 12.8345C82.0613 12.5192 81.5897 12.3363 80.9628 12.2858C80.4391 12.2437 79.9673 12.2949 79.5476 12.4395C79.1278 12.5841 78.7804 12.7977 78.5055 13.0804C78.2386 13.3562 78.0541 13.6684 77.9522 14.0169C77.9097 14.177 77.885 14.3014 77.8779 14.39C77.8461 14.7888 77.9715 15.2189 78.2539 15.6801C77.6932 15.9175 77.2333 16.1926 76.8743 16.5057C76.7034 16.6581 76.5584 16.8259 76.4394 17.0089ZM79.5619 8.62479L79.6483 8.35013L80.7449 8.68557L80.6644 8.96464L79.5619 8.62479ZM81.2435 9.12793L81.3248 8.85401L82.4478 9.1909L82.3614 9.46557L81.2435 9.12793ZM82.9259 9.63621L83.0064 9.35715L84.1294 9.69404L84.0431 9.96871L82.9259 9.63621ZM84.6024 10.1401L84.688 9.86029L85.7891 10.2266L85.7086 10.5056L84.6024 10.1401ZM86.284 10.6432L86.3645 10.3642L87.4875 10.7011L87.4019 10.9809L86.284 10.6432ZM87.9656 11.1464L88.0461 10.8673L89.1472 11.2336L89.0615 11.5134L87.9656 11.1464ZM80.7594 14.6999C80.57 14.8408 80.2995 14.9751 79.9478 15.1029C79.7489 14.8045 79.658 14.5481 79.675 14.334C79.6927 14.1124 79.7922 13.9346 79.9736 13.8005C80.1556 13.6591 80.3536 13.597 80.5675 13.6142C80.7371 13.6278 80.8663 13.6828 80.9552 13.7792C81.0514 13.8761 81.0936 13.9984 81.0818 14.1461C81.0642 14.3677 80.9567 14.5523 80.7594 14.6999ZM79.965 18.3821C79.5904 18.6121 79.1892 18.7099 78.7614 18.6755C78.5254 18.6565 78.3278 18.5737 78.1688 18.4271C78.0171 18.2811 77.9501 18.0973 77.9677 17.8758C77.9713 17.8315 77.9833 17.773 78.004 17.7003C78.1207 17.3529 78.4359 17.0773 78.9495 16.8733L79.965 18.3821Z" fill="#D77F15"/>
<path fill-rule="evenodd" clip-rule="evenodd" d="M72.4824 26.9615L75.7488 2.24523C75.7551 2.19762 75.7988 2.16413 75.8464 2.17043L87.8015 3.75265C87.8491 3.75895 87.8826 3.80265 87.8763 3.85027L87.1748 9.15848L86.6484 9.08899L86.6104 9.37728L87.1367 9.44676L84.6099 28.5666C84.6036 28.6142 84.5599 28.6477 84.5123 28.6414L72.5572 27.0592C72.5096 27.0529 72.4761 27.0091 72.4824 26.9615ZM76.173 7.99944L76.2102 7.71086L77.3698 7.86417L77.3326 8.15275L76.173 7.99944ZM77.9146 8.22647L77.9517 7.93789L79.1113 8.0912L79.0741 8.37978L77.9146 8.22647ZM79.651 8.45423L79.6889 8.17079L80.8485 8.3241L80.8106 8.60754L79.651 8.45423ZM81.383 8.68787L81.4202 8.39929L82.5798 8.5526L82.5426 8.84118L81.383 8.68787ZM83.1195 8.91564L83.1567 8.62706L84.3163 8.78037L84.2791 9.06895L83.1195 8.91564ZM84.8567 9.14854L84.899 8.85922L86.0586 9.01253L86.0155 9.29671L84.8567 9.14854ZM75.0163 7.84153L75.0543 7.55324L75.6305 7.62929L75.5925 7.91757L75.0163 7.84153Z" fill="#F28F17"/>
<path d="M78.3365 20.1019C77.5768 20.0407 76.9954 19.8379 76.5923 19.4933C76.1892 19.1486 76.0098 18.6994 76.0539 18.1455C76.065 18.0052 76.097 17.8368 76.1498 17.6403C76.2815 17.1975 76.5232 16.8193 76.8748 16.5057C77.2338 16.1927 77.6937 15.9175 78.2544 15.6802C77.972 15.219 77.8466 14.7889 77.8784 14.3901C77.8855 14.3015 77.9102 14.1771 77.9526 14.017C78.0546 13.6685 78.2391 13.3563 78.506 13.0804C78.7809 12.7978 79.1283 12.5842 79.548 12.4396C79.9678 12.295 80.4396 12.2437 80.9632 12.2859C81.5902 12.3363 82.0618 12.5192 82.3782 12.8346C82.6945 13.1499 82.8348 13.5328 82.7989 13.9833C82.7877 14.1236 82.7627 14.2517 82.7238 14.3675C82.6017 14.7813 82.3658 15.134 82.016 15.4254C81.6667 15.7095 81.2006 15.9693 80.6177 16.2049L81.5009 17.5581C81.5175 17.5371 81.6148 17.4334 81.7929 17.2471C81.9785 17.0613 82.3815 16.5029 82.6198 16.1207C82.6381 16.0776 82.6705 16.043 82.7171 16.017C82.7711 15.9916 82.8313 15.9816 82.8977 15.987L84.0815 16.0822C84.1405 16.087 84.183 16.1127 84.209 16.1594C84.2429 16.1993 84.2501 16.2482 84.2307 16.3061C84.1517 16.5524 83.7374 17.1583 83.3702 17.5747C83.003 17.9911 82.6289 18.3549 82.2478 18.6662L83.1199 20.0185C83.1459 20.0652 83.1574 20.107 83.1545 20.1439C83.1492 20.2104 83.119 20.2637 83.0638 20.3039C83.0086 20.344 82.9479 20.3614 82.8815 20.3561L81.2994 20.2288C81.1814 20.2193 81.0958 20.1752 81.0427 20.0966L80.7027 19.6122C80.3372 19.8206 79.962 19.9651 79.577 20.0456C79.1926 20.1187 78.7791 20.1375 78.3365 20.1019ZM79.9483 15.103C80.3 14.9752 80.5705 14.8409 80.7598 14.7C80.9572 14.5524 81.0647 14.3678 81.0823 14.1462C81.0941 13.9985 81.0519 13.8762 80.9557 13.7793C80.8668 13.6829 80.7376 13.6279 80.568 13.6143C80.3541 13.5971 80.1561 13.6592 79.9741 13.8006C79.7927 13.9347 79.6932 14.1125 79.6755 14.334C79.6585 14.5482 79.7494 14.8045 79.9483 15.103ZM78.7619 18.6756C79.1897 18.71 79.5909 18.6122 79.9655 18.3822L78.95 16.8734C78.4364 17.0773 78.1212 17.353 78.0045 17.7004C77.9838 17.7731 77.9718 17.8315 77.9682 17.8759C77.9506 18.0974 78.0176 18.2812 78.1693 18.4272C78.3283 18.5738 78.5259 18.6566 78.7619 18.6756Z" fill="white"/>
<path d="M116.615 26.5088C116.637 26.8087 116.481 26.9586 116.148 26.9586C115.937 26.9586 115.326 26.8364 114.315 26.5921C113.316 26.3477 112.699 26.1811 112.466 26.0923C110.145 27.003 107.918 27.4584 105.785 27.4584C102.353 27.4584 99.5371 26.3144 97.3378 24.0263C95.1608 21.7716 94.0723 18.9226 94.0723 15.4794C94.0723 11.9585 95.1275 9.03728 97.2379 6.71589C99.4149 4.31676 102.242 3.11719 105.718 3.11719C107.407 3.11719 108.995 3.43929 110.483 4.08351C112.094 4.79436 113.36 5.794 114.282 7.08243C114.471 7.349 114.565 7.53782 114.565 7.64889C114.565 8.00432 114.065 8.80403 113.066 10.048C112.077 11.2809 111.439 11.8974 111.15 11.8974C111.083 11.8974 110.828 11.6697 110.383 11.2143C109.839 10.67 109.284 10.248 108.717 9.94807C107.873 9.49267 106.94 9.26498 105.918 9.26498C104.252 9.26498 102.93 9.88698 101.953 11.131C101.042 12.275 100.587 13.7023 100.587 15.4128C100.587 17.2232 101.059 18.656 102.003 19.7112C102.98 20.7997 104.363 21.344 106.152 21.344C107.284 21.344 108.551 21.0607 109.95 20.4943C109.917 20.1277 109.817 19.1947 109.65 17.6953C109.506 16.5401 109.434 15.6071 109.434 14.8963C109.434 14.6853 109.506 14.5575 109.65 14.5131C109.706 14.4909 109.795 14.4798 109.917 14.4798C110.239 14.4798 110.722 14.5131 111.366 14.5797C112.022 14.6353 112.516 14.663 112.849 14.663C113.205 14.663 113.738 14.6408 114.449 14.5964C115.16 14.5409 115.693 14.5131 116.048 14.5131C116.326 14.5131 116.465 14.6964 116.465 15.0629C116.465 15.596 116.431 16.4013 116.365 17.4787C116.309 18.5561 116.281 19.3613 116.281 19.8945C116.281 21.3273 116.387 23.471 116.598 26.3255L116.615 26.5088Z" fill="white"/>
<path d="M134.858 18.8449C134.858 21.3773 134.081 23.4321 132.526 25.0093C130.982 26.5865 128.949 27.3751 126.428 27.3751C123.984 27.3751 121.974 26.5976 120.397 25.0426C118.819 23.4876 118.031 21.4884 118.031 19.0448C118.031 16.4679 118.786 14.3798 120.297 12.7804C121.807 11.1698 123.851 10.3646 126.428 10.3646C128.938 10.3646 130.971 11.1532 132.526 12.7304C134.081 14.2965 134.858 16.3347 134.858 18.8449ZM129.394 18.8449C129.394 17.9674 129.121 17.1955 128.577 16.529C128.033 15.8515 127.328 15.5127 126.461 15.5127C125.584 15.5127 124.862 15.8571 124.295 16.5457C123.762 17.1899 123.496 17.9563 123.496 18.8449C123.496 19.7445 123.762 20.5165 124.295 21.1607C124.862 21.8493 125.584 22.1937 126.461 22.1937C127.328 22.1937 128.044 21.8493 128.611 21.1607C129.133 20.5165 129.394 19.7445 129.394 18.8449Z" fill="white"/>
</svg>
