<svg width="48" height="48" viewBox="0 0 48 48" fill="none" xmlns="http://www.w3.org/2000/svg">
<path d="M39.9813 9.84998H35.4125V8.25623C35.4125 5.61984 33.2676 3.47498 30.6313 3.47498C28.0273 3.47498 25.7113 4.73064 24.2563 6.668C22.8012 4.73064 20.4852 3.47498 17.8813 3.47498C15.2449 3.47498 13.1 5.61984 13.1 8.25623V9.84998H8.53125C7.65108 9.84998 6.9375 10.5636 6.9375 11.4437V17.8187C6.9375 18.6989 7.65108 19.4125 8.53125 19.4125H39.9813C40.8614 19.4125 41.575 18.6989 41.575 17.8187V11.4437C41.575 10.5636 40.8614 9.84998 39.9813 9.84998ZM30.6313 6.66248C31.51 6.66248 32.225 7.37743 32.225 8.25623V9.84998H26.1241C26.782 7.99496 28.5535 6.66248 30.6313 6.66248ZM25.85 13.0375V16.225H22.6625V13.0375H25.85ZM16.2875 8.25623C16.2875 7.37743 17.0025 6.66248 17.8813 6.66248C19.959 6.66248 21.7305 7.99496 22.3884 9.84998H16.2875V8.25623ZM10.125 13.0375H19.475V16.225H10.125V13.0375ZM38.3875 16.225H29.0375V13.0375H38.3875V16.225Z" fill="#323232"/>
<path d="M8.53125 23.875C7.65108 23.875 6.9375 24.5885 6.9375 25.4687V44.8062C6.9375 45.6864 7.65108 46.4 8.53125 46.4H40.4062C41.2864 46.4 42 45.6864 42 44.8062V25.4687C42 24.5885 41.2864 23.875 40.4062 23.875H8.53125ZM22.875 27.0625H26.0625V43.2125H22.875V27.0625ZM10.125 27.0625H19.6875V43.2125H10.125V27.0625ZM38.8125 43.2125H29.25V27.0625H38.8125V43.2125Z" fill="#323232"/>
</svg>
