<svg width="13" height="12" viewBox="0 0 13 12" fill="none" xmlns="http://www.w3.org/2000/svg">
<g clip-path="url(#clip0)">
<path d="M6.00262 10.3243L8.53231 7.07755C8.54831 7.05472 8.5526 7.04854 8.59697 7.04865L9.1158 7.05019C9.27191 7.05074 9.28472 7.05074 9.76662 7.05074C10.1054 7.05074 10.4313 6.95854 10.7091 6.78405L10.795 6.73001C11.0026 6.59964 11.1218 6.39648 11.1221 6.17281C11.1221 6.17248 11.1221 6.17226 11.1221 6.17203C11.1221 5.9531 11.0079 5.75546 10.8088 5.62972L10.7159 5.57104C10.4368 5.39491 10.1092 5.30182 9.7683 5.30193L9.27603 5.30193C9.13157 5.30193 9.09556 5.30193 8.58195 5.30281C8.55997 5.30281 8.54414 5.2888 8.53469 5.277C8.22195 4.88612 7.99718 4.61039 7.7999 4.36829C7.32085 3.78065 7.0044 3.39241 5.97925 2.03172C5.80053 1.7947 5.54265 1.65871 5.27166 1.65871L4.48729 1.65871C4.44908 1.65871 4.41324 1.67613 4.39092 1.70569C4.36865 1.73503 4.36262 1.77297 4.37468 1.80749L5.56132 5.18038L3.53713 5.24116L3.08719 4.3577C2.99012 4.16712 2.77741 4.04392 2.54534 4.04392L1.75012 4.04392C1.71498 4.04392 1.68169 4.0587 1.65914 4.08429C1.63658 4.10987 1.62672 4.1434 1.63316 4.1766L2.00592 6.17634L1.63316 8.17508C1.63194 8.1817 1.63136 8.18831 1.63136 8.19482C1.63136 8.22118 1.64104 8.24688 1.65914 8.26739C1.68169 8.29298 1.71498 8.30776 1.75012 8.30776L2.54574 8.30776C2.77869 8.30776 2.99168 8.1839 3.0898 7.98956L3.53852 7.03398L5.56498 7.16093L4.37474 10.5452C4.36262 10.5795 4.36871 10.6175 4.39097 10.647C4.4133 10.6765 4.44914 10.694 4.48735 10.694L5.26923 10.694C5.55697 10.694 5.83892 10.551 6.00262 10.3243ZM4.65233 10.4681L5.83909 7.09376C5.85075 7.06067 5.84553 7.02405 5.82512 6.99494C5.80459 6.96593 5.77101 6.94751 5.73431 6.94519L3.47166 6.80336C3.42202 6.80027 3.37569 6.82685 3.35539 6.86997L2.87431 7.8946C2.81684 8.00831 2.68787 8.08188 2.54574 8.08188L1.89179 8.08188L2.2435 6.19608C2.24593 6.18306 2.24593 6.16961 2.2435 6.15659L1.89179 4.2698L2.54534 4.2698C2.687 4.2698 2.8158 4.34292 2.87344 4.45609L3.35696 5.40549C3.37737 5.44564 3.42075 5.47057 3.4676 5.46913L5.72833 5.4013C5.76585 5.4002 5.80059 5.38233 5.82204 5.35299C5.83608 5.3338 5.84333 5.3113 5.84333 5.28847C5.84333 5.27645 5.8413 5.26432 5.83718 5.25263L4.65228 1.88459L5.27166 1.88459C5.5365 1.88459 5.70769 2.05929 5.78615 2.1633C6.81304 3.52619 7.13094 3.91627 7.61083 4.50512C7.61127 4.50565 7.6117 4.50618 7.61213 4.50671C7.80912 4.74836 8.03342 5.02355 8.34564 5.41377C8.40427 5.487 8.49056 5.52891 8.58241 5.52869C9.09562 5.52781 9.13163 5.52781 9.27591 5.52781L9.76842 5.52781C10.0623 5.5277 10.3445 5.60777 10.5844 5.75921L10.6773 5.81788C10.809 5.90104 10.8845 6.03009 10.8845 6.17203C10.8845 6.17192 10.8845 6.17214 10.8845 6.17203C10.8844 6.31873 10.804 6.45361 10.664 6.54163L10.5781 6.59567C10.3393 6.74556 10.0587 6.82486 9.76662 6.82486C9.28536 6.82486 9.2726 6.82486 9.11667 6.82431L8.5976 6.82277C8.47844 6.82244 8.39719 6.86258 8.33793 6.94795L5.80934 10.193C5.68681 10.3626 5.47985 10.4681 5.26923 10.4681L4.65233 10.4681Z" fill="#05BEC0"/>
<path d="M4.65233 10.4681L5.83909 7.09376C5.85075 7.06067 5.84553 7.02405 5.82512 6.99494C5.80459 6.96593 5.77101 6.94751 5.73431 6.94519L3.47166 6.80336C3.42202 6.80027 3.37569 6.82685 3.35539 6.86997L2.87431 7.8946C2.81684 8.00831 2.68787 8.08188 2.54574 8.08188L1.89179 8.08188L2.2435 6.19608C2.24593 6.18306 2.24593 6.16961 2.2435 6.15659L1.89179 4.2698L2.54534 4.2698C2.687 4.2698 2.8158 4.34292 2.87344 4.45609L3.35696 5.40549C3.37737 5.44564 3.42075 5.47057 3.4676 5.46913L5.72833 5.4013C5.76585 5.4002 5.80059 5.38233 5.82204 5.35299C5.83608 5.3338 5.84333 5.3113 5.84333 5.28847C5.84333 5.27645 5.8413 5.26432 5.83718 5.25263L4.65228 1.88459L5.27166 1.88459C5.5365 1.88459 5.70769 2.05929 5.78615 2.1633C6.81304 3.52619 7.13094 3.91627 7.61083 4.50512L7.61213 4.50671C7.80912 4.74836 8.03342 5.02355 8.34564 5.41377C8.40427 5.487 8.49056 5.52891 8.58241 5.52869C9.09562 5.52781 9.13163 5.52781 9.27591 5.52781L9.76842 5.52781C10.0623 5.5277 10.3445 5.60777 10.5844 5.75921L10.6773 5.81788C10.809 5.90104 10.8845 6.03009 10.8845 6.17203C10.8844 6.31873 10.804 6.45361 10.664 6.54163L10.5781 6.59567C10.3393 6.74556 10.0587 6.82486 9.76662 6.82486C9.28536 6.82486 9.2726 6.82486 9.11667 6.82431L8.5976 6.82277C8.47844 6.82244 8.39719 6.86258 8.33793 6.94795L5.80934 10.193C5.68681 10.3626 5.47985 10.4681 5.26923 10.4681L4.65233 10.4681Z" fill="#05BEC0"/>
</g>
<defs>
<clipPath id="clip0">
<rect width="11.2941" height="11.8763" fill="white" transform="translate(12.3096 0.529221) rotate(90)"/>
</clipPath>
</defs>
</svg>
