<svg width="168" height="168" viewBox="0 0 168 168" fill="none" xmlns="http://www.w3.org/2000/svg">
<g filter="url(#filter0_d)">
<ellipse cx="84" cy="80" rx="68" ry="68" transform="rotate(180 84 80)" fill="white"/>
</g>
<path d="M17 80C17 42.9969 46.9969 13 84 13C121.003 13 151 42.9969 151 80C151 117.003 121.003 147 84 147C46.9969 147 17 117.003 17 80Z" stroke="#F28F17" stroke-width="2"/>
<path d="M91.2529 63.6619L91.2609 63.6678L116.553 82.4079C118.423 83.6949 119.601 85.9041 119.601 88.1677V93.9612C119.601 94.3729 119.403 94.7595 119.068 95.0002M91.2529 63.6619L118.835 94.6754M91.2529 63.6619L91.2446 63.6564C91.2264 63.6442 91.2126 63.6351 91.2009 63.627L91.2529 63.6619ZM119.068 95.0002L118.835 94.6754M119.068 95.0002C119.068 95.0002 119.068 95.0002 119.068 95.0001L118.835 94.6754M119.068 95.0002C118.735 95.2398 118.304 95.3058 117.915 95.175M118.835 94.6754C118.605 94.8404 118.309 94.8855 118.041 94.7957L117.915 95.175M117.915 95.175L117.914 95.1748M117.915 95.175L117.914 95.1748M117.914 95.1748L92.0375 86.5202L91.1007 100.74L98.292 103.951L98.3021 103.956L98.302 103.956C99.9611 104.753 101.008 106.475 101.008 108.348V114.243C101.008 114.622 100.841 114.981 100.551 115.224C100.318 115.419 100.027 115.523 99.7282 115.523C99.655 115.523 99.5803 115.517 99.5054 115.504L99.5045 115.504L84.0008 112.754L68.492 115.503C68.4917 115.503 68.4913 115.503 68.491 115.504C68.1115 115.573 67.7306 115.465 67.4432 115.224L67.7002 114.918L67.4432 115.224C67.1532 114.981 66.9856 114.622 66.9856 114.243V108.351C66.9856 106.486 68.026 104.766 69.6562 103.976L76.3061 100.755L75.8578 86.5533L50.087 95.1754L50.0862 95.1757C49.6963 95.3052 49.2666 95.241 48.9329 95.0002C48.9329 95.0002 48.9328 95.0002 48.9328 95.0001L49.1669 94.6758C48.9366 94.5104 48.8008 94.2448 48.8008 93.9616V88.1497L117.914 95.1748ZM88.8863 101.487L89.9915 84.7216L88.8863 101.487ZM88.8863 101.487C88.8623 101.855 89.0694 102.198 89.4054 102.349L88.8863 101.487ZM90.1557 83.7169L90.1572 83.7159C90.4861 83.4966 90.9002 83.44 91.2761 83.5659L117.041 92.1832V88.1677C117.041 86.7432 116.288 85.3311 115.071 84.4953L115.065 84.4913L115.059 84.487L89.7832 65.7572C89.407 65.5069 89.1142 65.1993 88.9185 64.8156C88.7222 64.4306 88.6361 63.9934 88.6376 63.5042V63.5041L88.6496 59.658V59.6578C88.6539 58.5032 88.6539 58.4095 88.6539 54.8433C88.6539 52.7558 88.0582 50.7536 86.9345 49.0514L90.1557 83.7169ZM90.1557 83.7169C89.8272 83.938 89.6186 84.2994 89.5924 84.6952L89.5923 84.6953M90.1557 83.7169L89.5923 84.6953M89.5923 84.6953L88.4872 101.461L88.4872 101.461M89.5923 84.6953L88.4872 101.461M88.4872 101.461C88.4522 101.996 88.7534 102.495 89.242 102.714L89.2423 102.714M88.4872 101.461L89.2423 102.714M89.2423 102.714L97.2206 106.276C97.9534 106.631 98.4482 107.437 98.4482 108.348V112.716L84.2247 110.194C84.077 110.167 83.9248 110.167 83.7771 110.194C83.777 110.194 83.777 110.194 83.7769 110.194L69.5456 112.716V108.351C69.5456 107.441 70.0398 106.634 70.7715 106.28L78.1687 102.697L89.2423 102.714ZM50.9608 92.1836L76.6765 83.5801C76.809 83.5357 76.9464 83.5138 77.0828 83.5138C77.3415 83.5138 77.5966 83.592 77.8139 83.7431L77.5855 84.0715L77.8139 83.7431C78.1466 83.9745 78.3492 84.3491 78.3617 84.7533C78.3617 84.7534 78.3618 84.7535 78.3618 84.7535L78.8903 101.504L78.8903 101.505L78.4905 101.517L50.9608 92.1836ZM50.9608 92.1836V88.1497C50.9608 86.3857 52.1865 85.2215 52.9654 84.6627L50.9608 92.1836ZM79.3477 54.8298V54.83V58.4793C79.3477 59.548 79.3477 59.8145 79.3545 63.617L79.3477 54.8298ZM79.3477 54.8298C79.3468 52.7293 79.9484 50.7153 81.0839 49.0046L81.541 48.3164L81.541 48.3163M79.3477 54.8298L81.541 48.3163M81.541 48.3163C82.1201 47.4443 83.0044 46.9598 83.9673 46.9598M81.541 48.3163L83.9673 46.9598M83.9673 46.9598H83.9673M83.9673 46.9598H83.9673M83.9673 46.9598H83.9674M83.9673 46.9598H83.9674M83.9674 46.9598H83.9674M83.9674 46.9598H83.9674M83.9674 46.9598H83.9674M83.9674 46.9598H83.9674M83.9674 46.9598H83.9675M83.9674 46.9598H83.9675M83.9675 46.9598H83.9675M83.9675 46.9598H83.9675M83.9675 46.9598H83.9675M83.9675 46.9598H83.9675M83.9675 46.9598H83.9676M83.9675 46.9598H83.9676M83.9676 46.9598H83.9676M83.9676 46.9598H83.9676M83.9676 46.9598H83.9676M83.9676 46.9598H83.9676M83.9676 46.9598H83.9676M83.9676 46.9598H83.9676M83.9676 46.9598H83.9677M83.9676 46.9598H83.9677M83.9677 46.9598H83.9677M83.9677 46.9598H83.9677M83.9677 46.9598H83.9677M83.9677 46.9598H83.9677M83.9677 46.9598H83.9678M83.9677 46.9598H83.9678M83.9678 46.9598H83.9678M83.9678 46.9598H83.9678M83.9678 46.9598H83.9678M83.9678 46.9598H83.9678M83.9678 46.9598H83.9679M83.9678 46.9598H83.9679M83.9679 46.9598H83.9679M83.9679 46.9598H83.9679M83.9679 46.9598H83.9679M83.9679 46.9598H83.9679M83.9679 46.9598H83.968M83.9679 46.9598H83.968M83.968 46.9598H83.968M83.968 46.9598H83.968M83.968 46.9598H83.968M83.968 46.9598H83.968M83.968 46.9598H83.9681M83.968 46.9598H83.9681M83.9681 46.9598H83.9681M83.9681 46.9598H83.9681M83.9681 46.9598H83.9681M83.9681 46.9598H83.9681M83.9681 46.9598H83.9682M83.9681 46.9598H83.9682M83.9682 46.9598H83.9682M83.9682 46.9598H83.9682M83.9682 46.9598H83.9682M83.9682 46.9598H83.9682M83.9682 46.9598H83.9683M83.9682 46.9598H83.9683M83.9683 46.9598H83.9683M83.9683 46.9598H83.9683M83.9683 46.9598H83.9683M83.9683 46.9598H83.9683M83.9683 46.9598H83.9684M83.9683 46.9598H83.9684M83.9684 46.9598H83.9684M83.9684 46.9598H83.9684M83.9684 46.9598H83.9684M83.9684 46.9598H83.9684M83.9684 46.9598H83.9685M83.9684 46.9598H83.9685M83.9685 46.9598H83.9685M83.9685 46.9598H83.9685M83.9685 46.9598H83.9685M83.9685 46.9598H83.9685M83.9685 46.9598H83.9686M83.9685 46.9598H83.9686M83.9686 46.9598H83.9686M83.9686 46.9598H83.9686M83.9686 46.9598H83.9686M83.9686 46.9598H83.9686M83.9686 46.9598H83.9687M83.9686 46.9598H83.9687M83.9687 46.9598H83.9687M83.9687 46.9598H83.9687M83.9687 46.9598H83.9687M83.9687 46.9598H83.9687M83.9687 46.9598H83.9688M83.9687 46.9598H83.9688M83.9688 46.9598H83.9688M83.9688 46.9598H83.9688M83.9688 46.9598H83.9688M83.9688 46.9598H83.9688M83.9688 46.9598H83.9688M83.9688 46.9598H83.9688M83.9688 46.9598H83.9689M83.9688 46.9598H83.9689M83.9689 46.9598H83.9689M83.9689 46.9598H83.9689M83.9689 46.9598H83.9689M83.9689 46.9598H83.9689M83.9689 46.9598H83.969M83.9689 46.9598H83.969M83.969 46.9598H83.969M83.969 46.9598H83.969M83.969 46.9598H83.969M83.969 46.9598H83.969M83.969 46.9598H83.9691M83.969 46.9598H83.9691M83.9691 46.9598H83.9691M83.9691 46.9598H83.9691M83.9691 46.9598H83.9691M83.9691 46.9598H83.9691M83.9691 46.9598H83.9692M83.9691 46.9598H83.9692M83.9692 46.9598H83.9692M83.9692 46.9598H83.9692M83.9692 46.9598H83.9692M83.9692 46.9598H83.9692M83.9692 46.9598H83.9692M83.9692 46.9598H83.9692M83.9692 46.9598H83.9693M83.9692 46.9598H83.9693M83.9693 46.9598H83.9693M83.9693 46.9598H83.9693M83.9693 46.9598H83.9693M83.9693 46.9598H83.9693M83.9693 46.9598H83.9694M83.9693 46.9598H83.9694M83.9694 46.9598H83.9694M83.9694 46.9598H83.9694M83.9694 46.9598H83.9694M83.9694 46.9598H83.9694M83.9694 46.9598H83.9695M83.9694 46.9598H83.9695M83.9695 46.9598H83.9695M83.9695 46.9598H83.9695M83.9695 46.9598H83.9695M83.9695 46.9598H83.9695M83.9695 46.9598H83.9696M83.9695 46.9598H83.9696M83.9696 46.9598H83.9696M83.9696 46.9598H83.9696M83.9696 46.9598H83.9696M83.9696 46.9598H83.9696M83.9696 46.9598H83.9697M83.9696 46.9598H83.9697M83.9697 46.9598H83.9697M83.9697 46.9598H83.9697M83.9697 46.9598H83.9697M83.9697 46.9598H83.9697M83.9697 46.9598H83.9697M83.9697 46.9598H83.9697M83.9697 46.9598H83.9698M83.9697 46.9598H83.9698M83.9698 46.9598H83.9698M83.9698 46.9598H83.9698M83.9698 46.9598H83.9698M83.9698 46.9598H83.9698M83.9698 46.9598H83.9699M83.9698 46.9598H83.9699M83.9699 46.9598H83.9699M83.9699 46.9598H83.9699M83.9699 46.9598H83.97M83.9699 46.9598H83.97M83.97 46.9598H83.97M83.97 46.9598H83.97M83.97 46.9598H83.97M83.97 46.9598H83.97M83.97 46.9598H83.9701M83.97 46.9598H83.9701M83.9701 46.9598H83.9701M83.9701 46.9598H83.9701M83.9701 46.9598H83.9701M83.9701 46.9598H83.9701M83.9701 46.9598H83.9702M83.9701 46.9598H83.9702M83.9702 46.9598H83.9702M83.9702 46.9598H83.9702M83.9702 46.9598H83.9702H83.9702ZM86.5134 48.4151L86.9343 49.0511L83.9704 46.9598C84.9657 46.961 85.8938 47.4774 86.5133 48.4149L86.5134 48.4151Z" fill="#05BEC0" stroke="#05BEC0" stroke-width="0.8"/>
<defs>
<filter id="filter0_d" x="0" y="0" width="168" height="168" filterUnits="userSpaceOnUse" color-interpolation-filters="sRGB">
<feFlood flood-opacity="0" result="BackgroundImageFix"/>
<feColorMatrix in="SourceAlpha" type="matrix" values="0 0 0 0 0 0 0 0 0 0 0 0 0 0 0 0 0 0 127 0"/>
<feOffset dy="4"/>
<feGaussianBlur stdDeviation="8"/>
<feColorMatrix type="matrix" values="0 0 0 0 0.0196078 0 0 0 0 0.745098 0 0 0 0 0.752941 0 0 0 0.14 0"/>
<feBlend mode="normal" in2="BackgroundImageFix" result="effect1_dropShadow"/>
<feBlend mode="normal" in="SourceGraphic" in2="effect1_dropShadow" result="shape"/>
</filter>
</defs>
</svg>
