<svg width="168" height="168" viewBox="0 0 168 168" fill="none" xmlns="http://www.w3.org/2000/svg">
<g filter="url(#filter0_d)">
<ellipse cx="84" cy="80" rx="68" ry="68" transform="rotate(180 84 80)" fill="white"/>
</g>
<path d="M17 80C17 42.9969 46.9969 13 84 13C121.003 13 151 42.9969 151 80C151 117.003 121.003 147 84 147C46.9969 147 17 117.003 17 80Z" stroke="#F28F17" stroke-width="2"/>
<path d="M83.75 70C83.4185 70 83.1005 69.8683 82.8661 69.6339C82.6317 69.3995 82.5 69.0815 82.5 68.75V56.25C82.5 53.9294 81.5781 51.7038 79.9372 50.0628C78.2962 48.4219 76.0706 47.5 73.75 47.5C71.4294 47.5 69.2038 48.4219 67.5628 50.0628C65.9219 51.7038 65 53.9294 65 56.25V68.75C65 69.0815 64.8683 69.3995 64.6339 69.6339C64.3995 69.8683 64.0815 70 63.75 70C63.4185 70 63.1005 69.8683 62.8661 69.6339C62.6317 69.3995 62.5 69.0815 62.5 68.75V56.25C62.5 53.2663 63.6853 50.4048 65.795 48.295C67.9048 46.1853 70.7663 45 73.75 45C76.7337 45 79.5952 46.1853 81.705 48.295C83.8147 50.4048 85 53.2663 85 56.25V68.75C85 69.0815 84.8683 69.3995 84.6339 69.6339C84.3995 69.8683 84.0815 70 83.75 70Z" fill="#05BEC0"/>
<path d="M87.8156 82.25H82.1875H81.2755L81.1917 83.1582L78.463 112.75H48.8012L51.2012 64.75H86.806L87.8156 82.25Z" stroke="#05BEC0" stroke-width="2"/>
<path d="M95.3673 64.75L96.9686 82.2611H87.6784L86.8032 64.75H95.3673Z" stroke="#05BEC0" stroke-width="2"/>
<path d="M109.176 112.75L109.094 111.691V111.69L109.091 111.651L106.83 82.25H114.824L117.055 111.24V111.241L117.058 111.28L117.17 112.75H109.176Z" stroke="#05BEC0" stroke-width="2"/>
<path d="M106.824 82.25L109.17 112.75H78.8299L81.176 82.25H106.824Z" stroke="#05BEC0" stroke-width="2"/>
<path d="M95.25 105H92.75C91.093 104.998 89.5043 104.339 88.3326 103.167C87.1609 101.996 86.5019 100.407 86.5 98.75V88.75C86.5 88.4185 86.6317 88.1005 86.8661 87.8661C87.1005 87.6317 87.4185 87.5 87.75 87.5C88.0815 87.5 88.3995 87.6317 88.6339 87.8661C88.8683 88.1005 89 88.4185 89 88.75V98.75C89.0011 99.7442 89.3966 100.697 90.0996 101.4C90.8026 102.103 91.7558 102.499 92.75 102.5H95.25C96.2442 102.499 97.1974 102.103 97.9004 101.4C98.6034 100.697 98.9989 99.7442 99 98.75V88.75C99 88.4185 99.1317 88.1005 99.3661 87.8661C99.6005 87.6317 99.9185 87.5 100.25 87.5C100.582 87.5 100.899 87.6317 101.134 87.8661C101.368 88.1005 101.5 88.4185 101.5 88.75V98.75C101.498 100.407 100.839 101.996 99.6674 103.167C98.4957 104.339 96.907 104.998 95.25 105Z" fill="#05BEC0"/>
<path d="M56.25 70C55.9185 70 55.6005 69.8683 55.3661 69.6339C55.1317 69.3995 55 69.0815 55 68.75V56.25C55 53.2663 56.1853 50.4048 58.295 48.295C60.4048 46.1853 63.2663 45 66.25 45C69.2337 45 72.0952 46.1853 74.205 48.295C76.3147 50.4048 77.5 53.2663 77.5 56.25V68.75C77.5 69.0815 77.3683 69.3995 77.1339 69.6339C76.8995 69.8683 76.5815 70 76.25 70C75.9185 70 75.6005 69.8683 75.3661 69.6339C75.1317 69.3995 75 69.0815 75 68.75V56.25C75 53.9294 74.0781 51.7038 72.4372 50.0628C70.7962 48.4219 68.5706 47.5 66.25 47.5C63.9294 47.5 61.7038 48.4219 60.0628 50.0628C58.4219 51.7038 57.5 53.9294 57.5 56.25V68.75C57.5 69.0815 57.3683 69.3995 57.1339 69.6339C56.8995 69.8683 56.5815 70 56.25 70Z" fill="#05BEC0"/>
<defs>
<filter id="filter0_d" x="0" y="0" width="168" height="168" filterUnits="userSpaceOnUse" color-interpolation-filters="sRGB">
<feFlood flood-opacity="0" result="BackgroundImageFix"/>
<feColorMatrix in="SourceAlpha" type="matrix" values="0 0 0 0 0 0 0 0 0 0 0 0 0 0 0 0 0 0 127 0"/>
<feOffset dy="4"/>
<feGaussianBlur stdDeviation="8"/>
<feColorMatrix type="matrix" values="0 0 0 0 0.0196078 0 0 0 0 0.745098 0 0 0 0 0.752941 0 0 0 0.14 0"/>
<feBlend mode="normal" in2="BackgroundImageFix" result="effect1_dropShadow"/>
<feBlend mode="normal" in="SourceGraphic" in2="effect1_dropShadow" result="shape"/>
</filter>
</defs>
</svg>
