<svg width="164" height="574" viewBox="0 0 164 574" fill="none" xmlns="http://www.w3.org/2000/svg">
<path fill-rule="evenodd" clip-rule="evenodd" d="M75.3992 86.7105C68.6473 79.9586 58.0636 79.5032 48.682 81.2815C46.1936 81.7532 43.6256 82 41 82C18.3563 82 2.78195e-06 63.6437 0 41C0 18.3563 18.3563 0 41 0C63.6437 -2.78195e-06 82 18.3563 82 41C82 43.6249 81.7533 46.1922 81.2819 48.68C79.5042 58.061 79.96 68.6438 86.7114 75.3953L88.6047 77.2886C95.3562 84.04 105.939 84.4958 115.32 82.7181C117.808 82.2467 120.375 82 123 82C145.644 82 164 100.356 164 123C164 145.644 145.644 164 123 164C114.667 164 106.914 161.514 100.443 157.243C100.41 157.221 100.374 157.266 100.401 157.293C100.414 157.306 100.414 157.326 100.401 157.339L86.5647 171.176C79.9856 177.755 79.4915 188.046 81.2554 197.181C81.7441 199.712 82 202.326 82 205C82 207.625 81.7533 210.192 81.2819 212.68C79.5042 222.061 79.96 232.644 86.7114 239.395L88.6047 241.289C95.3561 248.04 105.939 248.496 115.32 246.718C117.808 246.247 120.375 246 123 246C145.644 246 164 264.356 164 287C164 309.644 145.644 328 123 328C120.326 328 117.712 327.744 115.18 327.255C106.046 325.491 95.7549 325.985 89.1762 332.564L75.3324 346.408C75.3209 346.419 75.3022 346.419 75.2907 346.408C75.2655 346.383 75.2247 346.416 75.2444 346.446C79.5145 352.916 82 360.668 82 369C82 371.625 81.7533 374.192 81.2819 376.68C79.5042 386.061 79.96 396.644 86.7114 403.395L88.6047 405.289C95.3561 412.04 105.939 412.496 115.32 410.718C117.808 410.247 120.375 410 123 410C145.644 410 164 428.356 164 451C164 473.644 145.644 492 123 492C120.326 492 117.712 491.744 115.18 491.255C106.046 489.491 95.7549 489.985 89.1762 496.564L75.3324 510.408C75.3209 510.419 75.3022 510.419 75.2907 510.408C75.2655 510.383 75.2247 510.416 75.2444 510.446C79.5145 516.916 82 524.668 82 533C82 555.644 63.6437 574 41 574C18.3563 574 2.78195e-06 555.644 0 533C0 510.356 18.3563 492 41 492C43.688 492 46.3157 492.259 48.8594 492.753C58.2879 494.583 68.9493 494.164 75.7407 487.372L77.3721 485.741C84.1635 478.949 84.583 468.288 82.7525 458.859C82.2587 456.316 82 453.688 82 451C82 448.374 82.2468 445.806 82.7185 443.318C84.4968 433.936 84.0414 423.353 77.2895 416.601L75.3992 414.71C68.6473 407.959 58.0636 407.503 48.682 409.281C46.1936 409.753 43.6256 410 41 410C18.3563 410 2.78195e-06 391.644 0 369C0 346.356 18.3563 328 41 328C43.688 328 46.3157 328.259 48.8594 328.753C58.2879 330.583 68.9493 330.164 75.7407 323.372L77.3721 321.741C84.1635 314.949 84.583 304.288 82.7525 294.859C82.2587 292.316 82 289.688 82 287C82 284.374 82.2468 281.806 82.7185 279.318C84.4968 269.936 84.0414 259.353 77.2895 252.601L75.3992 250.71C68.6473 243.959 58.0636 243.503 48.682 245.282C46.1936 245.753 43.6256 246 41 246C18.3563 246 2.78195e-06 227.644 0 205C0 182.356 18.3563 164 41 164C43.6881 164 46.3157 164.259 48.8594 164.753C58.2879 166.583 68.9493 166.164 75.7408 159.372L77.3721 157.741C84.1635 150.949 84.583 140.288 82.7525 130.859C82.2587 128.316 82 125.688 82 123C82 120.374 82.2468 117.806 82.7185 115.318C84.4968 105.936 84.0414 95.3527 77.2895 88.6008L75.3992 86.7105Z" fill="#F2F2F2"/>
<circle cx="41" cy="41" r="30" transform="rotate(-90 41 41)" fill="#F28F17"/>
<path d="M36.1377 36.9767L45.5127 36.9767C45.6122 36.9767 45.7075 36.9372 45.7779 36.8669C45.8482 36.7965 45.8877 36.7011 45.8877 36.6016C45.8877 36.5022 45.8482 36.4068 45.7779 36.3364C45.7075 36.2661 45.6122 36.2266 45.5127 36.2266L36.1377 36.2266C36.0382 36.2266 35.9429 36.2661 35.8725 36.3364C35.8022 36.4068 35.7627 36.5022 35.7627 36.6016C35.7627 36.7011 35.8022 36.7965 35.8725 36.8669C35.9429 36.9372 36.0382 36.9767 36.1377 36.9767Z" fill="white"/>
<path d="M32.351 36.5321L31.5178 37.3288L31.1799 36.9908C31.1452 36.9552 31.1038 36.9268 31.0581 36.9073C31.0124 36.8879 30.9633 36.8777 30.9137 36.8773C30.864 36.877 30.8147 36.8865 30.7688 36.9054C30.7228 36.9243 30.6811 36.9521 30.646 36.9872C30.6108 37.0223 30.583 37.0641 30.5642 37.1101C30.5453 37.156 30.5358 37.2053 30.5361 37.255C30.5365 37.3047 30.5467 37.3538 30.5662 37.3995C30.5856 37.4452 30.614 37.4866 30.6496 37.5212L31.2468 38.1186C31.3161 38.1879 31.4098 38.2273 31.5078 38.2284C31.6057 38.2295 31.7003 38.1922 31.7711 38.1245L32.8693 37.0742C32.9052 37.0403 32.9341 36.9996 32.9542 36.9544C32.9744 36.9092 32.9854 36.8606 32.9866 36.8111C32.9879 36.7617 32.9794 36.7125 32.9616 36.6664C32.9437 36.6203 32.917 36.5781 32.8828 36.5424C32.8486 36.5066 32.8077 36.478 32.7625 36.4581C32.7172 36.4383 32.6685 36.4275 32.619 36.4266C32.5696 36.4256 32.5205 36.4345 32.4745 36.4526C32.4285 36.4707 32.3865 36.4977 32.351 36.5321Z" fill="white"/>
<path d="M31.7629 34.7827C31.2595 34.7827 30.7674 34.932 30.3489 35.2117C29.9304 35.4913 29.6041 35.8888 29.4115 36.3539C29.2189 36.8189 29.1685 37.3307 29.2667 37.8244C29.3649 38.3181 29.6073 38.7716 29.9632 39.1275C30.3192 39.4835 30.7727 39.7259 31.2664 39.8241C31.7601 39.9223 32.2719 39.8719 32.7369 39.6792C33.202 39.4866 33.5995 39.1603 33.8791 38.7418C34.1588 38.3232 34.308 37.8312 34.308 37.3278C34.3073 36.653 34.0389 36.0061 33.5617 35.529C33.0846 35.0518 32.4377 34.7835 31.7629 34.7827ZM31.7629 39.1229C31.4079 39.1229 31.0608 39.0176 30.7656 38.8204C30.4704 38.6231 30.2403 38.3428 30.1044 38.0147C29.9686 37.6867 29.933 37.3258 30.0023 36.9776C30.0715 36.6293 30.2425 36.3095 30.4936 36.0584C30.7446 35.8074 31.0645 35.6364 31.4127 35.5671C31.7609 35.4979 32.1218 35.5334 32.4499 35.6693C32.7779 35.8052 33.0582 36.0353 33.2555 36.3305C33.4527 36.6257 33.558 36.9727 33.558 37.3278C33.5576 37.8038 33.3683 38.2601 33.0317 38.5967C32.6952 38.9333 32.2389 39.1226 31.7629 39.1231L31.7629 39.1229Z" fill="white"/>
<path d="M36.1377 43.2267L45.5127 43.2267C45.6122 43.2267 45.7075 43.1872 45.7779 43.1169C45.8482 43.0465 45.8877 42.9511 45.8877 42.8516C45.8877 42.7522 45.8482 42.6568 45.7779 42.5864C45.7075 42.5161 45.6122 42.4766 45.5127 42.4766L36.1377 42.4766C36.0382 42.4766 35.9429 42.5161 35.8725 42.5864C35.8022 42.6568 35.7627 42.7522 35.7627 42.8516C35.7627 42.9511 35.8022 43.0465 35.8725 43.1169C35.9429 43.1872 36.0382 43.2267 36.1377 43.2267Z" fill="white"/>
<path d="M32.351 42.7821L31.5178 43.5788L31.1799 43.2408C31.1452 43.2052 31.1038 43.1768 31.0581 43.1573C31.0124 43.1379 30.9633 43.1277 30.9137 43.1273C30.864 43.127 30.8147 43.1365 30.7688 43.1554C30.7228 43.1743 30.6811 43.2021 30.646 43.2372C30.6108 43.2723 30.583 43.3141 30.5642 43.3601C30.5453 43.406 30.5358 43.4553 30.5361 43.505C30.5365 43.5547 30.5467 43.6038 30.5662 43.6495C30.5856 43.6952 30.614 43.7366 30.6496 43.7712L31.2468 44.3686C31.3161 44.4379 31.4098 44.4773 31.5078 44.4784C31.6057 44.4795 31.7003 44.4422 31.7711 44.3745L32.8693 43.3243C32.9052 43.2903 32.9341 43.2496 32.9542 43.2044C32.9744 43.1593 32.9854 43.1106 32.9866 43.0611C32.9879 43.0117 32.9794 42.9625 32.9616 42.9164C32.9437 42.8703 32.917 42.8281 32.8828 42.7924C32.8486 42.7566 32.8077 42.728 32.7625 42.7081C32.7172 42.6883 32.6685 42.6775 32.619 42.6766C32.5696 42.6756 32.5205 42.6845 32.4745 42.7026C32.4285 42.7207 32.3865 42.7477 32.351 42.7821Z" fill="white"/>
<path d="M31.7629 41.0327C31.2595 41.0327 30.7674 41.182 30.3489 41.4617C29.9304 41.7413 29.6041 42.1388 29.4115 42.6039C29.2189 43.0689 29.1685 43.5807 29.2667 44.0744C29.3649 44.5681 29.6073 45.0216 29.9632 45.3775C30.3192 45.7335 30.7727 45.9759 31.2664 46.0741C31.7601 46.1723 32.2719 46.1219 32.7369 45.9292C33.202 45.7366 33.5995 45.4103 33.8791 44.9918C34.1588 44.5732 34.308 44.0812 34.308 43.5778C34.3073 42.903 34.0389 42.2561 33.5617 41.779C33.0846 41.3018 32.4377 41.0335 31.7629 41.0327ZM31.7629 45.3729C31.4079 45.3729 31.0608 45.2676 30.7656 45.0704C30.4704 44.8731 30.2403 44.5928 30.1044 44.2647C29.9686 43.9367 29.933 43.5758 30.0023 43.2276C30.0715 42.8793 30.2425 42.5595 30.4936 42.3084C30.7446 42.0574 31.0645 41.8864 31.4127 41.8171C31.7609 41.7479 32.1218 41.7834 32.4499 41.9193C32.7779 42.0552 33.0582 42.2853 33.2555 42.5805C33.4527 42.8757 33.558 43.2227 33.558 43.5778C33.5576 44.0538 33.3683 44.5101 33.0317 44.8467C32.6952 45.1833 32.2389 45.3726 31.7629 45.3732L31.7629 45.3729Z" fill="white"/>
<path d="M32.351 49.0321L31.5178 49.8288L31.1799 49.4908C31.1452 49.4552 31.1038 49.4268 31.0581 49.4073C31.0124 49.3879 30.9633 49.3777 30.9137 49.3773C30.864 49.377 30.8147 49.3865 30.7688 49.4054C30.7228 49.4243 30.6811 49.4521 30.646 49.4872C30.6108 49.5223 30.583 49.5641 30.5642 49.6101C30.5453 49.656 30.5358 49.7053 30.5361 49.755C30.5365 49.8047 30.5467 49.8538 30.5662 49.8995C30.5856 49.9452 30.614 49.9866 30.6496 50.0212L31.2468 50.6186C31.3161 50.6879 31.4098 50.7273 31.5078 50.7284C31.6057 50.7295 31.7003 50.6922 31.7711 50.6245L32.8693 49.5743C32.9052 49.5403 32.9341 49.4996 32.9542 49.4544C32.9744 49.4093 32.9854 49.3606 32.9866 49.3111C32.9879 49.2617 32.9794 49.2125 32.9616 49.1664C32.9437 49.1203 32.917 49.0781 32.8828 49.0424C32.8486 49.0066 32.8077 48.978 32.7625 48.9581C32.7172 48.9383 32.6685 48.9275 32.619 48.9266C32.5696 48.9256 32.5205 48.9345 32.4745 48.9526C32.4285 48.9707 32.3865 48.9977 32.351 49.0321Z" fill="white"/>
<path d="M31.7629 47.2827C31.2595 47.2827 30.7674 47.432 30.3489 47.7117C29.9304 47.9913 29.6041 48.3888 29.4115 48.8539C29.2189 49.3189 29.1685 49.8307 29.2667 50.3244C29.3649 50.8181 29.6073 51.2716 29.9632 51.6275C30.3192 51.9835 30.7727 52.2259 31.2664 52.3241C31.7601 52.4223 32.2719 52.3719 32.7369 52.1792C33.202 51.9866 33.5995 51.6603 33.8791 51.2418C34.1588 50.8232 34.308 50.3312 34.308 49.8278C34.3073 49.153 34.0389 48.5061 33.5617 48.029C33.0846 47.5518 32.4377 47.2835 31.7629 47.2827ZM31.7629 51.6229C31.4079 51.6229 31.0608 51.5176 30.7656 51.3204C30.4704 51.1231 30.2403 50.8428 30.1044 50.5147C29.9686 50.1867 29.933 49.8258 30.0023 49.4776C30.0715 49.1293 30.2425 48.8095 30.4936 48.5584C30.7446 48.3074 31.0645 48.1364 31.4127 48.0671C31.7609 47.9979 32.1218 48.0334 32.4499 48.1693C32.7779 48.3052 33.0582 48.5353 33.2555 48.8305C33.4527 49.1257 33.558 49.4727 33.558 49.8278C33.5576 50.3038 33.3683 50.7601 33.0317 51.0967C32.6952 51.4333 32.2389 51.6226 31.7629 51.6232L31.7629 51.6229Z" fill="white"/>
<path d="M36.1377 38.2267L41.1377 38.2267C41.2372 38.2267 41.3325 38.1872 41.4029 38.1169C41.4732 38.0465 41.5127 37.9511 41.5127 37.8516C41.5127 37.7522 41.4732 37.6568 41.4029 37.5864C41.3325 37.5161 41.2372 37.4766 41.1377 37.4766L36.1377 37.4766C36.0382 37.4766 35.9429 37.5161 35.8725 37.5864C35.8022 37.6568 35.7627 37.7522 35.7627 37.8516C35.7627 37.9511 35.8022 38.0465 35.8725 38.1169C35.9429 38.1872 36.0382 38.2267 36.1377 38.2267Z" fill="white"/>
<path d="M36.1377 44.4767L41.1377 44.4767C41.2372 44.4767 41.3325 44.4372 41.4029 44.3669C41.4732 44.2965 41.5127 44.2011 41.5127 44.1016C41.5127 44.0022 41.4732 43.9068 41.4029 43.8364C41.3325 43.7661 41.2372 43.7266 41.1377 43.7266L36.1377 43.7266C36.0382 43.7266 35.9429 43.7661 35.8725 43.8364C35.8022 43.9068 35.7627 44.0022 35.7627 44.1016C35.7627 44.2011 35.8022 44.2965 35.8725 44.3669C35.9429 44.4372 36.0382 44.4767 36.1377 44.4767Z" fill="white"/>
<path d="M28.6875 30.8579C28.588 30.8579 28.4927 30.8974 28.4223 30.9678C28.352 31.0381 28.3125 31.1335 28.3125 31.233L28.3125 31.6268C28.3125 31.7263 28.352 31.8217 28.4223 31.8921C28.4927 31.9624 28.588 32.0019 28.6875 32.0019C28.787 32.0019 28.8823 31.9624 28.9527 31.8921C29.023 31.8217 29.0625 31.7263 29.0625 31.6268L29.0625 31.233C29.0625 31.1335 29.023 31.0381 28.9527 30.9678C28.8823 30.8974 28.787 30.8579 28.6875 30.8579Z" fill="white"/>
<path d="M28.6875 32.4385C28.588 32.4385 28.4927 32.478 28.4223 32.5483C28.352 32.6187 28.3125 32.7141 28.3125 32.8136L28.3125 36.4394C28.3125 36.5388 28.352 36.6342 28.4223 36.7046C28.4927 36.7749 28.588 36.8144 28.6875 36.8144C28.787 36.8144 28.8823 36.7749 28.9527 36.7046C29.023 36.6342 29.0625 36.5388 29.0625 36.4394L29.0625 32.8136C29.0625 32.7643 29.0528 32.7155 29.034 32.67C29.0151 32.6245 28.9875 32.5832 28.9527 32.5483C28.9178 32.5135 28.8765 32.4859 28.831 32.467C28.7855 32.4482 28.7367 32.4385 28.6875 32.4385Z" fill="white"/>
<path d="M53.5794 41.7081C53.3286 41.6554 53.0697 41.6531 52.8179 41.7011C52.5661 41.7492 52.3264 41.8467 52.1125 41.9881L48.25 44.5247L48.25 30.4534C48.25 29.2127 47.2304 28.2268 45.9898 28.2268L43.625 28.2268L43.625 27.0627C43.625 26.9633 43.5855 26.8679 43.5152 26.7976C43.4448 26.7273 43.3495 26.6877 43.25 26.6877C43.1505 26.6877 43.0552 26.7273 42.9848 26.7976C42.9145 26.8679 42.875 26.9633 42.875 27.0627L42.875 28.2268L39.6875 28.2268L39.6875 27.0627C39.6875 26.9633 39.648 26.8679 39.5777 26.7976C39.5073 26.7273 39.412 26.6877 39.3125 26.6877C39.213 26.6877 39.1177 26.7273 39.0473 26.7976C38.977 26.8679 38.9375 26.9633 38.9375 27.0627L38.9375 28.2268L35.8125 28.2268L35.8125 27.0627C35.8125 26.9633 35.773 26.8679 35.7027 26.7976C35.6323 26.7273 35.537 26.6877 35.4375 26.6877C35.338 26.6877 35.2427 26.7273 35.1723 26.7976C35.102 26.8679 35.0625 26.9633 35.0625 27.0627L35.0625 28.2268L31.875 28.2268L31.875 27.0627C31.875 26.9633 31.8355 26.8679 31.7652 26.7976C31.6948 26.7273 31.5995 26.6877 31.5 26.6877C31.4005 26.6877 31.3052 26.7273 31.2348 26.7976C31.1645 26.8679 31.125 26.9633 31.125 27.0627L31.125 28.2268L29.1148 28.2268C28.8211 28.2247 28.53 28.2808 28.2582 28.3918C27.9864 28.5028 27.7392 28.6665 27.531 28.8735C27.3228 29.0805 27.1576 29.3267 27.045 29.5978C26.9324 29.869 26.8746 30.1598 26.875 30.4534L26.875 53.0159C26.875 54.2566 27.8741 55.2893 29.1148 55.2893L45.9898 55.2893C47.2304 55.2893 48.25 54.2566 48.25 53.0159L48.25 49.1931L54.2554 45.2493C54.5779 45.0374 54.8304 44.7346 54.9808 44.3793C55.1313 44.0239 55.1729 43.6319 55.1006 43.2528C55.0282 42.8738 54.8451 42.5247 54.5743 42.2497C54.3036 41.9747 53.9573 41.7862 53.5794 41.7081ZM43.2288 30.5752C43.36 30.5752 43.4882 30.6141 43.5972 30.6869C43.7063 30.7598 43.7913 30.8634 43.8415 30.9845C43.8917 31.1057 43.9048 31.239 43.8792 31.3677C43.8536 31.4963 43.7905 31.6145 43.6977 31.7072C43.605 31.7999 43.4868 31.8631 43.3582 31.8887C43.2296 31.9143 43.0962 31.9011 42.975 31.851C42.8539 31.8008 42.7503 31.7158 42.6774 31.6067C42.6046 31.4977 42.5657 31.3695 42.5657 31.2383C42.5659 31.0625 42.6358 30.8939 42.7601 30.7696C42.8844 30.6453 43.053 30.5754 43.2288 30.5752ZM39.3211 30.5752C39.4523 30.5752 39.5805 30.6141 39.6895 30.687C39.7986 30.7598 39.8836 30.8634 39.9337 30.9846C39.9839 31.1058 39.997 31.2391 39.9714 31.3677C39.9458 31.4963 39.8827 31.6145 39.7899 31.7072C39.6972 31.8 39.579 31.8631 39.4504 31.8887C39.3218 31.9143 39.1885 31.9011 39.0673 31.8509C38.9461 31.8008 38.8426 31.7158 38.7697 31.6067C38.6968 31.4977 38.6579 31.3695 38.6579 31.2383C38.6581 31.0625 38.7281 30.8939 38.8524 30.7696C38.9767 30.6453 39.1453 30.5754 39.3211 30.5752ZM35.4133 30.5752C35.5445 30.5752 35.6727 30.6141 35.7817 30.687C35.8907 30.7599 35.9757 30.8635 36.0258 30.9847C36.076 31.1058 36.0891 31.2392 36.0635 31.3678C36.0379 31.4964 35.9747 31.6146 35.882 31.7073C35.7892 31.8 35.6711 31.8631 35.5424 31.8887C35.4138 31.9143 35.2805 31.9011 35.1593 31.8509C35.0382 31.8007 34.9346 31.7157 34.8617 31.6067C34.7889 31.4977 34.75 31.3695 34.75 31.2383C34.7502 31.0625 34.8202 30.8939 34.9445 30.7696C35.0689 30.6452 35.2375 30.5753 35.4133 30.5752ZM31.5056 30.5752C31.6368 30.5752 31.765 30.6141 31.874 30.687C31.9831 30.7598 32.068 30.8634 32.1182 30.9846C32.1684 31.1058 32.1815 31.2391 32.1559 31.3677C32.1303 31.4963 32.0672 31.6145 31.9744 31.7072C31.8817 31.8 31.7635 31.8631 31.6349 31.8887C31.5063 31.9143 31.373 31.9011 31.2518 31.8509C31.1306 31.8008 31.0271 31.7158 30.9542 31.6067C30.8813 31.4977 30.8424 31.3695 30.8424 31.2383C30.8426 31.0625 30.9126 30.8939 31.0369 30.7696C31.1612 30.6453 31.3298 30.5754 31.5056 30.5752ZM47.5 53.0159C47.4981 53.4171 47.3388 53.8015 47.0564 54.0864C46.7739 54.3713 46.3909 54.534 45.9898 54.5393L29.1148 54.5393C28.2875 54.5393 27.625 53.843 27.625 53.0159L27.625 30.4534C27.6245 30.2582 27.6628 30.0649 27.7377 29.8847C27.8126 29.7045 27.9225 29.5409 28.0611 29.4036C28.1997 29.2662 28.3642 29.1577 28.5451 29.0845C28.726 29.0112 28.9196 28.9746 29.1148 28.9768L31.125 28.9768L31.125 29.8761C30.5625 30.0408 30.0897 30.5889 30.0897 31.2386C30.0897 31.4241 30.1262 31.6078 30.1972 31.7792C30.2682 31.9506 30.3723 32.1064 30.5035 32.2376C30.6347 32.3688 30.7904 32.4728 30.9618 32.5438C31.1333 32.6148 31.317 32.6514 31.5025 32.6514C31.688 32.6514 31.8718 32.6148 32.0432 32.5438C32.2146 32.4728 32.3703 32.3688 32.5015 32.2376C32.6327 32.1064 32.7368 31.9506 32.8078 31.7792C32.8788 31.6078 32.9153 31.4241 32.9153 31.2386C32.9198 30.9277 32.8196 30.6244 32.6309 30.3773C32.4423 30.1302 32.176 29.9537 31.875 29.8761L31.875 28.9768L35.0625 28.9768L35.0625 29.8761C34.7604 29.9532 34.4929 30.1293 34.3026 30.3762C34.1122 30.6232 34.0101 30.9268 34.0125 31.2386C34.0125 31.6137 34.1615 31.9736 34.4268 32.2388C34.6921 32.5041 35.0519 32.6532 35.4271 32.6532C35.8023 32.6532 36.1621 32.5041 36.4274 32.2388C36.6927 31.9736 36.8418 31.6137 36.8418 31.2386C36.8364 30.9318 36.7339 30.6346 36.549 30.3897C36.364 30.1449 36.1062 29.965 35.8125 29.8761L35.8125 28.9768L38.9375 28.9768L38.9375 29.8761C38.375 30.0408 37.9037 30.5889 37.9037 31.2386C37.9037 31.6132 38.0525 31.9724 38.3174 32.2373C38.5823 32.5022 38.9416 32.6511 39.3162 32.6511C39.6908 32.6511 40.0501 32.5022 40.315 32.2373C40.5799 31.9724 40.7287 31.6132 40.7287 31.2386C40.7329 30.9276 40.6326 30.6243 40.4438 30.3772C40.255 30.1301 39.9886 29.9536 39.6875 29.8761L39.6875 28.9768L42.875 28.9768L42.875 29.8761C42.573 29.9532 42.3056 30.1293 42.1155 30.3763C41.9254 30.6233 41.8236 30.9269 41.8263 31.2386C41.8263 31.6137 41.9753 31.9735 42.2406 32.2387C42.5059 32.504 42.8656 32.653 43.2408 32.653C43.6159 32.653 43.9757 32.504 44.2409 32.2387C44.5062 31.9735 44.6552 31.6137 44.6552 31.2386C44.6552 30.5892 44.1875 30.0411 43.625 29.8761L43.625 28.9768L45.9898 28.9768C46.8168 28.9768 47.5 29.6263 47.5 30.4534L47.5 45.0172L46.0914 45.9422C46.0482 45.9706 46.0113 46.0077 45.983 46.0511C45.9548 46.0945 45.9359 46.1433 45.9274 46.1944C45.919 46.2454 45.9212 46.2977 45.9339 46.3479C45.9467 46.3981 45.9697 46.4451 46.0015 46.4859C46.0594 46.5602 46.1432 46.61 46.2361 46.6254C46.3291 46.6408 46.4244 46.6206 46.5031 46.5689L52.0793 42.9071L52.5328 43.5974L43.0855 49.8018L42.6318 49.1114L44.4068 47.9459C44.448 47.9189 44.4834 47.884 44.5111 47.8433C44.5388 47.8026 44.5582 47.7568 44.5682 47.7086C44.5782 47.6603 44.5786 47.6106 44.5694 47.5622C44.5601 47.5139 44.5415 47.4678 44.5144 47.4266C44.4874 47.3855 44.4525 47.35 44.4118 47.3223C44.3711 47.2946 44.3253 47.2752 44.2771 47.2653C44.2289 47.2553 44.1791 47.2549 44.1308 47.2641C44.0824 47.2733 44.0363 47.292 43.9951 47.319L41.9083 48.6893C41.9045 48.6919 41.901 48.6951 41.8971 48.6977C41.8876 48.7045 41.8784 48.7112 41.8693 48.7189C41.8663 48.7214 41.8636 48.7242 41.8608 48.7269L36.1375 48.7269C36.038 48.7269 35.9427 48.7664 35.8723 48.8367C35.802 48.907 35.7625 49.0024 35.7625 49.1019C35.7625 49.2013 35.802 49.2967 35.8723 49.367C35.9427 49.4374 36.038 49.4769 36.1375 49.4769L41.4381 49.4769L41.1726 49.9786C41.161 49.9776 41.1494 49.9769 41.1375 49.9769L36.1375 49.9769C36.038 49.9769 35.9427 50.0164 35.8723 50.0867C35.802 50.157 35.7625 50.2524 35.7625 50.3519C35.7625 50.4513 35.802 50.5467 35.8723 50.617C35.9427 50.6874 36.038 50.7269 36.1375 50.7269L40.7766 50.7269L40.343 51.5459C40.3128 51.6031 40.2978 51.667 40.2996 51.7317C40.3014 51.7963 40.3198 51.8593 40.3531 51.9147C40.3865 51.9701 40.4335 52.0159 40.4898 52.0478C40.5461 52.0796 40.6096 52.0963 40.6743 52.0964C40.6776 52.0964 40.6809 52.0964 40.6841 52.0964L43.8533 52.0133C43.861 52.0133 43.8686 52.0118 43.8762 52.0112C43.8838 52.0106 43.8925 52.0101 43.9006 52.0089C43.9106 52.0074 43.9202 52.0048 43.9298 52.0026C43.9369 52.0009 43.9441 51.9997 43.9513 51.9976C43.9676 51.9927 43.9836 51.9867 43.9992 51.9796C44.003 51.9779 44.0066 51.9755 44.0103 51.9733C44.0225 51.9674 44.0343 51.9609 44.0457 51.9537C44.0469 51.9529 44.0483 51.9524 44.0494 51.9516L47.5 49.6856L47.5 53.0159ZM43.1601 51.2811L41.3059 51.3296L42.1473 49.7397L43.1601 51.2811ZM43.951 51.119L43.9222 51.0752L43.4972 50.4287L52.9445 44.2247L53.3981 44.915L43.951 51.119ZM54.0143 44.4865L52.7171 42.5122C52.8769 42.445 53.0493 42.4129 53.2226 42.4181C53.396 42.4233 53.5661 42.4657 53.7216 42.5424C53.8117 42.5858 53.8953 42.6415 53.9699 42.708C54.0963 42.8178 54.1984 42.9527 54.2698 43.1041C54.3411 43.2555 54.3801 43.4201 54.3843 43.5875C54.3885 43.7548 54.3577 43.9212 54.294 44.076C54.2303 44.2307 54.1351 44.3706 54.0143 44.4865Z" fill="white"/>
<circle cx="123" cy="123" r="30" transform="rotate(-90 123 123)" fill="#05BEC0"/>
<path d="M137.685 122.272L137.685 123.176C137.685 122.927 137.778 122.687 137.944 122.501C137.871 122.411 137.783 122.334 137.685 122.272Z" fill="white"/>
<path d="M107.786 123.176C107.496 123.177 107.26 122.944 107.259 122.654C107.257 122.365 107.491 122.129 107.781 122.127L107.786 122.127C108.075 122.127 108.31 122.362 108.31 122.652C108.31 122.941 108.075 123.176 107.786 123.176Z" fill="white"/>
<path d="M122.462 119.507C121.159 119.507 119.839 121.771 119.45 122.985C119.424 123.096 119.379 123.203 119.319 123.3C119.292 123.306 119.264 123.308 119.236 123.305C119.082 123.291 118.954 123.183 118.914 123.034C118.825 122.669 118.783 122.294 118.789 121.918L118.789 110.859C118.79 110.229 118.466 109.642 117.931 109.307C117.397 108.973 116.727 108.937 116.16 109.213C116.122 108.231 115.315 107.454 114.331 107.454C113.348 107.454 112.54 108.231 112.503 109.213C111.935 108.938 111.267 108.975 110.733 109.309C110.199 109.644 109.875 110.229 109.875 110.859L109.875 112.881C109.573 112.733 109.236 112.672 108.901 112.703C107.949 112.827 107.241 113.643 107.253 114.602L107.253 120.555C107.253 120.845 107.487 121.079 107.777 121.079C108.067 121.079 108.302 120.845 108.302 120.555L108.302 114.602C108.287 114.181 108.589 113.814 109.006 113.746C109.228 113.723 109.449 113.794 109.615 113.944C109.78 114.093 109.875 114.305 109.875 114.528L109.875 118.983C109.875 119.272 110.11 119.507 110.4 119.507C110.689 119.507 110.924 119.272 110.924 118.983L110.924 110.859C110.924 110.425 111.276 110.073 111.711 110.073C112.146 110.073 112.498 110.425 112.498 110.859L112.498 118.983C112.498 119.272 112.733 119.507 113.023 119.507C113.312 119.507 113.547 119.272 113.547 118.983L113.547 109.287C113.547 108.852 113.899 108.501 114.334 108.501C114.769 108.501 115.121 108.852 115.121 109.287L115.121 118.983C115.121 119.272 115.356 119.507 115.646 119.507C115.935 119.507 116.17 119.272 116.17 118.983L116.17 110.859C116.17 110.425 116.522 110.073 116.957 110.073C117.392 110.073 117.744 110.425 117.744 110.859L117.744 121.918C117.737 122.383 117.79 122.847 117.901 123.299C118.054 123.884 118.563 124.306 119.167 124.347C119.814 124.375 120.376 123.905 120.463 123.263C120.661 122.64 121.813 120.555 122.462 120.555C122.662 120.551 122.852 120.642 122.973 120.802C123.03 120.912 122.879 121.247 122.806 121.41C122.612 121.843 122.457 122.249 122.319 122.596C121.514 124.654 121.296 125.224 121.127 125.709C120.71 127.031 119.963 128.226 118.957 129.182C118.517 129.579 118.266 130.143 118.265 130.736L118.265 131.562L110.396 131.562L110.396 130.84C110.394 130.519 110.295 130.207 110.11 129.944C108.169 127.14 108.294 124.824 108.297 124.785C108.318 124.498 108.104 124.248 107.817 124.224C107.677 124.212 107.539 124.256 107.433 124.347C107.327 124.438 107.263 124.568 107.254 124.707C107.248 124.817 107.08 127.401 109.251 130.54C109.314 130.628 109.348 130.732 109.35 130.84L109.35 131.707C109.025 131.892 108.824 132.236 108.822 132.61L108.822 133.804C108.499 133.99 108.299 134.334 108.298 134.707L108.298 138.375C108.298 138.665 108.532 138.899 108.822 138.899L119.839 138.899C120.128 138.899 120.363 138.665 120.363 138.375L120.363 134.707C120.362 134.334 120.162 133.99 119.839 133.804L119.839 132.61C119.836 132.238 119.637 131.895 119.314 131.709L119.314 130.736C119.314 130.44 119.44 130.158 119.659 129.96C120.545 129.156 121.248 128.174 121.722 127.077C121.959 126.575 122.12 126.017 122.311 125.518C122.59 124.791 123.483 122.463 123.764 121.838C124.043 121.38 124.095 120.819 123.904 120.318C123.604 119.808 123.053 119.498 122.462 119.507ZM118.789 133.658L109.871 133.658L109.871 132.61L118.789 132.61L118.789 133.658ZM119.314 137.851L109.347 137.851L109.347 134.707L119.314 134.707L119.314 137.851Z" fill="white"/>
<path d="M137.425 121.625C137.16 121.581 136.888 121.605 136.634 121.694L136.634 120.619C136.644 119.836 136.095 119.158 135.326 119.005C135.061 118.961 134.789 118.985 134.536 119.073C134.559 118.281 134.006 117.587 133.228 117.432C132.429 117.298 131.659 117.79 131.445 118.57C131.176 118.464 130.883 118.433 130.598 118.481C129.83 118.634 129.281 119.312 129.291 120.095L129.291 128.697C129.297 128.838 129.2 128.963 129.061 128.992C128.912 129.031 128.757 128.952 128.701 128.808C128.314 128.096 127.787 127.469 127.151 126.966C126.295 126.252 125.058 126.318 124.657 127.357C124.429 127.988 124.627 128.695 125.151 129.115C125.469 129.478 125.734 129.884 125.938 130.32C126.462 131.289 126.217 131.852 127.899 133.54C128.423 133.949 128.74 134.567 128.765 135.23L128.765 135.755C128.476 135.755 128.241 135.989 128.241 136.279L128.241 138.375C128.241 138.665 128.476 138.899 128.765 138.899L137.159 138.899C137.449 138.899 137.683 138.665 137.683 138.375L137.683 136.279C137.682 136.012 137.478 135.789 137.211 135.765C137.309 135.139 137.525 134.538 137.848 133.993C138.446 132.853 138.734 132.162 138.734 128.941L138.734 123.24C138.744 122.457 138.194 121.778 137.425 121.625ZM136.634 137.851L129.29 137.851L129.29 136.803L136.634 136.803L136.634 137.851ZM137.683 128.941C137.683 132.439 137.347 132.634 136.689 133.948C136.412 134.517 136.231 135.127 136.152 135.755L129.815 135.755L129.815 135.23C129.789 134.291 129.362 133.408 128.643 132.803C127.122 131.274 127.476 130.956 126.86 129.824C126.603 129.269 126.257 128.762 125.834 128.321C125.653 128.185 125.574 127.953 125.634 127.734C125.656 127.645 125.725 127.575 125.814 127.552C126.056 127.526 126.298 127.606 126.477 127.771C127.021 128.199 127.47 128.734 127.797 129.344C128.093 129.887 128.72 130.16 129.32 130.007C129.92 129.854 130.339 129.314 130.338 128.695L130.338 120.095C130.328 119.824 130.508 119.583 130.77 119.515C130.923 119.487 131.081 119.529 131.2 119.628C131.32 119.728 131.389 119.876 131.388 120.031L131.388 127.369C131.388 127.658 131.623 127.893 131.913 127.893C132.203 127.893 132.438 127.658 132.438 127.369L132.438 118.983C132.437 118.828 132.506 118.68 132.625 118.581C132.744 118.481 132.901 118.439 133.054 118.466C133.317 118.534 133.497 118.776 133.487 119.047L133.487 127.369C133.487 127.658 133.722 127.893 134.011 127.893C134.301 127.893 134.536 127.658 134.536 127.369L134.536 120.555C134.536 120.4 134.605 120.253 134.723 120.153C134.842 120.054 134.999 120.012 135.152 120.039C135.415 120.106 135.595 120.348 135.585 120.619L135.585 127.369C135.585 127.658 135.82 127.893 136.11 127.893C136.399 127.893 136.634 127.658 136.634 127.369L136.634 123.176C136.634 123.021 136.703 122.873 136.822 122.774C136.941 122.674 137.098 122.632 137.251 122.659C137.514 122.727 137.694 122.969 137.683 123.24L137.683 128.941Z" fill="white"/>
<path d="M126.134 118.983C126.424 118.983 126.658 118.748 126.658 118.459L126.658 117.895C128.145 117.686 129.281 116.61 129.281 115.314C129.281 113.869 127.87 112.693 126.134 112.693C124.977 112.693 124.036 111.988 124.036 111.121C124.036 110.254 124.977 109.549 126.134 109.549C126.722 109.537 127.295 109.739 127.744 110.119C127.884 110.244 128.08 110.286 128.258 110.228C128.437 110.17 128.571 110.021 128.61 109.838C128.649 109.655 128.587 109.464 128.447 109.339C127.942 108.904 127.32 108.629 126.658 108.546L126.658 107.976C126.658 107.687 126.424 107.452 126.134 107.452C125.844 107.452 125.609 107.687 125.609 107.976L125.609 108.54C124.123 108.749 122.986 109.825 122.986 111.121C122.986 112.566 124.398 113.742 126.134 113.742C127.291 113.742 128.232 114.447 128.232 115.314C128.232 116.181 127.291 116.886 126.134 116.886C125.545 116.898 124.973 116.695 124.523 116.316C124.384 116.191 124.188 116.149 124.01 116.207C123.831 116.265 123.697 116.413 123.658 116.597C123.619 116.78 123.681 116.971 123.82 117.096C124.326 117.531 124.948 117.806 125.609 117.889L125.609 118.459C125.609 118.748 125.844 118.983 126.134 118.983Z" fill="white"/>
<circle cx="41" cy="205" r="30" transform="rotate(-90 41 205)" fill="#F28F17"/>
<path d="M53.6252 215.915L53.6089 215.915L53.6089 214.274C53.6089 214.067 53.424 213.915 53.217 213.915L36.8545 213.915C36.8064 213.913 36.7584 213.921 36.7134 213.939C36.6684 213.956 36.6274 213.982 36.5928 214.016C36.5582 214.049 36.5307 214.089 36.512 214.134C36.4933 214.178 36.4837 214.226 36.4839 214.274L36.4839 215.915L36.4464 215.915C36.1704 215.916 35.8973 215.972 35.6428 216.079C35.3883 216.186 35.1575 216.342 34.9636 216.539C34.7696 216.735 34.6164 216.968 34.5126 217.224C34.4088 217.48 34.3566 217.753 34.3589 218.029L34.3589 218.599C34.3563 218.647 34.3635 218.695 34.38 218.741C34.3964 218.786 34.4219 218.828 34.4547 218.863C34.4876 218.898 34.5273 218.927 34.5714 218.946C34.6155 218.966 34.6631 218.977 34.7113 218.978L55.3602 218.978C55.4599 218.977 55.5552 218.936 55.6252 218.865C55.6953 218.794 55.7343 218.698 55.7339 218.599L55.7339 218.029C55.7337 217.47 55.5117 216.933 55.1164 216.537C54.7212 216.14 54.1849 215.917 53.6252 215.915ZM37.2339 214.665L52.8589 214.665L52.8589 215.915L37.2339 215.915L37.2339 214.665ZM54.9839 218.228L35.1089 218.228L35.1089 218.029C35.1065 217.852 35.1393 217.676 35.2053 217.511C35.2713 217.346 35.3693 217.196 35.4937 217.069C35.618 216.942 35.7662 216.841 35.9297 216.772C36.0932 216.702 36.2688 216.666 36.4464 216.665L53.6252 216.665C53.9861 216.666 54.3317 216.811 54.5864 217.067C54.841 217.322 54.984 217.669 54.9839 218.029L54.9839 218.228Z" fill="white"/>
<path d="M36.3115 206.367C36.3818 206.438 36.4772 206.477 36.5766 206.477C36.6761 206.477 36.7715 206.438 36.8418 206.367L38.084 205.125C38.1544 205.055 38.1939 204.96 38.1939 204.86C38.1939 204.761 38.1544 204.665 38.084 204.595L37.6259 204.137L38.7587 203.004L40.4494 204.695L40.3382 204.806C40.2678 204.876 40.2283 204.972 40.2283 205.071C40.2283 205.171 40.2678 205.266 40.3382 205.336L41.0164 206.015L40.8099 206.221C40.7395 206.292 40.7 206.387 40.7 206.486C40.7 206.586 40.7395 206.681 40.8099 206.752L41.6355 207.577C41.7446 207.686 41.8742 207.773 42.0168 207.832C42.1595 207.891 42.3123 207.922 42.4667 207.922C42.6211 207.922 42.774 207.891 42.9166 207.832C43.0592 207.773 43.1888 207.686 43.298 207.577L48.2727 202.603C48.4928 202.382 48.6164 202.083 48.6164 201.771C48.6164 201.46 48.4928 201.161 48.2727 200.94L47.447 200.114C47.3767 200.044 47.2813 200.005 47.1819 200.005C47.0824 200.005 46.9871 200.044 46.9167 200.114L46.7102 200.321L46.0319 199.643C45.9971 199.608 45.9558 199.58 45.9102 199.561C45.8647 199.542 45.816 199.533 45.7667 199.533C45.7175 199.533 45.6687 199.542 45.6232 199.561C45.5777 199.58 45.5364 199.608 45.5015 199.643L45.3903 199.754L40.0945 194.459L40.2058 194.347C40.2761 194.277 40.3156 194.182 40.3156 194.082C40.3156 193.983 40.2761 193.887 40.2058 193.817L39.5275 193.139L39.734 192.932C39.8044 192.862 39.8439 192.767 39.8439 192.667C39.8439 192.568 39.8044 192.472 39.734 192.402L38.9087 191.576C38.6881 191.356 38.3891 191.232 38.0775 191.232C37.7658 191.232 37.4669 191.356 37.2462 191.576L32.2716 196.551C32.0515 196.772 31.9278 197.071 31.9278 197.382C31.9278 197.694 32.0515 197.993 32.2716 198.214L33.0972 199.039C33.1676 199.11 33.2629 199.149 33.3624 199.149C33.4618 199.149 33.5572 199.11 33.6275 199.039L33.8341 198.833L34.5124 199.511C34.5827 199.582 34.6781 199.621 34.7775 199.621C34.877 199.621 34.9723 199.582 35.0427 199.511L35.154 199.4L36.8447 201.091L35.712 202.223L35.2539 201.765C35.2191 201.73 35.1778 201.703 35.1323 201.684C35.0867 201.665 35.038 201.655 34.9887 201.655C34.9395 201.655 34.8907 201.665 34.8452 201.684C34.7997 201.703 34.7584 201.73 34.7235 201.765L33.4814 203.007C33.411 203.078 33.3715 203.173 33.3715 203.272C33.3715 203.372 33.411 203.467 33.4814 203.538L33.6424 203.699L26.8803 209.714C26.5313 210.025 26.2849 210.434 26.1737 210.887C26.0625 211.341 26.0918 211.818 26.2576 212.255C26.4235 212.691 26.7181 213.067 27.1025 213.333C27.4869 213.598 27.9428 213.741 28.4099 213.741C28.433 213.741 28.4564 213.741 28.4796 213.74C28.7937 213.732 29.1028 213.66 29.3875 213.527C29.6723 213.394 29.9265 213.204 30.1344 212.968L36.1504 206.206L36.3115 206.367ZM47.1816 200.91L47.742 201.47C47.8217 201.55 47.8665 201.658 47.8665 201.771C47.8665 201.884 47.8217 201.992 47.742 202.072L42.7674 207.047C42.6875 207.127 42.5793 207.171 42.4664 207.171C42.3536 207.171 42.2453 207.127 42.1655 207.047L41.6051 206.486L47.1816 200.91ZM45.7664 200.438L46.1795 200.851L41.5462 205.484L41.1332 205.071L45.7664 200.438ZM33.3621 198.243L32.8017 197.683C32.7219 197.603 32.677 197.495 32.677 197.382C32.677 197.269 32.7219 197.161 32.8017 197.081L37.7764 192.107C37.8562 192.027 37.9644 191.982 38.0773 191.982C38.1901 191.982 38.2984 192.027 38.3782 192.107L38.9385 192.667L33.3621 198.243ZM34.7773 198.715L34.3642 198.302L38.9972 193.669L39.4103 194.082L34.7773 198.715ZM35.684 198.869L39.5642 194.989L44.8597 200.284L40.9795 204.164L35.684 198.869ZM37.3747 201.62L38.2281 202.474L37.0955 203.606L36.2422 202.753L37.3747 201.62ZM34.9885 202.56L37.2885 204.86L36.5766 205.572L34.2766 203.272L34.9885 202.56ZM29.574 212.47C29.4332 212.628 29.2616 212.756 29.0696 212.845C28.8776 212.935 28.6694 212.984 28.4576 212.991C28.2458 212.997 28.035 212.96 27.8381 212.881C27.6412 212.803 27.4624 212.686 27.3126 212.536C27.1628 212.386 27.0452 212.207 26.967 212.01C26.8888 211.813 26.8517 211.603 26.8579 211.391C26.8641 211.179 26.9135 210.971 27.0031 210.779C27.0927 210.587 27.2205 210.415 27.3789 210.274L34.1734 204.229L35.6192 205.675L29.574 212.47Z" fill="white"/>
<path d="M39.6653 196.285C39.5948 196.215 39.4997 196.177 39.4008 196.177C39.3019 196.177 39.2071 196.217 39.1372 196.287C39.0672 196.357 39.0277 196.452 39.0273 196.551C39.0269 196.65 39.0656 196.745 39.135 196.815L39.4885 197.169C39.5234 197.204 39.5647 197.231 39.6102 197.25C39.6557 197.269 39.7045 197.279 39.7537 197.279C39.803 197.279 39.8517 197.269 39.8972 197.25C39.9427 197.231 39.9841 197.204 40.0189 197.169C40.0537 197.134 40.0814 197.093 40.1002 197.047C40.119 197.002 40.1288 196.953 40.1288 196.904C40.1288 196.854 40.119 196.805 40.1002 196.76C40.0814 196.714 40.0537 196.673 40.0189 196.638L39.6653 196.285Z" fill="white"/>
<path d="M43.0686 200.594C43.1428 200.594 43.2153 200.572 43.277 200.53C43.3387 200.489 43.3867 200.431 43.4151 200.362C43.4435 200.293 43.4509 200.218 43.4364 200.145C43.4219 200.073 43.3862 200.006 43.3338 199.953L40.815 197.434C40.7447 197.363 40.6493 197.324 40.5498 197.324C40.4504 197.324 40.355 197.363 40.2846 197.434C40.2143 197.504 40.1748 197.599 40.1748 197.699C40.1748 197.798 40.2143 197.894 40.2846 197.964L42.8034 200.483C42.8382 200.518 42.8795 200.546 42.925 200.565C42.9705 200.584 43.0194 200.594 43.0686 200.594Z" fill="white"/>
<circle cx="123" cy="287" r="30" transform="rotate(-90 123 287)" fill="#05BEC0"/>
<g clip-path="url(#clip0)">
<path d="M125.346 289.411C125.129 289.55 125.064 289.838 125.203 290.057C125.292 290.198 125.444 290.275 125.599 290.275C125.685 290.275 125.772 290.251 125.85 290.202C125.879 290.183 126.353 289.877 126.747 289.335L126.979 289.475C127.055 289.52 127.138 289.542 127.22 289.542C127.379 289.542 127.534 289.46 127.622 289.314C127.756 289.092 127.684 288.804 127.462 288.671L127.174 288.498C127.185 288.46 127.196 288.421 127.206 288.382C127.355 287.793 127.153 287.165 126.678 286.743C126.243 286.356 125.674 286.23 125.192 286.413C124.957 286.503 124.711 286.638 124.416 286.841L122.557 285.725C122.71 285.528 122.869 285.413 123.177 285.264C123.41 285.151 123.507 284.871 123.395 284.638C123.282 284.405 123.002 284.307 122.768 284.42C122.252 284.67 121.989 284.903 121.749 285.24L121.458 285.065C121.236 284.932 120.948 285.004 120.815 285.226C120.682 285.447 120.754 285.735 120.976 285.869L121.304 286.066C121.047 286.882 121.377 287.703 121.914 288.161C122.606 288.753 123.518 288.753 124.236 288.16C124.313 288.097 124.392 288.032 124.472 287.969L125.94 288.85C125.668 289.199 125.356 289.404 125.346 289.411ZM122.523 287.448C122.296 287.254 122.127 286.932 122.154 286.577L123.616 287.455C123.093 287.868 122.648 287.555 122.523 287.448ZM125.526 287.289C125.678 287.232 125.885 287.292 126.055 287.443C126.189 287.562 126.313 287.757 126.317 287.983L125.32 287.384C125.391 287.347 125.46 287.315 125.526 287.289Z" fill="white"/>
<path d="M121.686 291.487C121.464 291.354 121.176 291.426 121.043 291.648L120.362 292.782C120.229 293.004 120.301 293.292 120.522 293.425C120.744 293.558 121.032 293.488 121.166 293.265L121.847 292.131C121.98 291.909 121.908 291.621 121.686 291.487Z" fill="white"/>
<path d="M127.353 282.968L128.034 281.833C128.168 281.611 128.096 281.323 127.874 281.19C127.652 281.057 127.364 281.129 127.23 281.351L126.549 282.485C126.416 282.707 126.488 282.995 126.71 283.128C126.934 283.263 127.221 283.188 127.353 282.968Z" fill="white"/>
<path d="M123.162 299.19C122.94 299.057 122.652 299.129 122.518 299.351C122.385 299.573 122.457 299.861 122.679 299.994L122.788 300.06C122.863 300.105 122.947 300.127 123.029 300.127C123.188 300.127 123.343 300.046 123.431 299.899C123.564 299.677 123.493 299.389 123.271 299.256L123.162 299.19Z" fill="white"/>
<path d="M114.193 293.803L114.084 293.737C113.862 293.604 113.574 293.675 113.441 293.898C113.308 294.12 113.38 294.408 113.602 294.541L113.711 294.607C113.786 294.652 113.87 294.673 113.952 294.673C114.111 294.673 114.266 294.592 114.354 294.446C114.487 294.224 114.415 293.936 114.193 293.803Z" fill="white"/>
<path d="M134.21 280.822L134.319 280.888C134.395 280.933 134.478 280.955 134.56 280.955C134.719 280.955 134.874 280.874 134.962 280.727C135.096 280.505 135.024 280.217 134.802 280.084L134.693 280.018C134.471 279.885 134.183 279.957 134.049 280.179C133.916 280.401 133.988 280.689 134.21 280.822Z" fill="white"/>
<path d="M125.225 275.42C125.301 275.465 125.384 275.487 125.466 275.487C125.625 275.487 125.781 275.406 125.869 275.259C126.002 275.037 125.93 274.749 125.708 274.616L125.599 274.55C125.377 274.417 125.089 274.489 124.956 274.711C124.822 274.933 124.894 275.221 125.116 275.354L125.225 275.42Z" fill="white"/>
<path d="M132.902 278.587L127.819 275.535C127.713 275.471 127.585 275.452 127.464 275.482C127.344 275.512 127.24 275.589 127.176 275.695C126.507 276.809 125.056 277.171 123.942 276.502C123.72 276.369 123.433 276.441 123.299 276.663L114.377 291.517C114.313 291.624 114.294 291.751 114.325 291.872C114.355 291.993 114.431 292.096 114.538 292.16C115.652 292.829 116.014 294.28 115.345 295.394C115.212 295.616 115.283 295.904 115.505 296.037L120.588 299.09C120.809 299.222 121.097 299.152 121.231 298.929C121.555 298.39 122.07 298.008 122.681 297.856C123.291 297.704 123.925 297.798 124.465 298.122C124.688 298.256 124.975 298.182 125.108 297.962L126.87 295.027C127.004 294.805 126.932 294.517 126.71 294.384C126.488 294.251 126.2 294.323 126.067 294.545L124.529 297.105C123.876 296.829 123.154 296.772 122.454 296.946C121.753 297.121 121.143 297.511 120.697 298.062L116.362 295.458C116.927 294.115 116.536 292.546 115.406 291.626L123.879 277.519C125.221 278.084 126.791 277.693 127.71 276.563L132.045 279.167C131.48 280.509 131.871 282.079 133.001 282.998L127.032 292.937C126.898 293.159 126.97 293.447 127.192 293.581C127.414 293.714 127.702 293.642 127.836 293.42L134.029 283.107C134.163 282.886 134.091 282.598 133.869 282.464C132.755 281.795 132.393 280.345 133.062 279.231C133.195 279.009 133.124 278.72 132.902 278.587Z" fill="white"/>
<path d="M137.748 280.439C138.03 279.971 137.908 279.367 137.379 279.049L129.816 274.502C129.595 274.369 129.309 274.436 129.176 274.658C129.042 274.88 129.11 275.181 129.332 275.314L136.895 279.846C136.98 279.897 137.009 280.01 136.957 280.096L123.832 301.955C123.781 302.041 123.668 302.069 123.582 302.018L111.488 294.768C111.402 294.716 111.374 294.603 111.426 294.518L124.566 272.658C124.618 272.572 124.731 272.544 124.816 272.596L127.707 274.33C127.927 274.462 128.225 274.406 128.363 274.189C128.507 273.966 128.433 273.669 128.207 273.533L125.301 271.783C124.772 271.466 124.076 271.64 123.754 272.174C121.467 275.967 113.967 288.498 110.629 294.033C110.31 294.562 110.49 295.247 111.019 295.564L123.098 302.83C124.061 303.5 124.592 302.471 124.592 302.471C124.592 302.471 132.593 289.032 137.748 280.439Z" fill="white"/>
</g>
<circle cx="41" cy="369" r="30" transform="rotate(-90 41 369)" fill="#F28F17"/>
<g clip-path="url(#clip1)">
<path d="M55.1686 368.676C55.1599 368.495 55.0087 368.354 54.827 368.354L53.6403 368.354C53.438 368.354 53.2792 368.527 53.2896 368.729C53.2998 368.931 53.3051 369.132 53.3051 369.335C53.3051 372.172 52.2838 374.915 50.4292 377.058C49.1892 378.491 47.6328 379.595 45.9037 380.292C45.781 380.341 45.671 380.205 45.7423 380.094L46.5746 378.791C46.6775 378.63 46.6304 378.416 46.4693 378.313L45.4692 377.674C45.3081 377.571 45.0941 377.618 44.9911 377.779L42.2738 382.031C42.1573 382.213 42.2347 382.457 42.4351 382.538L46.9873 384.389C47.1644 384.461 47.3663 384.375 47.4383 384.198L47.8854 383.099C47.9574 382.922 47.8722 382.72 47.6951 382.648L46.7175 382.25C46.6012 382.203 46.6024 382.036 46.7185 381.989C48.6775 381.179 50.4407 379.917 51.8504 378.288C54.0004 375.804 55.1846 372.624 55.1846 369.335C55.1845 369.115 55.1791 368.895 55.1686 368.676Z" fill="white"/>
<path d="M27.719 369.208C27.7126 369.389 27.8517 369.542 28.0327 369.557L29.2124 369.655C29.414 369.672 29.5865 369.513 29.5929 369.311C29.5994 369.109 29.6108 368.908 29.6275 368.707C29.8623 365.882 31.1053 363.236 33.1278 361.257C34.48 359.933 36.1197 358.963 37.8974 358.413C38.0239 358.374 38.1222 358.518 38.042 358.623L37.1066 359.85C36.9907 360.002 37.0199 360.219 37.1719 360.335L38.1133 361.054C38.2653 361.17 38.4826 361.141 38.5985 360.989L41.6533 356.982C41.7844 356.81 41.7275 356.561 41.5345 356.463L37.1593 354.245C36.9888 354.158 36.7804 354.226 36.694 354.397L36.1586 355.454C36.0723 355.624 36.1404 355.833 36.3109 355.919L37.25 356.395C37.3619 356.452 37.347 356.618 37.2274 356.656C35.2113 357.3 33.3528 358.41 31.8155 359.915C29.4708 362.21 28.0296 365.277 27.7575 368.551C27.7394 368.77 27.7266 368.989 27.719 369.208Z" fill="white"/>
<path d="M39.0963 383.573V383.573L39.0963 383.993L25.4802 383.993L25.4802 383.573C25.4802 381.301 26.8232 379.335 28.7603 378.429C29.2809 378.186 29.436 377.529 29.1228 377.075C28.6972 376.458 28.4479 375.712 28.4479 374.908C28.4479 372.795 30.1675 371.075 32.2802 371.075C34.393 371.075 36.1127 372.795 36.1127 374.908C36.1127 375.71 35.8646 376.454 35.441 377.07C35.1283 377.525 35.2846 378.182 35.8059 378.424C37.7486 379.327 39.0964 381.297 39.0963 383.573Z" stroke="white" stroke-width="1.03847"/>
<path d="M52.7066 359.033C52.3939 359.488 52.5502 360.145 53.0715 360.387C55.0141 361.29 56.3619 363.26 56.3619 365.535L56.3619 365.956L42.7458 365.956L42.7458 365.535C42.7458 363.264 44.0888 361.298 46.0258 360.392C46.5465 360.149 46.7015 359.492 46.3883 359.038C45.9627 358.421 45.7134 357.675 45.7134 356.87C45.7134 354.758 47.433 353.038 49.5458 353.038C51.6586 353.038 53.3783 354.758 53.3783 356.87C53.3783 357.673 53.1301 358.417 52.7066 359.033Z" stroke="white" stroke-width="1.03847"/>
</g>
<circle cx="123" cy="451" r="30" transform="rotate(-90 123 451)" fill="#05BEC0"/>
<path d="M122.499 462L122.499 463L126.499 463C126.632 463 126.759 462.947 126.853 462.854L127.999 461.707L129.146 462.854C129.239 462.947 129.366 463 129.499 463L135.499 463C136.162 462.999 136.797 462.736 137.266 462.267C137.735 461.798 137.998 461.163 137.999 460.5L137.999 452.5C137.998 451.837 137.735 451.202 137.266 450.733C136.797 450.264 136.162 450.001 135.499 450L134.499 450L134.499 451L135.499 451C135.897 451 136.278 451.159 136.559 451.44C136.84 451.721 136.999 452.102 136.999 452.5L136.999 460.5C136.999 460.898 136.84 461.279 136.559 461.56C136.278 461.841 135.897 462 135.499 462L129.706 462L128.353 460.646C128.259 460.553 128.132 460.5 127.999 460.5C127.866 460.5 127.739 460.553 127.646 460.646L126.292 462L122.499 462Z" fill="white"/>
<path d="M110.499 463L110.999 463L110.999 462L110.499 462C110.101 462 109.72 461.842 109.439 461.56C109.158 461.279 108.999 460.898 108.999 460.5L108.999 459.707L114.438 465.147C114.985 465.693 115.726 466 116.499 466C117.272 466 118.013 465.693 118.56 465.147L127.499 456.207L127.499 457L128.499 457L128.499 455.5L128.206 455.5L130.853 452.854C130.946 452.76 130.999 452.633 130.999 452.5L130.999 451L132.499 451C132.632 451 132.759 450.948 132.853 450.854L137.146 446.561C137.692 446.014 137.999 445.273 137.999 444.5C137.999 443.727 137.692 442.986 137.146 442.44L131.56 436.854C131.013 436.307 130.272 436 129.499 436C128.726 436 127.985 436.307 127.438 436.854L123.146 441.147C123.052 441.24 122.999 441.368 122.999 441.5L122.999 443L121.499 443C121.366 443 121.239 443.053 121.146 443.147L108.999 455.293L108.999 452.5C108.999 452.103 109.158 451.721 109.439 451.44C109.72 451.159 110.101 451.001 110.499 451L112.499 451L112.499 450L110.499 450C109.836 450.001 109.201 450.265 108.732 450.733C108.263 451.202 108 451.837 107.999 452.5L107.999 460.5C108 461.163 108.263 461.798 108.732 462.267C109.201 462.736 109.836 462.999 110.499 463ZM109.56 456.147L121.706 444L123.499 444C123.632 444 123.759 443.948 123.853 443.854C123.946 443.76 123.999 443.633 123.999 443.5L123.999 441.707L128.146 437.561C128.869 436.838 130.129 436.838 130.853 437.561L136.438 443.147C136.797 443.506 136.999 443.993 136.999 444.5C136.999 445.008 136.797 445.495 136.438 445.854L132.292 450L130.499 450C130.366 450 130.239 450.053 130.145 450.147C130.052 450.24 129.999 450.368 129.999 450.5L129.999 452.293L117.853 464.44C117.129 465.163 115.869 465.163 115.146 464.44L109.56 458.854C109.201 458.495 108.999 458.008 108.999 457.5C108.999 456.993 109.201 456.506 109.56 456.147Z" fill="white"/>
<path d="M127.499 458L128.499 458L128.499 459.5L127.499 459.5L127.499 458Z" fill="white"/>
<path d="M129.999 459L132.499 459L132.499 460L129.999 460L129.999 459Z" fill="white"/>
<path d="M133.5 459L136 459L136 460L133.5 460L133.5 459Z" fill="white"/>
<path d="M129.999 457L135.999 457L135.999 458L129.999 458L129.999 457Z" fill="white"/>
<path d="M129.999 455L135.999 455L135.999 456L129.999 456L129.999 455Z" fill="white"/>
<path d="M131.499 453L135.999 453L135.999 454L131.499 454L131.499 453Z" fill="white"/>
<path d="M124.143 444.854L124.85 444.148L125.85 445.147L125.143 445.854L124.143 444.854Z" fill="white"/>
<path d="M126.143 446.854L126.85 446.148L127.85 447.147L127.143 447.854L126.143 446.854Z" fill="white"/>
<path d="M128.143 448.854L128.85 448.148L129.85 449.147L129.143 449.854L128.143 448.854Z" fill="white"/>
<path d="M114.875 453.484L117.608 454.184L116.792 455L114.999 455C114.9 455 114.803 455.029 114.721 455.084C114.639 455.139 114.575 455.217 114.537 455.309C114.499 455.4 114.489 455.501 114.509 455.598C114.528 455.695 114.576 455.784 114.645 455.854L118.145 459.354C118.215 459.423 118.304 459.471 118.401 459.49C118.498 459.51 118.599 459.5 118.69 459.462C118.782 459.424 118.86 459.36 118.915 459.278C118.97 459.196 118.999 459.099 118.999 459L118.999 457.207L119.752 456.454L120.518 459.138C120.542 459.221 120.588 459.297 120.65 459.358C120.712 459.419 120.789 459.462 120.874 459.484C120.958 459.506 121.046 459.505 121.13 459.482C121.214 459.46 121.291 459.415 121.352 459.354L122.352 458.354C122.399 458.307 122.436 458.252 122.461 458.191C122.486 458.131 122.499 458.066 122.499 458L122.499 453.707L123.292 452.914C123.676 452.532 123.98 452.078 124.187 451.578C124.394 451.078 124.5 450.541 124.499 450C124.499 449.867 124.446 449.74 124.352 449.646C124.259 449.553 124.132 449.5 123.999 449.5C123.458 449.499 122.921 449.604 122.421 449.812C121.921 450.019 121.467 450.323 121.085 450.707L120.292 451.5L115.999 451.5C115.866 451.5 115.739 451.553 115.645 451.647L114.645 452.647C114.583 452.709 114.538 452.787 114.516 452.872C114.493 452.957 114.493 453.047 114.517 453.132C114.54 453.217 114.586 453.295 114.648 453.357C114.711 453.418 114.789 453.462 114.875 453.484ZM121.499 457.793L121.246 458.046L120.56 455.646L121.499 454.707L121.499 457.793ZM121.792 451.414C122.243 450.961 122.822 450.658 123.451 450.548C123.34 451.177 123.038 451.756 122.585 452.207L118.145 456.647C118.052 456.74 117.999 456.867 117.999 457L117.999 457.793L116.206 456L116.999 456C117.132 456 117.259 455.947 117.352 455.854L121.792 451.414ZM116.206 452.5L119.292 452.5L118.43 453.362L115.973 452.733L116.206 452.5Z" fill="white"/>
<path d="M126.144 442.648L130.143 438.648L130.85 439.355L126.851 443.355L126.144 442.648Z" fill="white"/>
<path d="M127.643 444.148L131.642 440.148L132.349 440.855L128.35 444.855L127.643 444.148Z" fill="white"/>
<path d="M129.144 445.648L133.143 441.648L133.85 442.355L129.851 446.355L129.144 445.648Z" fill="white"/>
<path d="M130.642 447.148L132.142 445.648L132.849 446.355L131.349 447.855L130.642 447.148Z" fill="white"/>
<path d="M133.143 444.648L134.643 443.149L135.35 443.855L133.85 445.355L133.143 444.648Z" fill="white"/>
<path d="M110.144 457.145L112.643 454.645L113.35 455.352L110.851 457.852L110.144 457.145Z" fill="white"/>
<path d="M111.643 458.645L113.143 457.145L113.849 457.852L112.35 459.352L111.643 458.645Z" fill="white"/>
<path d="M113.143 460.145L114.643 458.645L115.349 459.352L113.85 460.852L113.143 460.145Z" fill="white"/>
<path d="M114.642 461.645L116.142 460.145L116.849 460.852L115.349 462.352L114.642 461.645Z" fill="white"/>
<path d="M116.143 463.145L117.643 461.645L118.35 462.352L116.85 463.852L116.143 463.145Z" fill="white"/>
<path d="M127.142 452.147L128.142 451.147L128.849 451.854L127.849 452.854L127.142 452.147Z" fill="white"/>
<path d="M125.142 454.146L126.142 453.147L126.849 453.854L125.849 454.853L125.142 454.146Z" fill="white"/>
<path d="M118.644 448.646L122.143 445.147L122.85 445.854L119.351 449.353L118.644 448.646Z" fill="white"/>
<circle cx="41" cy="533" r="30" transform="rotate(-90 41 533)" fill="#F28F17"/>
<g clip-path="url(#clip2)">
<path d="M46.9437 535.043L42.5992 532.373C42.5462 532.34 42.4854 532.318 42.4239 532.309L41.0637 532.069C40.8121 532.024 40.565 532.197 40.5206 532.449C40.4762 532.701 40.6492 532.948 40.9008 532.992L42.1844 533.219L46.4529 535.842C46.6613 535.97 46.9471 535.908 47.0854 535.707C47.2338 535.491 47.1668 535.18 46.9437 535.043Z" fill="white"/>
<path d="M56.8437 535.193C56.6668 535.003 56.3702 534.993 56.181 535.17L54.2805 536.946L45.5718 528.354L56.8217 517.811C57.0106 517.634 57.0202 517.337 56.8432 517.148C56.6662 516.959 56.3695 516.95 56.1806 517.127L44.575 528.003C44.3836 528.182 44.3796 528.495 44.5663 528.679L45.3366 529.439L45.0907 529.656L39.9419 529.213C39.8625 529.206 39.7799 529.22 39.7074 529.253L35.6278 531.111C35.616 531.108 35.6041 531.105 35.5918 531.103L33.2452 530.689L33.4349 530.204C33.5287 529.964 33.4115 529.693 33.1724 529.598L25.6714 526.597C25.4309 526.501 25.1582 526.618 25.062 526.858C24.9658 527.099 25.0828 527.372 25.3232 527.468L32.3922 530.295L28.2264 540.941L25.6538 540.03C25.4097 539.943 25.1418 540.071 25.0553 540.315C24.9689 540.559 25.0967 540.827 25.3408 540.914L28.3412 541.976C28.5767 542.06 28.8433 541.938 28.9342 541.705L29.6304 539.926L31.4546 540.948L31.2534 541.274C30.6833 542.198 30.9712 543.414 31.8952 543.984C32.3838 544.285 32.9903 544.357 33.5363 544.18C33.6239 544.749 33.9583 545.257 34.4486 545.559C34.9372 545.861 35.5437 545.932 36.0898 545.756C36.1774 546.325 36.5117 546.832 37.002 547.135C37.4921 547.437 38.0955 547.509 38.6433 547.332C38.731 547.9 39.0652 548.408 39.5554 548.71C40.2678 549.15 41.2108 549.084 41.853 548.546C42.0149 548.41 42.1542 548.248 42.2651 548.069L42.5849 547.55L42.8482 547.712C43.5616 548.15 44.5043 548.083 45.1455 547.544C45.3072 547.408 45.4462 547.245 45.5567 547.065C45.7765 546.708 45.8674 546.307 45.8434 545.917C45.9923 545.952 46.1447 545.972 46.2984 545.972C46.9793 545.972 47.6233 545.613 47.9797 545.033C48.1943 544.683 48.2923 544.285 48.2675 543.884C48.416 543.92 48.568 543.939 48.7213 543.939C49.4022 543.939 50.0463 543.58 50.4025 543C50.6173 542.65 50.7153 542.252 50.6903 541.85C50.8404 541.886 50.9928 541.905 51.1446 541.905C51.8067 541.905 52.4542 541.572 52.8255 540.967C53.3938 540.042 53.1037 538.827 52.1787 538.259L51.8574 538.061L52.9348 536.936L53.9427 537.93C54.1194 538.104 54.4107 538.108 54.592 537.939L56.8215 535.855C57.0105 535.679 57.0205 535.382 56.8437 535.193ZM33.8068 542.85C33.5082 543.334 32.8715 543.484 32.3875 543.186C31.9035 542.887 31.7527 542.251 32.0513 541.767L34.6772 537.511C34.9702 537.036 35.5991 536.881 36.0793 537.164C36.5762 537.458 36.7133 538.139 36.415 538.623L33.8068 542.85ZM36.3602 544.425C36.0616 544.909 35.4248 545.06 34.9409 544.761C34.4628 544.466 34.3092 543.821 34.6047 543.342L36.7053 539.938C36.9984 539.463 37.6273 539.307 38.1075 539.591C38.6043 539.885 38.7415 540.566 38.4431 541.049L36.3602 544.425ZM38.9138 546.001C38.769 546.235 38.5417 546.399 38.2737 546.463C38.0055 546.526 37.7288 546.482 37.4943 546.337C37.0163 546.042 36.8627 545.396 37.1582 544.918L38.7337 542.364C39.0268 541.889 39.6557 541.734 40.1358 542.018C40.6327 542.311 40.7698 542.993 40.4715 543.476L38.9138 546.001ZM42.4998 545.903L41.4672 547.576C41.1721 548.054 40.5267 548.208 40.0478 547.912C39.5697 547.617 39.4162 546.972 39.7117 546.493L40.762 544.791C41.055 544.316 41.684 544.16 42.1641 544.444C42.661 544.738 42.7981 545.419 42.4998 545.903ZM51.04 537.559L48.7162 536.131C48.5007 535.999 48.2037 536.07 48.0713 536.285C47.9389 536.501 48.0098 536.798 48.2253 536.93L51.6877 539.058C52.1722 539.355 52.3242 539.992 52.0265 540.476C51.7287 540.961 51.0923 541.113 50.6077 540.815L46.8944 538.533C46.6738 538.398 46.3851 538.467 46.2496 538.687C46.1141 538.908 46.183 539.197 46.4036 539.332L49.2648 541.09C49.7435 541.384 49.8982 542.03 49.6037 542.509C49.3095 542.988 48.6643 543.142 48.185 542.848L45.592 541.254C45.3713 541.119 45.0827 541.188 44.9472 541.408C44.8117 541.629 44.8806 541.918 45.1012 542.053L46.842 543.123C47.3207 543.417 47.4754 544.062 47.1808 544.542C46.8867 545.02 46.2415 545.175 45.7622 544.88C45.7622 544.88 44.2312 543.941 44.2168 543.934C44.0028 543.83 43.741 543.904 43.614 544.111C43.4785 544.331 43.5475 544.62 43.768 544.755L44.4192 545.156C44.9037 545.453 45.0557 546.09 44.758 546.574C44.4638 547.053 43.8187 547.208 43.3393 546.913L43.0775 546.752L43.298 546.395C43.5798 545.938 43.6672 545.376 43.5378 544.852C43.4102 544.335 43.0918 543.903 42.6415 543.637C42.2902 543.429 41.8971 543.345 41.5143 543.371C41.5862 543.062 41.5866 542.737 41.5096 542.425C41.382 541.908 41.0636 541.476 40.6133 541.21C40.2619 541.003 39.8688 540.918 39.4861 540.944C39.6794 540.114 39.3235 539.22 38.585 538.784C38.2337 538.576 37.8406 538.492 37.4578 538.518C37.6512 537.687 37.2953 536.794 36.5568 536.357C35.64 535.815 34.439 536.112 33.8797 537.018L31.9478 540.149L29.9754 539.044L32.8965 531.579L34.487 531.86C34.0347 532.422 33.9075 533.213 34.2262 533.913C34.5561 534.637 35.2727 535.066 36.0211 535.066C36.2937 535.066 36.5705 535.009 36.8343 534.889L39.5798 533.638C39.8123 533.532 39.918 533.25 39.8121 533.017C39.7062 532.785 39.4237 532.679 39.1912 532.785L36.4456 534.035C35.9282 534.271 35.3152 534.042 35.0795 533.524C34.8438 533.007 35.073 532.394 35.5906 532.158L39.984 530.157L45.2101 530.607C45.2235 530.608 45.237 530.609 45.2503 530.609C45.3641 530.609 45.4745 530.568 45.5606 530.492L46.0055 530.099L52.2671 536.277L51.04 537.559Z" fill="white"/>
</g>
<defs>
<clipPath id="clip0">
<rect width="32" height="32" fill="white" transform="translate(106.999 271.311)"/>
</clipPath>
<clipPath id="clip1">
<rect width="32" height="32" fill="white" transform="translate(24.9219 352.519)"/>
</clipPath>
<clipPath id="clip2">
<rect width="32" height="32" fill="white" transform="translate(25 517)"/>
</clipPath>
</defs>
</svg>
